<?xml version="1.0" encoding="utf-8"?>
<!-- Generator: Adobe Illustrator 17.1.0, SVG Export Plug-In . SVG Version: 6.00 Build 0)  -->
<!DOCTYPE svg PUBLIC "-//W3C//DTD SVG 1.1//EN" "http://www.w3.org/Graphics/SVG/1.1/DTD/svg11.dtd">
<svg version="1.1" id="Layer_1" xmlns="http://www.w3.org/2000/svg" xmlns:xlink="http://www.w3.org/1999/xlink" x="0px" y="0px"
	 viewBox="0 0 855.1 427.5" enable-background="new 0 0 855.1 427.5" xml:space="preserve">
<path fill="#A14944" stroke="#000000" stroke-miterlimit="10" d="M21.5,297.9c14,4.9,36.3,19.6,49.4,3.5c5.7-7,7.4-16.4,8.9-25.3
	c5.3-30.5,12.1-76.7,19.3-112.7c6-30.2,6.8-54,18.2-54c13.5,0,19.4,80.5,20.9,91.2c4.3,29.9,7.9,59.9,10.8,89.9
	c2.2,23.4-0.1,54.3,24.8,66.7c11,5.5,26.1,3.4,33.1-6.8c5.1-7.5,5.4-18.2,12.3-24.1c5.4-4.6,13.2-4.9,20.4-4.9
	c87.1,0,174.3,0.3,261.3-1c49-0.7,147-5.6,196-4c17.8,0.6,33.3,2.9,51,5c6.5,0.8,19.5,5.9,26,5c8.2-1.2,45.6-7,50-14
	c1.9-3,3.4-14.3,0.8-18c-3.9-5.5-16.8-8.2-24.8-11.3c-10.5-4.1-21-8.7-32.3-8.7c-7.3,0-12.9,6.2-20,7.7c-4.8,1-36.9,1.5-46.6,1.8
	c-18.7,0.6-37.3,0.9-56,1.2c-38.4,0.5-76.8,0.7-115.1,0.4c-1,0-2,0-3,0c-102.3-0.9-204.7-4.1-307-6.1c-8.4-0.2-18.5,0.6-22.5,8
	c-2.2,4.1-2.8,10.4-7.4,11.2c-5.3,0.9-7.1-6.7-7.3-12.1c-2-38.5-6.3-76.9-13-114.9c-3.3-19-7.3-37.9-11.8-56.6
	c-3.8-15.7-6.1-35.5-15-49.1c-6.2-9.4-16.2-17.1-27.5-17.6C78,46.7,71.7,103,69,129.3c-3.6,34.7-7.2,69.4-10.8,104.1
	C56.3,252.1,57,310.3,21.5,297.9z"/>
<path fill="#FFFFFF" stroke="#000000" stroke-miterlimit="10" d="M717.6,304.6l-19-1.6l0.3,13.5c6.6,0.3,12.8,0.7,19,1.4
	L717.6,304.6z"/>
<path fill="#FFFFFF" stroke="#000000" stroke-miterlimit="10" d="M698.9,316.5l-0.3-13.5l-19,0.4l0.3,12.7c6.1,0,11.9,0.1,17,0.3
	C697.6,316.4,698.2,316.5,698.9,316.5z"/>
<path fill="#FFFFFF" stroke="#000000" stroke-miterlimit="10" d="M679.9,316.1l-0.3-12.7l-19,0.4l0.3,12.3
	C667.6,316.1,673.9,316.1,679.9,316.1z"/>
<path fill="#FFFFFF" stroke="#000000" stroke-miterlimit="10" d="M660.6,303.9l-19,0.4l0.3,12.2c6.5-0.1,12.9-0.2,19-0.3
	L660.6,303.9z"/>
<path fill="#FFFFFF" stroke="#000000" stroke-miterlimit="10" d="M641.6,304.3l-19,0.4l0.3,12.2c6.4-0.2,12.8-0.3,19-0.4
	L641.6,304.3z"/>
<path fill="#FFFFFF" stroke="#000000" stroke-miterlimit="10" d="M623.1,304.7l-19,0.4l0.3,12.3c6.4-0.2,12.7-0.4,19-0.5
	L623.1,304.7z"/>
<path fill="#FFFFFF" stroke="#000000" stroke-miterlimit="10" d="M604.1,305.1l-19,0.4l0.3,12.4c6.3-0.2,12.7-0.4,19-0.6
	L604.1,305.1z"/>
<path fill="#FFFFFF" stroke="#000000" stroke-miterlimit="10" d="M585.1,305.5l-19,0.4l0.3,12.6c6.2-0.2,12.6-0.4,19-0.6
	L585.1,305.5z"/>
<path fill="#FFFFFF" stroke="#000000" stroke-miterlimit="10" d="M566.1,305.9l-19,0.4l0.3,12.8c6.2-0.2,12.5-0.4,19-0.6
	L566.1,305.9z"/>
<path fill="#FFFFFF" stroke="#000000" stroke-miterlimit="10" d="M547.1,306.3l-19,0.4l0.3,13c6.1-0.2,12.4-0.4,19-0.6L547.1,306.3z
	"/>
<path fill="#FFFFFF" stroke="#000000" stroke-miterlimit="10" d="M528.2,306.8l-19,0.4l0.3,13.1c5.9-0.1,12.2-0.3,19-0.5
	L528.2,306.8z"/>
<path fill="#FFFFFF" stroke="#000000" stroke-miterlimit="10" d="M509.5,320.2l-0.3-13l-19,0.4l0.3,12.9c3.5,0,6.9-0.1,10.4-0.1
	C503.6,320.4,506.5,320.3,509.5,320.2z"/>
<path fill="#FFFFFF" stroke="#000000" stroke-miterlimit="10" d="M489.9,307.8l-19,0.2l0.1,12.8c6.3-0.1,12.7-0.2,19-0.2
	L489.9,307.8z"/>
<path fill="#FFFFFF" stroke="#000000" stroke-miterlimit="10" d="M470.9,308l-19,0.2l0.1,12.7c6.3-0.1,12.7-0.1,19-0.2L470.9,308z"
	/>
<path fill="#FFFFFF" stroke="#000000" stroke-miterlimit="10" d="M451.9,308.2l-19,0.2l0.1,12.7c6.3,0,12.7-0.1,19-0.2L451.9,308.2z
	"/>
<path fill="#FFFFFF" stroke="#000000" stroke-miterlimit="10" d="M432.9,308.4l-19,0.2l0.1,12.6c6.3,0,12.7-0.1,19-0.1L432.9,308.4z
	"/>
<path fill="#FFFFFF" stroke="#000000" stroke-miterlimit="10" d="M413.9,308.6l-19,0.2l0.1,12.5c6.3,0,12.7-0.1,19-0.1L413.9,308.6z
	"/>
<path fill="#FFFFFF" stroke="#000000" stroke-miterlimit="10" d="M395.4,308.8l-19,0.2l0.1,12.3c6.3,0,12.7,0,19-0.1L395.4,308.8z"
	/>
<path fill="#FFFFFF" stroke="#000000" stroke-miterlimit="10" d="M376.4,309.1l-19,0.2l0.1,12.1c6.3,0,12.7,0,19,0L376.4,309.1z"/>
<path fill="#FFFFFF" stroke="#000000" stroke-miterlimit="10" d="M357.4,309.3l-19,0.2l0.1,11.9c6.3,0,12.7,0,19,0L357.4,309.3z"/>
<path fill="#FFFFFF" stroke="#000000" stroke-miterlimit="10" d="M338.6,321.4l-0.1-11.9l-19,0.2l0.1,11.7
	C325.9,321.4,332.2,321.4,338.6,321.4z"/>
<path fill="#FFFFFF" stroke="#000000" stroke-miterlimit="10" d="M319.4,309.7l-19,0.2l0.1,11.5c6.3,0,12.7,0,19,0L319.4,309.7z"/>
<path fill="#FFFFFF" stroke="#000000" stroke-miterlimit="10" d="M300.4,309.9l-19,0.2l0.1,11.3c6.3,0,12.7,0,19,0L300.4,309.9z"/>
<path fill="#FFFFFF" stroke="#000000" stroke-miterlimit="10" d="M281.5,310.2l-19,0.2l0.1,11c6.3,0,12.7,0,19,0L281.5,310.2z"/>
<path fill="#FFFFFF" stroke="#000000" stroke-miterlimit="10" d="M243.4,321.4c6.4,0,12.8,0,19.2,0v-11l-19.3-0.2L243.4,321.4z"/>
<path fill="#FFFFFF" stroke="#000000" stroke-miterlimit="10" d="M243.4,321.4l-0.1-11.2l-20.5,0.9l3.5,11.6c4.2-1.2,9-1.3,13.4-1.3
	C240.9,321.4,242.1,321.4,243.4,321.4z"/>
<path fill="#FFFFFF" stroke="#000000" stroke-miterlimit="10" d="M222.7,311.1c0,0-12.1,0-16.9,3.4c-6.9,5-8.9,10.2-8.9,10.2
	l14.4,16.4c1.9-5.5,3.7-11,8-14.7c2-1.8,4.4-2.9,7-3.6L222.7,311.1z"/>
<path fill="#FFFFFF" stroke="#000000" stroke-miterlimit="10" d="M196.9,324.6c0,0-1.7,5.2-3.8,7c-2.5,2.2-6.4,3-6.4,3l8.2,24.3
	c4.9-1.5,9.2-4.3,12.1-8.5c1.9-2.8,3.2-6.1,4.3-9.4L196.9,324.6z"/>
<path fill="#FFFFFF" stroke="#000000" stroke-miterlimit="10" d="M186.7,334.6c0,0-3.8-0.6-6.8-2.3c-5.3-3-5.2-6.7-5.2-6.7
	l-10.9,24.2c2.7,2.9,6,5.4,10.1,7.4c6.4,3.2,14.2,3.8,21,1.7L186.7,334.6z"/>
<path fill="#FFFFFF" stroke="#000000" stroke-miterlimit="10" d="M150.9,315c1.4,13,4.3,25.8,12.9,34.8l10.9-24.2l-6.6-12.3
	L150.9,315z"/>
<path fill="#FFFFFF" stroke="#000000" stroke-miterlimit="10" d="M150.9,315.3l17.2-2l-2.1-18.9l-16.5,1.9
	C149.9,302.5,150.2,308.9,150.9,315.3z"/>
<path fill="#FFFFFF" stroke="#000000" stroke-miterlimit="10" d="M163.9,276.1l-16.1,1.8c0.4,4.2,0.8,8.4,1.3,12.5
	c0.2,2.1,0.4,4.2,0.5,6.4L166,295L163.9,276.1z"/>
<path fill="#FFFFFF" stroke="#000000" stroke-miterlimit="10" d="M147.8,277.9l16.1-1.8l-2.1-18.9l-16,1.8
	C146.4,265.3,147.1,271.6,147.8,277.9z"/>
<path fill="#FFFFFF" stroke="#000000" stroke-miterlimit="10" d="M145.7,259l16-1.8l-2.1-18.9l-16.1,1.8
	C144.3,246.4,145,252.7,145.7,259z"/>
<path fill="#FFFFFF" stroke="#000000" stroke-miterlimit="10" d="M141.1,221.3c0.8,6.3,1.6,12.6,2.4,18.8l16.1-1.8l-2.1-18.9
	L141.1,221.3z"/>
<path fill="#FFFFFF" stroke="#000000" stroke-miterlimit="10" d="M141.1,221.3l16.3-1.9l-2.1-18.9l-16.8,1.9
	C139.4,208.7,140.3,215,141.1,221.3z"/>
<path fill="#FFFFFF" stroke="#000000" stroke-miterlimit="10" d="M153.1,181.7l-16.7,1.9c0.9,8.2,1.5,14.5,1.8,17
	c0.1,0.6,0.2,1.3,0.3,1.9l16.8-1.9L153.1,181.7z"/>
<path fill="#FFFFFF" stroke="#000000" stroke-miterlimit="10" d="M136.4,183.7l16.7-1.9l-2.1-18.9l-16.7,1.9
	C135.1,171.6,135.8,178.1,136.4,183.7z"/>
<path fill="#FFFFFF" stroke="#000000" stroke-miterlimit="10" d="M134.2,165l16.8-1.9c0,0-1.1-6.9-2.3-12.7
	c-1.3-5.6-4.2-18.8-4.2-18.8l-14.8,5.2C130.8,143.7,133.4,158.1,134.2,165z"/>
<path fill="#FFFFFF" stroke="#000000" stroke-miterlimit="10" d="M144.5,131.6c0,0-1.6-6.9-3.8-12.2c-1.9-4.8-7.5-16.8-7.5-16.8
	l-9,14.4c2.8,6.5,3.6,9,5.4,19.8L144.5,131.6z"/>
<path fill="#FFFFFF" stroke="#000000" stroke-miterlimit="10" d="M119.7,89.6c-9-1-17,8.2-17,8.2l8,15.5c2.4-3.1,4.6-3.9,6.7-4
	c2.6-0.1,4.9,2.9,6.9,7.7l9-14.4C133.2,102.6,129.4,90.7,119.7,89.6z"/>
<path fill="#FFFFFF" stroke="#000000" stroke-miterlimit="10" d="M105,130.3c1.1-5.7,3-13.2,5.6-17l-8-15.5c0,0-5,5.1-8.2,12.3
	c-4.3,9.4-4.2,14.8-4.2,14.8L105,130.3z"/>
<path fill="#FFFFFF" stroke="#000000" stroke-miterlimit="10" d="M105,130.3l-14.8-5.4c0,0-1.1,6.2-1.5,10.1
	c-0.3,2.8-1.1,10.2-1.1,10.2l14.4,1.8C102.9,142.2,104.2,134.5,105,130.3z"/>
<path fill="#FFFFFF" stroke="#000000" stroke-miterlimit="10" d="M85.7,240.7l-10-1.3l-2.4,18.8l9.4,1.2
	C83.6,253.5,84.6,247.2,85.7,240.7z"/>
<path fill="#FFFFFF" stroke="#000000" stroke-miterlimit="10" d="M88.7,221.9l-10.7-1.4l-2.4,18.8l10,1.3
	C86.6,234.6,87.7,228.3,88.7,221.9z"/>
<path fill="#FFFFFF" stroke="#000000" stroke-miterlimit="10" d="M91.8,203.2l-11.4-1.5l-2.4,18.8l10.7,1.4
	C89.7,215.7,90.8,209.4,91.8,203.2z"/>
<path fill="#FFFFFF" stroke="#000000" stroke-miterlimit="10" d="M82.9,182.9l-2.4,18.8l11.4,1.5c1.1-6.3,2.2-12.6,3.3-18.7
	L82.9,182.9z"/>
<path fill="#FFFFFF" stroke="#000000" stroke-miterlimit="10" d="M85.3,164l-2.4,18.8l12.2,1.6c1.2-6.4,2.3-12.7,3.5-18.7L85.3,164z
	"/>
<path fill="#FFFFFF" stroke="#000000" stroke-miterlimit="10" d="M87.6,145.3l-2.4,18.8l13.4,1.7c0.2-0.8,0.3-1.6,0.5-2.4
	c1.1-5.7,2.1-11.2,3-16.3L87.6,145.3z"/>
<path fill="#FFFFFF" stroke="#000000" stroke-miterlimit="10" d="M70.9,277c0,0-2.4,7.7-4.7,11.9c-2.5,4.7-9.1,10.6-9.1,10.6
	l6.6,7.6c2.6-1.2,5.1-3,7.2-5.7c5.3-6.5,7.1-15,8.6-23.3L70.9,277z"/>
<path fill="#FFFFFF" stroke="#000000" stroke-miterlimit="10" d="M73.1,258.2l-2.4,18.8l8.7,1.1c0.1-0.7,0.2-1.4,0.4-2.1
	c0.9-5.2,1.8-10.8,2.8-16.7L73.1,258.2z"/>
<path fill="#FFFFFF" stroke="#000000" stroke-miterlimit="10" d="M737.2,311c-8.9-4.3-19.6-6.4-19.6-6.4v13.2
	c10,1,19.8,2.3,30.3,3.6c1,0.1,2.3,0.4,3.6,0.7l0,0C751.5,322.1,745.7,315.1,737.2,311z"/>
<g>
	<path fill="#A14944" stroke="#000000" stroke-miterlimit="10" d="M333.1,167c-1.2,0.4-1.3,1.3-1.7,2c-2.2,4.7-4.4,9.3-6.5,14
		c-4.3,9.6-8.6,19.3-12.9,28.9c-2.4,5.4-5,10.7-7.4,16.1c-3,6.6-5.9,13.2-8.8,19.9c-0.3,0.7-0.7,1.2-1.7,1.2
		c-10.4-0.1-20.7-0.1-31.1,0c-1.3,0-1.3-0.5-1.4-1.5c-0.4-4.1,0-8.3-0.5-12.4c-0.3-3.2-0.1-6.4-0.3-9.5c-0.5-6.9-0.6-13.9-0.9-20.9
		c-0.2-3.4-0.1-6.8-0.3-10.1c-0.5-6.7-0.7-13.5-0.9-20.2c-0.1-2.1-0.3-4.3-0.3-6.4c0-0.5,0.1-0.9-0.7-0.9c-0.6,0-0.5,0.4-0.6,0.8
		c-1.1,5.5-2.1,11.1-3.3,16.6c-1.2,5.7-2.5,11.3-3.7,17c-1.2,5.7-2.2,11.5-3.3,17.2c-1.1,5.6-2.4,11.2-3.6,16.9
		c-0.8,3.7-1.6,7.5-2.1,11.3c-0.3,1.7-0.8,2.3-2.5,2.3c-10.1-0.1-20.2,0-30.2,0c-1.3,0-2.1,0.3-1.6-1.9c1.5-5.6,2.3-11.4,3.5-17.1
		c1.2-5.8,2.5-11.6,3.7-17.4c1.2-5.7,2.2-11.5,3.3-17.2c1.3-6.3,2.7-12.6,4-19c0.9-4.4,1.7-8.8,2.6-13.2c1-5.1,2.1-10.1,3.2-15.2
		c0.3-1.2,0-3,1-3.5c1-0.5,2.5-0.1,3.8-0.1c17.8,0,35.7,0,53.5,0c1.4,0,2,0.2,1.9,1.8c-0.2,5.9,0.3,11.8,0.5,17.7
		c0.1,3.9-0.1,7.9,0.3,11.8c0.5,4.1-0.1,8.3,0.4,12.4c0.5,4,0.2,8,0.3,12c0,0.6,0,1.3,0.5,1.4c0.6,0.2,0.7-0.6,0.9-1
		c2.4-5.5,4.9-11,7.3-16.6c2-4.6,3.9-9.2,5.9-13.9c2.8-6.7,5.6-13.3,8.5-20c0.5-1,1.1-2,1.4-3.1c0.6-1.9,1.7-2.6,3.8-2.6
		c18.2,0.1,36.4,0.1,54.5,0c1.8,0,2.2,0.2,1.7,2.2c-1.1,4.3-1.8,8.7-2.7,13.1c-1,5-2,10-3,15c-1,5-2.1,10-3.2,15
		c-1.1,5.3-2.2,10.5-3.2,15.8c-1,5-1.9,10-2.9,15.1c-1.2,5.8-2.4,11.6-3.6,17.5c-0.6,3-1.2,6-1.7,9c-0.2,1.3-0.5,2-2.2,2
		c-10.8-0.1-21.7-0.1-32.5,0c-1.7,0-1.8-0.7-1.5-1.9c1.2-5.9,2.3-11.8,3.7-17.7c1.6-7,2.7-14.1,4.4-21.1c1.2-5,2-10,3-15
		c1-5.1,2.2-10.2,3.2-15.4C331.7,174.4,332.4,170.8,333.1,167z"/>
	<path fill="#A14944" stroke="#000000" stroke-miterlimit="10" d="M755.2,144.4c-14.7,0-29.4,0-44,0c-1.1,0-1.7,0.4-2.2,1.3
		c-3.2,5.1-6.4,10.2-9.7,15.2c-6.2,9.7-12.5,19.3-18.7,28.9c-3,4.6-6,9.1-9,13.6c-0.2,0.3-0.2,0.9-0.7,0.6c-0.2-0.1-0.2-0.6-0.1-0.9
		c1.1-3.9,1.7-7.8,2.4-11.8c1.5-7.7,3.3-15.4,4.9-23.1c1.4-6.9,2.7-13.8,4.1-20.8c0.6-3,0.6-3-2.5-3c-11.8,0-23.6,0-35.4,0
		c-0.8,0-1.8-0.3-2,1c-0.4,2-0.9,4-1.2,6.1c-1.1,7.2-2.9,14.2-4.2,21.4c-1.4,7.8-3.3,15.4-4.9,23.1c-1.6,8.1-3.2,16.1-4.9,24.1
		c-2,9.2-3.5,18.5-5.5,27.6c-0.3,1.6,0.2,1.2,1,1.2c14.9,0,29.8,0,44.6,0c0.7,0,1.3,0.1,1.8-0.8c2.7-4.5,5.6-8.9,8.5-13.2
		c6.5-9.8,13-19.6,19.5-29.5c3.3-5,6.5-10,9.8-15c-0.1,4.3-1.2,8.4-2,12.5c-1.4,7.7-3.4,15.4-4.9,23.1c-1.4,7.3-2.9,14.6-4.5,21.9
		c-0.2,0.8,0,1.1,0.9,1.1c1.6-0.1,3.2,0,4.7,0c11,0,22.1,0,33.1,0c0.7,0,1.4,0.4,1.6-1c0.9-4.9,1.9-9.8,2.8-14.7
		c1.5-7.7,3.3-15.4,4.9-23.1c1.4-7.1,2.5-14.3,4.2-21.4c1.8-7.7,3-15.5,4.9-23.1c1.5-6.5,2.4-13.1,3.8-19.7
		C756.8,144.4,756.5,144.4,755.2,144.4z"/>
	<path fill="#A14944" stroke="#000000" stroke-miterlimit="10" d="M578.4,144.4c17.8,0,35.5,0,53.3,0c1.1,0,2.1-0.5,1.6,1.7
		c-1.8,8.7-3.5,17.5-5.5,26.2c-0.1,0.3,0.1,0.7,0,1c-0.2,1.2-0.6,2-2.2,1.9c-10.4-0.1-20.8-0.1-31.3-0.1c-2.6,0-2.5,0-3.2,3.4
		c-1.6,8.8-3.4,17.5-5.3,26.2c-1.8,7.8-3,15.8-4.6,23.7c-1.3,6.5-2.8,12.9-4,19.3c-0.3,1.4-1,1-1.7,1c-10.2,0-20.4,0-30.7,0
		c-2.3,0-4.7,0-7,0c-1.1,0-1.2-0.2-1-1.2c1.1-5,2.1-10.1,3.1-15.2c1-5,2.1-10,3.2-15c0.9-4.4,1.7-8.9,2.6-13.3c1-5,2.1-10,3.1-15
		c0.9-4.3,1.8-8.6,2.6-12.9c0.3-1.3-0.7-1-1.4-1c-10.6,0-21.1,0-31.7,0c-1.9,0-2.1-0.4-1.7-2.2c1.1-4.3,1.8-8.7,2.6-13.1
		c0.9-4.9,2.2-9.7,2.9-14.7c0.1-1,1-0.9,1.8-0.9c5,0,10,0,15,0C552.3,144.4,565.4,144.4,578.4,144.4z"/>
	<path fill="#A14944" stroke="#000000" stroke-miterlimit="10" d="M514,180.7c-0.4-2.7-0.6-5.5-1.5-8.1c-2.8-8.4-8.8-13.7-17-16.7
		c-5.7-2.1-11.7-2.7-17.8-2.9c-2.7-0.1-5.5,0-8.2,0c0.9-4.7,1.8-9.4,2.7-14.1c0.1-0.6,1.2-1.6-0.7-1.6c-12.7,0.1-25.4,0-38.1,0
		c-0.9,0-1,0.2-1.2,1.1c-0.9,4.6-1.9,9.1-2.8,13.7c-0.2,0.8-0.4,0.9-1.1,0.9c-3.9,0.1-7.8,0-11.8,0.3c-4.7,0.4-9.4,1.2-13.7,2.7
		c-9.9,3.5-18.5,9-24.8,17.6c-7.8,10.6-11.5,22.4-9.5,35.5c1.5,9.8,7.1,16.6,15.9,20.8c5.8,2.8,12.1,3.9,18.5,4.1
		c2.8,0.1,5.6,0.1,8.4,0c1.3-0.1,1.3,0.6,1.1,1.4c-0.4,1.8-0.8,3.7-1.2,5.5c-0.7,3.3-1.3,6.6-2,10c13,0,25.8,0,38.7,0.1
		c1.3,0,1.8-0.6,2-1.5c0.9-4.5,1.8-9,2.5-13.6c0.2-1.4,0.7-1.8,2.1-1.9c4.4-0.1,8.8,0.2,13.2-0.3c5.2-0.6,10.2-1.5,15.1-3.4
		c5.9-2.2,11.2-5.4,15.8-9.7c5.4-5,9.3-10.9,12-17.7c1.7-4.2,2.8-8.6,3.1-13.1C514,186.9,514.4,183.9,514,180.7z M425.8,178.6
		c-2.1,9.9-3.9,19.8-5.8,29.7c-0.3,1.4-0.8,2.7-2.5,2c-6.1,0.1-10.3-4.1-11.1-9.7c-1.1-7.1,1.5-13.1,6.1-18.3
		c3.1-3.5,7.3-5.2,12-5.3C425.7,176.9,426.2,176.9,425.8,178.6z M476,189.3c-1,8.2-3.7,15.4-11.6,19.6c-2.2,1.1-4.6,1.4-7,1.5
		c-1.4,0-1.3-0.8-1.1-1.5c1.2-5.6,2.5-11.2,3.6-16.8c0.8-4.3,1.9-8.5,2.5-12.8c0.3-2.4,1.4-2.4,3.1-2.3c4.9,0.2,8.8,3.3,10,8
		C475.8,186.3,476.3,187.8,476,189.3z"/>
</g>
<text transform="matrix(1 0 0 1 583.4877 360.1384)" fill="#A14944" stroke="#000000" stroke-miterlimit="10" font-family="'MyriadPro-BoldIt'" font-size="44">python</text>
<path fill="#FFFFFF" stroke="#000000" stroke-miterlimit="10" d="M23.3,298.6c11.6,4.5,28,14,40.4,8.5l-6.6-7.6
	c0,0-5.3,3.7-11.3,4.3C39.2,304.4,23.3,298.6,23.3,298.6L23.3,298.6z"/>
<g>
	<defs>
		<path id="SVGID_1_" d="M21.5,297.9c14,4.9,36.3,19.6,49.4,3.5c5.7-7,7.4-16.4,8.9-25.3c5.3-30.5,12.1-76.7,19.3-112.7
			c6-30.2,6.8-54,18.2-54c13.5,0,19.4,80.5,20.9,91.2c4.3,29.9,7.9,59.9,10.8,89.9c2.2,23.4-0.1,54.3,24.8,66.7
			c11,5.5,26.1,3.4,33.1-6.8c5.1-7.5,5.4-18.2,12.3-24.1c5.4-4.6,13.2-4.9,20.4-4.9c87.1,0,174.3,0.3,261.3-1c49-0.7,147-5.6,196-4
			c17.8,0.6,33.3,2.9,51,5c6.5,0.8,19.5,5.9,26,5c8.2-1.2,45.6-7,50-14c1.9-3,3.4-14.3,0.8-18c-3.9-5.5-16.8-8.2-24.8-11.3
			c-10.5-4.1-21-8.7-32.3-8.7c-7.3,0-12.9,6.2-20,7.7c-4.8,1-36.9,1.5-46.6,1.8c-18.7,0.6-37.3,0.9-56,1.2
			c-38.4,0.5-76.8,0.7-115.1,0.4c-1,0-2,0-3,0c-102.3-0.9-204.7-4.1-307-6.1c-8.4-0.2-18.5,0.6-22.5,8c-2.2,4.1-2.8,10.4-7.4,11.2
			c-5.3,0.9-7.1-6.7-7.3-12.1c-2-38.5-6.3-76.9-13-114.9c-3.3-19-7.3-37.9-11.8-56.6c-3.8-15.7-6.1-35.5-15-49.1
			c-6.2-9.4-16.2-17.1-27.5-17.6C78,46.7,71.7,103,69,129.3c-3.6,34.7-7.2,69.4-10.8,104.1C56.3,252.1,57,310.3,21.5,297.9z"/>
	</defs>
	<clipPath id="SVGID_2_">
		<use xlink:href="#SVGID_1_"  overflow="visible"/>
	</clipPath>
	<use xlink:href="#SVGID_1_"  overflow="visible" fill="none" stroke="#000000" stroke-miterlimit="10"/>
</g>
<circle fill="#FFFFFF" stroke="#000000" stroke-miterlimit="10" cx="790.8" cy="291.7" r="5.3"/>
<ellipse transform="matrix(0.7381 -0.6747 0.6747 0.7381 13.5124 631.8066)" fill="none" stroke="#000000" stroke-miterlimit="10" cx="820.5" cy="298.5" rx="0.8" ry="1.9"/>
<path fill="#A14944" stroke="#000000" stroke-miterlimit="10" d="M785.5,293.1c0,0,1.7-3.3,4-4.2c3-1,5.9,0,5.9,0s-2.4-3.4-6.2-2.3
	C785.5,287.6,785.5,293.1,785.5,293.1z"/>
</svg>
