<?xml version="1.0" encoding="utf-8"?>
<!-- Generator: Adobe Illustrator 17.1.0, SVG Export Plug-In . SVG Version: 6.00 Build 0)  -->
<!DOCTYPE svg PUBLIC "-//W3C//DTD SVG 1.1//EN" "http://www.w3.org/Graphics/SVG/1.1/DTD/svg11.dtd">
<svg version="1.1" id="Layer_1" xmlns="http://www.w3.org/2000/svg" xmlns:xlink="http://www.w3.org/1999/xlink" x="0px" y="0px"
	 viewBox="0 0 1084 458" enable-background="new 0 0 1084 458" xml:space="preserve">
<g>
	<path fill="#0F1011" d="M895.6,347.9c-2.5-0.2-4.9-0.4-7.4-0.7c-5.9-0.8-11.1-2.6-13.5-8.7c-2.7-1.4-3-4-3.6-6.7
		c-1.4-6.9,0.5-14.2-2.3-20.9c-0.8-1.9-1.3-3.9-3.4-1c-2.4,3.3-4,7.1-7.3,9.8c-0.9,0.9-1.8,1.9-3.2,2.1c-4.1,0-7.6-1.6-9.7-5
		c-2.9-4.8-7.9-6.3-12.5-7.1c-7.9-1.5-16-0.9-24,0.1c-1.9,0.2-3.9,0.5-5.9,1c-6.8,0.5-13.3,3.3-20.2,2.6c-3.4-0.2-7-1.4-10.2,0.9
		c-4.8,0.3-9.6,0-14.4,0.1c-3.3,0.1-6.5-1.2-9.8,0.2c-4.8-0.6-9.7,0.9-14.5-0.5c-6,0.3-12.1,0.6-18.1,0.9c-2.6,0.7-5.3,0.6-7.9,0.1
		c-5.1-0.6-10,0.5-15,0.9c-8.7,1.3-17.3,0.6-26,0c-5,1-10.2-1.4-15.2,0.8c-5.6,1.1-11.1,1.9-16.8,1.3c-1.1-0.2-2.1,0.3-3,0.8
		c-3.9,1.5-7.7,3.7-12,1.2c-3,1-6.4,0.1-9.3,1.7c-4.2,1.3-8.3,2.4-12.7,1.3c-8.6,1.8-17.3,2.1-26,1.9c-4,0.6-8,0.5-12,0
		c-0.7,0-1.4,0-2,0c-11.3,0.5-22.6,0.5-34,0c-0.7,0-1.4,0-2,0c-4.7,0.5-9.3,0.5-14,0c-3.2-1.2-6.5-1.7-9.9-1.2
		c-2.1-0.9-4.2-0.4-6.2-0.1c-4-0.2-8-0.9-12.1-1.1c-2.5-0.5-4.9-0.2-7.4-0.3c-0.8,0-1.7,0-2.5,0c-2.3-0.2-4.4,0.2-6.6,0.9
		c-18.2,0.3-36.1,3.8-54,6.5c-3.1,0.5-6.2,0.5-9.3-0.7c-2.7-0.3-5.4,0.3-8.1,0.8c-1.3,1.2-2.6,1-3.9,0c-5-1.5-10.1-0.7-15.1-0.8
		c-6.4,1.7-12.4-0.9-18.4-2.2c-6.6-1.4-13.5-1-19.9-3.4c-2.9-0.4-5.8,0.6-8.7-0.5c-0.3,0-0.7,0-1,0c-1.3,0.6-2.6,0.6-3.9,0.1
		c-1.6,0.8-3.7,0.1-5.1,1.7c-1.1,1.2-2.6,1.8-4.2,1.9c-3.3,1.1-5.8,3.2-7.6,6.2c-1.6,4.8-4.4,8.9-7.3,12.9
		c-3.8,7-8.6,13.2-14.2,18.9c-5,6.5-12.1,9.2-19.6,11.1c-6.7,1.4-13.4,2.5-20.4,1.6c-11.6-1.5-20.7-7.4-28.5-15.6
		c-2.3-1.1-3.9-2.9-5.1-5.2c-2-2.7-4-5.3-6-8c-5.9-7.3-9.5-15.6-10.2-25c-0.2-2.3-1.2-4.4-1.6-6.7c-0.3-2-1.1-4.2,0.5-6.2
		c-0.3-1-0.5-2-0.8-3c-1-4.6-1.2-9.4-1.9-14c0.1-3-0.7-6,0.7-8.9c-1.1-16.1-1.9-32.2-1.9-48.3c0-1.3-0.5-2.6-0.8-3.9
		c-1-0.6-1.3-1.6-1.2-2.6c0.3-11.5-2.1-23-1.5-34.5c-0.6-2.2-2-4.2-1.3-7.2c-0.5,1.9-0.4,3.4-1.2,4.6c-0.3,0.4-0.7,0.6-1.2,0.7
		c-1.8,3.2-2.2,6.8-3.4,10.2c0.1,4.6-0.3,9.2-2.5,13.4c-1.6,3-2,6.5-3.8,9.5c-1.3,1-0.8,2.8-1.5,4c-0.1,5.7-1.7,10.9-4.7,15.8
		c-1.2,0.8-0.7,2.1-1.1,3.2c1,2.2-0.1,3.7-1.5,5.1c-0.1,0.3-0.3,0.6-0.4,0.9c0.4,3.7,0.2,7.3-3,9.9c-2.1,7.6-7.7,12.7-12.7,18.2
		c-1.5,4.9-5.8,6-10,7.2c-10.3,7-21.9,8.9-34.1,8c-7.2,0.7-13.6-2-19.9-5c-1.9-0.9-3.7-2-5.7-2.9c-2.7-1.2-4.6-3.3-4.4-6.5
		c0.2-3.4,2.6-4.8,5.4-5.7c2.5-0.8,5.2-1.1,7.8-1.1c12.6,0.1,21.6-5.9,28.1-16.3c0.6-1,0.9-2.1,2.2-2.5c6.4-10.9,8.2-23.2,10.5-35.3
		c1.4-7.6,2.6-15.2,3.9-22.9c-0.5-3.7-0.6-7.3,0.1-11c1-7.4,1.9-14.7,2.9-22.1c-0.7-3.4,0.2-6.5,1.3-9.7c0.9-0.6,0.9-1.4,0.7-2.3
		c-2.1-3.5,0.2-6.8,0.8-10c2.4-12.9,6.8-25.4,9.8-38.2c0.7-7.8,3.5-15.1,4.8-22.7c0.8-4.3,1.9-8.7,2.6-13c0.3-1.7,0.6-3.6,2.3-4.8
		c0.5-1.1,1-2.2,1.5-3.3c-0.4-1.6,0.1-2.8,1.4-3.8c1.1-0.8,1.4-2,1.8-3.2c0.3-4,3.1-6.1,6.2-7.9l0,0c2.9-3.5,6.8-4.9,11.1-5.6
		c8.4-1.4,16.6-1.1,23.6,4.7c0.4,0.9,1.2,1,2,1c3.2,1.1,6,2.6,7.2,6.1c1,1.2,2.1,2.5,3.1,3.7c5.6,4.8,8.8,10.9,9.4,18.3
		c-2,2.1-4,1.9-6-0.2c-4.3-4.5-10.2-4.4-15.6-5c-2.7-0.3-4.8,1.6-4,4.8c0.7,2.9,0.4,5.6-0.4,8.3c-0.9,3,0.3,5.9,0.6,8.8
		c0.8,7.6-2.7,11.4-9.5,10.7c-2.2-4.1,0.8-7.7,1.1-11.6c1.4-6.3,3.1-12.6,2.9-19.2c-0.2-4.4,2.7-6.1,6.7-6.6c3.3-0.4,6.7,0,9.9-0.8
		c2.7-0.7,3.2-1.9,1.6-4.2c-3.3-4.8-7.3-8.2-13.6-7.7c-2.6,0.2-5.3,0-8,0c-4,0-8-0.3-11.4-3c-2.2-1.7-4.1-0.6-5.8,0.9
		c-1.7,1.5-1.1,2.9,0.4,4.1c1,0.8,1.8,1.7,2.6,2.7c0.5,0.9,1,1.7,1.5,2.7c2.7,5.9,0.8,10.9-2.8,15.6c-0.1,0.5-0.3,1-0.6,1.4
		c-1.4,3.5-2.5,7.1-4.4,10.4c-1.2,2.1-2.1,4.5-2,7c0.5,8-1.9,14.9-7.6,20.7c-0.7,0.8-1.6,1.3-2.5,1.8c-1.7,0.6-3.1,1.7-4.8,2.3
		c-5.9,3.6-7,12.4-2,16.9c1.5,1.4,2.7,3,2.9,5.1c0.5,5.1,0.6,10.3-0.9,15.3c-0.9,3-2.4,5.5-6,5.8c-2,0.3-4.2-0.5-6,0.9
		c-1.8,3.6-1.8,7.6-2.3,11.4c-0.5,2.4,0.2,4.1,2.4,5.4c2.9,1.8,4,4.6,3.8,8c-0.1,1.5-0.2,3,0.3,4.4c2.3,8,2.5,15.8-2.4,23.1
		c-1.4,2.9-3.2,5.7-4.3,8.8c-1.8,2.9-1.3,7.3-5.6,8.6c-2.4,0.2-2.7,2.1-3.1,3.9c-1.3,5.5-2.7,11-4.7,16.3c-1.2,3.1-1.1,6.2-0.1,9.3
		c2.8,9.6,1.1,15.1-6.8,21.4c-3.4,2.7-7.1,4.9-10.9,8.1c3.3,0.7,5.9,0.1,8.3-1.2c4.7-2.3,8.8-5.5,12.4-9.4c0.3-0.4,0.6-0.7,1-1
		c2.7-2.3,5-4.9,6.9-7.9c8.4-10.9,11.2-23.7,12.2-37c0.6-2.6,0.4-5.3,1.1-7.9c0.6-1.4,0.9-2.9,0.8-4.4c-0.7-6.6,1.4-12.8,3.1-19
		c3.1-13,9.1-24.7,15-36.6c2.2-4,4.3-8,6.1-12.2c0.4-1.5,1.5-2.5,2.2-3.9c1.3-2.9,3.7-4.3,6.6-5.1c6.1-0.2,8.8,1.5,11.1,6.9
		c1.4,3.3,2.3,6.9,3.5,10.3c4.1,16.3,3.6,33.1,5.5,49.7c0.3,12.6,2.8,25,4.4,37.5c0.9,7.2,2.5,14.4,3.1,21.6
		c0.8,9.4,5.3,17.7,7,26.8c0.9,4.7,1.6,9.5,3.7,13.9c0.7,1.3,1.3,2.7,2.3,3.8c4,6.2,8.3,12.2,15.1,15.7c10.7,2.1,21.2,2.9,30.5-4.3
		c4.1-4.1,9.4-7,12.4-12.2c1.4-1.4,3-2.8,4.8-3.6c15-6.3,29.7-13.3,46.7-12.8c23.3,0.7,46.6-0.5,69.9,1c13,0.8,25.9-1.1,38.7-3.1
		c1.8-0.3,3.7-0.2,5.4-0.6c10.9-1.9,21.9-3.7,32.9-4.6c12.2-1,24.1,1.7,35.9,4.2c12.6,2.7,24.9,3.6,37.3,0c1-0.3,1.9-0.4,2.9-0.4
		c1.7,0,3.5,0,5.2,0c1.2,0,2.3,0,3.5-0.2c2.9-1,5.9-0.8,8.9-0.8c14,0.2,27.8-1.8,41.7-2.8c9.3-0.7,18.5-1.6,27.8-2.2
		c0.8-0.1,1.8,0.2,2.5-0.1c7.3-3.1,15.1-3.7,22.8-4.9c21.7-1.4,43.4-2.8,65,0.9c1.1,0.2,2.3,0.5,3.4,0.5c11.5-0.1,22.9,0.2,34.3,1
		c6.7,0.5,13.3-0.5,19.7-2.4c5.7-1.8,11.8-1.9,17.5-3.5c5.1-3.1,10.7-4.1,16.4-4.5c8.5-0.6,17.1-0.2,25.4-2.8
		c1.3-0.2,2.6-0.5,3.8-1.1c5.8-1.6,11.1-4.4,16-7.9c3.6-2.6,7.2-4.7,11.4-6c4-1,7.2-3.9,11.5-4.5c8.8-1.1,15.9,1.7,22.3,7.4
		c1.5,1.3,2.8,3.3,4.8,0.8c2-2.5-0.5-3.7-1.8-4.8c-8.8-6.7-18.8-7.8-29.3-6.1c-1.2,0.2-2.2,0.8-2.8,1.9c-1.7,3.4-4.9,4.8-8.2,6
		c-4,1.6-7.7,3.6-11.2,6.1c-6.1,4.2-13.7,4.5-20.5,6.8c-3,0.5-5.4-0.5-7.5-2.7c-3.1-3.4-6.4-3.6-10-1.1c-6.4,4.5-10.2,4.4-16.4-0.4
		c-4.3-3.3-8.9-2.8-13.5-0.6c-1.5,1-3,2-5,2c-6.8-0.2-13.7,0.8-20.4-0.1c-4.2-0.6-7.8,0.3-11.5,1.8c-4.4,1.3-8.8,2.2-13.2,0.2
		c-0.8-0.3-1.4-0.7-2-1.3c-1.1-2.2-2.7-4-4.5-5.7c-4.6-2.5-11.4-2.2-14.8,0.6c-8.6,7-10.1,7.1-18.8,0.4c-0.9-0.7-1.9-1.3-2.9-1.9
		c-1.1-0.8-2.4-0.8-3.7-1c-3.6-0.4-6,0.3-6,4.6c0,1.6-0.9,3.1-1.8,4.5c-1.3,1.5-3,2.5-5,2.8c-14.8,0.4-29.4,2.2-43.4,7
		c-1.1,0.3-2.3,0.4-3.5,0.4c-6.7,1.3-13.4,0.4-20.1,0.7c-0.8,0-1.6,0.1-2.4,0c-2-0.6-4.1-0.9-6.3-1.2c-5.7-0.6-9.4-4.7-9.6-10.5
		c-0.1-2.6-1.3-3.4-3.7-3.4c-2.6,0-5.3,0.6-8.4,0c1.5,2.1,2.2,4.2,1.7,6.5c-4.5,8.6-13.8,12.9-22.4,10.5c-2.3-1.2-4.2-3.1-6.6-4.2
		c-0.4-0.2-0.8-0.5-1.2-0.8c-1.7-1.5-4.3-1.5-5.8-3.3c-1.1-1.2-1.6-2.6-1.5-4.1c0.3-3.6-1.7-4.1-4.6-4c-3.4,0.1-3.5,2-3.5,4.7
		c0,8.3-2.8,11.1-11,11.3c-3.2,0.1-6.4,0.5-9.5-0.4c-22.6-6.5-45.8-5.4-68.8-5.6c-3.1,0-6.4,0.1-8.6-2.9c-0.9-1.6-0.5-3.1-0.1-4.7
		c0.1-0.5,0.1-1,0.1-1.4c0.1-2.1-1.3-2.4-2.9-2.4c-3-0.1-6-0.2-8.8,0.9c-6.4-0.7-6.5,4.7-8.3,8.5c-5.3,4.7-11.6,2.6-17.5,2.1
		c-3.1-0.3-6.4-1.6-9.2-3.5c-0.5-0.2-0.9-0.6-1.3-1c-0.4-0.5-0.7-1.1-0.8-1.8c-1.1-6-3.9-7.7-9.8-6.2c-1.7,0.4-2.1,1.7-2.8,3
		c-2,3.7-3.1,8-6.3,11c-0.4,0.3-0.9,0.6-1.3,0.8c-3.5,1.8-7.3,1.6-11,1.3c-6.2-0.4-12.3,0.7-18.3,2c-5.6,1.2-11.2,1.6-16.8,1.8
		c-1.6-0.1-3.2,0-4.7,0c-4,0-8,0-12,0c-2.5,0-4.7-0.7-5.9-3c-1.2-2.5,0.1-4.5,1.5-6.4c1.5-2,3.5-3.5,5.5-5c2.1-1.6,2-3.1,0.2-4.9
		c-4-4.1-11-2.8-13.2,2.5c-0.8,2-1,4.2-1.7,6.3c-3.5,5.1-7.8,6.6-13.2,4.3c-3.6-1.6-7.6-2.7-10.1-6.1c-1.4-1.8-2.8-1.4-4.3-0.2
		c-1,0.8-1.7,1.8-2,3c-0.1,1.6-0.8,3-1.2,4.5c-0.6,1.5-1.5,2.9-2.4,4.2c-3.3,3.5-7.2,6.4-10.6,9.8c-2,1.9-3.5,4-4.1,6.6
		c-1.3,3.4-2.3,6.9-3.6,10.3c-1.2,2.9-2.8,5.4-6.3,5.4c-3.4,0-5.5-2.2-6.6-5.1c-2.4-5.8-4.9-11.6-6.7-17.6c-0.4-3-1.5-5.8-3.7-8
		c-0.8-0.9-1.6-1.8-2.3-2.8c-0.6-1.4-1.7-2.4-2.6-3.6c-2.9-4.1-3.3-8.2-0.6-12.6c0.2-0.5,0.4-0.9,0.7-1.4c3.5-5.9,7.7-11,15.4-11.1
		c0.5,0,1.2,0.1,1.4-0.3c2.1-3.1,1.2-6.4,0.4-9.5c-0.6-2.5-2.7-3.4-5.6-2.6c-9.8,2.8-14.5-0.9-14.5-11.2c0-3.4-0.7-7,1.5-10.2
		c3.5-3.5,7.9-2.3,12.1-2c1.6,0.2,3.7,1.5,4.3-1.4c0.7-5.7-4.5-6.2-7.5-8.5c-1-0.8-2.5-0.9-3.7-1.2c-7.6-1.7-8.3-2.5-8.7-10
		c-0.4-1.9-0.4-4.1-1.4-5.7c-7.3-11.4-5.4-24.1-5.3-36.5c1.1-3.5,3.9-3.7,6.8-3.1c3.1,0.5,6,1.9,8.9,2.8c2.4,1,2.1-0.7,2.1-2.1
		c0-1.2-0.1-2.3-0.1-3.5c-0.3-4.8-3-6.8-7.6-6.9c-5.3-0.2-9-2.9-11.1-7.7c-0.3-0.8-0.4-1.6-0.5-2.4c-0.5-7.6,1.4-9.8,9.1-10.2
		c5.2-0.3,7.2-3.4,5.4-8.2c-0.9-2.4-3.8-1.9-4.9-3.9c1.9-3.2,2.5-7,4.8-9.9c1.1-1.4,1.9-3.7,4.5-3c2.6,5.9,1.9,11.9,1,17.9
		c0,3.5-0.7,7,0.7,10.3c1,1.8,1.2,3.7,0.3,5.7c-0.4,1.5,0.2,2.8,0.9,4.1c0.7,1.6,1.2,3.3,0.1,5c0.7,4.8,1.1,9.6,2.7,14.2
		c1.2,1.2,1.2,2.4,0.3,3.7c1.1,4.3,1,8.9,2.8,13c3.8,9.7,4.7,19.8,4.8,30c0.1,6.4,1.1,12.7,1.9,19c0.8,5.8,2.7,11.9,0.4,17.9
		c0.3,5.3,0.7,10.7,1,16c1.2,1.4,2.1,2.9,1.9,4.9c-0.4,6.1,2.1,11.6,3.7,17.2c1.1,3.8,3.5,4.4,6.7,1.7c2.4-2,4.6-4.3,7.1-6.2
		c1.7-1.3,3.4-2,5.5-1.9c3.4-1.6,6.7-3.2,10.1-4.8c0.2-0.4,0.4-1.1,0.8-1.2c7.1-1.2,13.5-6,21.1-4c0.8,0.2,1.6,0.1,2.2-0.6
		c2.6-0.9,5.2-1.8,7.8-0.4c1.4,0.2,2.8,0,4-0.7c9.3-1.4,18.5-1.6,27.8,0.1c2.3,1,4.8,0.9,7.2,0.7c10.5-1.9,21.1-0.2,31.6-0.2
		c6.6,0.1,13.1,1.7,19.7,2.1c4.4,1.9,9.2-0.2,13.6,1.3l0.3,0.2l0.3-0.2c2.4,0.9,5-0.1,7.4,0.7c0.7,0,1.3,0,2,0
		c4.1-1,8.4,0.3,12.5-0.8c1.8-0.1,3.7-0.2,5.5-0.2c2.1-0.5,4.3-0.5,6.4-0.7c5.7-1,11.2,0.7,16.8,1.1c13,1,25.8,1,38.7-0.1
		c8.7-0.7,17.6-0.6,26.4-0.1c3.2,0.2,6.5-2.4,9.6,0.1c3.2,1.5,6.5,0.7,9.8,0.7c9.4,0.1,18.8,0,28.3,0c3.9-1.4,7.8-0.5,11.8-0.3
		c9.2,0.4,18.4-1.2,27.7-0.5c15.4-1.2,30.9-1.8,46.1-4.9c10.1,0.1,20.2,0.7,30.3,0.3c5.4-0.2,10.8-1.3,16.2,0.4c5.7,0,11.3,0,17,0
		c5.2-1.1,10.6,0.7,15.8-1.1c8.7-0.7,17.2,0.7,25.8,1.5c7.1,0.7,14.3,0,21.4,0.4c2,0.3,3.9,1.2,6,0.7c1.5-0.1,2.8,0.5,3.9,1.6
		c3.7,0.5,7.3,1.3,11,0.9c3.7-1.4,7.3-1.6,11,0.1c6.5,1.3,12.8,0.7,19.2-0.8c4.1-2,8.4-3.1,13-2.7c4.7-1.3,9.1-3.3,12.8-6.5
		c0.3-1.9,1.8-3,3.3-3.3c8.4-1.9,16.9-4.1,25.7-3.2c0.7,0.1,1.3,0.1,1.7,0.7c4.4,1.7,9.3,1.9,13.6,4.3c3.2,1.8,6.7,3.7,8.2,7
		c1.8,3.9,3.8,3.7,6.8,1.9c5.1-3.9,11-3.2,16.4-1.7c3.6,1,5.2,4.7,5.7,8.5c0.4,0.6,0.7,1.3,0.7,2.1c-0.1,1.6-1,3.4,0.6,4.8
		c1.8,2.3,4.6,1.1,6.8,1.9c1.7,0.7,3.5,0.6,5.2,0.6c10.4-0.4,20.8,0.5,31.2-0.8c8.1-1.1,13.4,2.9,13.1,9c-0.1,2.8,0,5.7-0.9,8.3
		c-1,2.9-0.6,5.1,1.7,7.1c5.5,3.9,5.5,7.8,0.5,12.4c-2.1,1.9-4.8,3-6.3,5.5c-1.6,4.1-2.1,8.9-7.1,10.8c-0.4,0.3-0.7,0.6-1.1,1
		c-0.5,1.3-1.4,1.8-2.8,1.6c-2,0.9-4.1,1.8-6.1,2.7c-2.9,2-5.9,3.2-9.5,3.7c-7.8,1.1-15.3,3.6-22.9,5.7c-3.1,0.8-6.3,2.1-9.6,0.9
		c-2.5,0-4.8,0.8-7.1,1.7c-4.9,1.2-9.9,0.9-14.9,0.2c-1.3,0-2.7-0.1-4-0.1C910.2,348.6,902.9,348.5,895.6,347.9z"/>
	<path fill="#70837F" d="M863.4,134.6c0.1,0.4,0.3,0.8,0.4,1.2c1.4,2.1,1.1,3.8-1.2,5.1C862.7,138.7,862.2,136.6,863.4,134.6z"/>
	<path fill="#A14944" d="M399.7,275.7c0.3,0,0.6,0,0.8,0.2c7,6.5,15.3,6.2,23.8,4.3c1.2-0.3,1.7-1.5,2.2-2.5c0-0.6,0-1.3,0.2-1.9
		c1.3-7.2,1.3-7.2,8.8-7.1c3.3-1.1,6.8,0,10.2-0.4c2.8-0.4,2.5,1.8,2.9,3.5c0,0.3,0,0.7-0.1,1c-1.1,1.2-2.6,2.3-0.7,4
		c1.9,2,4.3,2.2,6.9,2.1c16.3-0.7,32.5,0.6,48.8,1c6.7,0.2,12.9,3.1,19.4,4.3c5.1,1,10.3,0.7,15.4,0.5c3.8-0.1,5.7-3.9,5-9.2
		c-0.3-2.2-2-5.4,0.6-6.3c3.7-1.3,7.9-1,11.8,0c1.4,0.4,0.2,2-0.2,3c-0.9,2.5-1.4,4.8,1.1,6.7c0.8,2.5,3.3,2.1,5.1,2.8l0,0
		c1.4,2.3,3.7,3.2,6.1,4c8.9,1.8,16.8-1.5,21.7-9.2c1.9,1.2,1.4,3.2,1.5,4.9c0.1,1.6-0.6,3.4,1.5,4.3c0.6,0.3,1.5,0.4,1.8-0.2
		c0.7-1.6-0.6-2.8-1.2-4.1c-1.3-2.8-2.4-5.5-1-8.6c1-2.2,2.6-3.4,5.1-3c2.1,0.3,3.1,1.8,3.5,3.7c1.5,7,3.6,9.1,10.6,10
		c1.8,0.2,3.6,0.6,5.4,0.2c0.7,0,1.3,0,2,0c1.4,1.6,3.1,1.5,5,1.2c2.9-0.3,5.9-0.7,8.8,0.5c3.1,1.2,4.6-2,7.1-2.5
		c1-0.1,1.9-0.2,2.9-0.3c10.6-2,21.3-3.4,32-5.3c4-0.7,8.3,0.2,12.1-1.7c1.3-0.7,2.6-1.4,3.8-2c3.7-3.3,6.9-1.5,10.2,1
		c0.1-0.7-0.5-1.2-0.9-1.7c-0.5-0.7-1.4-0.8-2.1-1.3c-1.8-1.3-3.5-2.9-2.6-5.3c0.9-2.2,3.1-2.2,5.1-1.9c1.1,0.2,2.3,0,3.4,0.4
		c1.1,0.7,2.4,1.2,3.4,2c8,6.5,9.9,6.4,16.8-0.8c2.5-2.6,13.5-3.3,16.2-1c0.5,0.4,0.6,1.2,0.9,1.7c-0.2,2.8,2.7,3.3,3.8,5.1
		c0.3,0.3,0.6,0.6,0.9,0.9c2.8,3.4,6.4,1.4,9.7,1.3c1.4-0.1,2.9-0.7,4.3-1.1c10.1-2.2,20.2,0.3,30.3-0.5c2.8-0.2,4.7-0.8,5.7-3.5
		c3.5-3.3,12.7-2.9,15.5,0.8c3.3,4.2,9.9,4.4,13.3,0.5c3.2-3.6,10.3-3.2,12.5,1c1.5,2.8,3.9,2.6,6.4,2.5c3.1-0.1,7.1-2.4,8.2,3
		c-1,0.4-1.9,0.8-2.9,1.1c-6.2,1-12.4,1-18.6,0.8c-7.2-0.2-14.1,1.7-21.1,3.1c-1.2,0.2-1.9,1.8-2.4,3c-0.7,0.7-1.4,1.8-2.2,1.9
		c-13.5,0.9-26.3,6.6-40.3,5.3c-17.7-1.7-35.5-1.4-53.1-3.6c-11-1.4-22.2-0.5-33.3,0.6c-4,0.4-8,0-12,0c-6.7-0.4-13,0.4-19.4,2.8
		c-6.2,2.3-13.2,0.9-19.7,2c-9.5,1.7-19.1,2.8-28.6,2.8c-9.4,0-18.7,2.9-28.2,1c-2.2-0.4-4.6,0.2-6.9,0.7
		c-7.3-0.8-14.2,1.2-21.2,2.9c-9.2,2.3-18,0.1-26.9-2.2c-9.8-2.5-19.9-2.8-29.9-3.7c-10.7-0.9-21,1.8-31.5,2.5
		c-2.6,0.2-6.4,0-8.6,2.9c-20.8,4.2-41.8,4.4-62.9,3.4c-15.4-0.7-31,0.2-46.4-0.4c-20.7-0.8-39,6.2-56.5,16.3
		c-3.8,3.6-8.4,6.3-11,11.1c-2.3,4.8-7,5.1-11.2,5.9c-7.3,1.3-14.7,2.3-21.9-0.9c-2.6-2.5-4.3-5.8-7.2-8.1c-1.8-1.5-2.2-3.7-1.6-5.9
		c0.8-2.8-0.3-4.7-2.6-6.4c0.4,2.3,2,4.5-0.3,6.1c-1.9,1.4-2-1.8-3.5-1.7c-1.1-0.7-1.7-1.7-1.8-3c-2.1-9.4-3.9-18.9-6.5-28.3
		c-0.4-1.6-0.1-3,0.9-4.2c1.4-1.7,2.2-3.6,2.3-5.9c0-1.6,0.6-3,2.3-3.4c2.1-0.5,2.7,1.1,3.7,2.6c1.8,2.7,2.4,6.2,5.6,8
		c0.6,0.7,1.2,1.4,1.9,2c1.4,2.6,1.4,5.9,3.9,8c2.3,5.9,4.6,11.7,7,17.6c1,2.6,2.5,5,5.7,4.8c3-0.2,3.8-2.8,4.7-5.2
		c1.2-3.4,2.4-6.9,3.6-10.3c3.5-4,7.7-7.2,11.5-10.9c1.6-1.6,2.8-3.2,3.6-5.2c0.7-1.3,1.4-2.5,2.2-3.8c2.4-1.2,2.3-2.9,1.2-5
		c-0.2-1.5,0.3-2.6,1.8-3c5.8-1.1,9.9,2.5,9.6,8.7c2.6-1.9,5-2,7.8-0.9c3.8,1.5,9.9-1.8,10.4-5.1c0.4-2.3,0.6-4.6,1.2-6.9
		c1.1-4.4,4.5-6.1,10.6-6c4.6,0.1,6.5,3.6,8.6,6.7c1.1,1.7-0.9,2.2-1.9,2.8c-2.5,1.6-5,3.3-6.9,5.7c-1.1,1.4-2.7,2.8-1.7,4.9
		c0.9,2,2.8,2,4.7,2c3.8,0,7.6,0.1,11.5,0.2c-0.1,2.3-2,1.5-3.5,1.8c3.1-0.3,6,0,8.6-1.7c9.7-1.5,19.5-3,29.2-4.6
		c2.4-0.4,4.6-0.1,6.8,0.4c3.7,3.7,6.9,1.4,10-1c0.3-0.2,0.6-0.3,0.9-0.4c2.6,0.6,3.2-1.5,3.7-3.1c0.7-2.2,2.1-4.2,2.5-6.4
		c0.8-4,3-5,6.9-4.8c6.5,0.4,6.5,0.1,7.1,6.4C398.8,274.4,399,275.2,399.7,275.7z"/>
	<path fill="#A14944" d="M173.6,61.8c-0.4-0.7-0.8-1.3-1.1-2c0.8-2.2-0.4-2.1-1.9-1.9c-2.1-0.5-4.5-2.3-4.2-3.7
		c0.8-3.2,4.2-4.4,7-5.8c2-1,2.8,0,3.9,1.5c2,2.6,5.2,2.6,8.1,2.8c4,0.2,8,0,12,0.1c5.8,0,14.2,6.5,15.7,11.9c0.6,2.1-0.9,2.3-2,2.6
		c-3.8,1.3-7.8,1.5-11.8,1.5c-6.1,0-6.8,0.6-6.6,6.5c0.2,6.1-1,11.9-3.1,17.5c-3.7,6.5-2.4,13.4-1.2,20.1c0.4,2,3,2.3,4.8,3
		c0.4,0.2,0.8,0.5,1.1,0.8c1,2.1,2.6,3.4,5,3.4c3.1,0.6,4.4-1.6,5.9-3.5c4.2-5,8.1-6.4,13.1-4.8c7.9,2.4,7.8,2.4,7.4,11.4
		c-0.1,2.5-0.9,3.7-3.5,3.4c-0.5-0.1-1,0-1.5,0c-10.7,0.1-10.7,0.1-10.1,10.9c1.9,6.5,3.4,7.6,9.4,7.8c5.6,0.2,6.6,1.1,8,6.7
		c0.4,1.6,0.1,3.4,1.6,4.6c0.4,2.4,1.1,5.3-3.1,2.9c-2.7-2.3-6.4-2.8-9.2-5.1c-1.7-1.4-4.5-1.5-6.6-0.1c-2.3,1.5-0.5,3.6-0.4,5.4
		c0.3,4.1,0.5,8.2-0.1,12.3c-0.3,2-0.2,3.9,0.2,5.9c0.2,5.9,3.2,10.8,5.2,16.1c-0.2,4,1.6,7.7,2.5,11.5c0.2,0.9,0.7,2.2,1.5,2.5
		c4.9,2,9.1,6.4,14,7c4.7,0.6,4.3,3,5,5.7c1.2,2.8,1.6,4.4-2.6,3.3c-4.7-1.2-9.5-3-14.3,0c-0.5,0.1-1.1,0.2-1.3,0.6
		c-2.1,3.8-1,16,2,19.3c1.9,2.1,3.4,4,1.6,6.9c-1.1,1.8,0.8,2.6,1.7,3.6c3.7,4.3,3.8,5.3-0.5,9c-2,1.7-1.5,4.3-2.6,6.2l0,0
		c-2.2,1.6-3.3,0.2-4.6-2c-1,3.8-3.4,6.7-3.5,10.5c-0.1,2-1.3,3-3.3,3c-1.8,0-2.7-1.1-3.2-2.6c-0.1-0.5-0.4-1-0.3-1.5
		c1.1-11.1-4-21.2-4.9-32.1c-0.7-8-1.3-16.3-3.6-24.2c-0.4-1.6-0.1-3.3-0.1-5c-0.4-6.7-0.6-13.5-1.8-20.2c-0.2-1-0.2-2,0-2.9
		c2.2-8.9-2.1-17.1-2.6-25.7c0-0.8-1.2-1-1.9-1.4c-1-2.8-2.2-5.5-2.9-8.3c-1.3-5.5-4.7-8-10.3-7.6c-3.3,0-6.3,0.4-5.1,5
		c-0.7,1-1.3,2-2,3c-3.6,3.2-7.4,6.3-5.9,12c-4,10.1-9.5,19.6-12.8,30c-0.6,2-1.5,4-2.2,6c-3.5,1.1-3.9-1.8-4-3.8
		c-0.3-4.9,0.3-9.7-2.8-14.1c-1.3-1.8,0.3-4.1,1.5-6c1.6-2.4,2-4.8,0.3-8c0.5,3,0.8,5.3-1.6,6.6c-2.5,1.4-4.8,0.5-6.8-1.2
		c-1.2-1.1-2.7-2-3.5-3.5c-0.4-4.2,1.1-8.1,1.7-12.1c2.4-0.8,5,1.3,7.3-0.8c2.2,0,3.8-0.9,4.6-3.1c1.9-5.8,1.6-11.8,1.3-17.7
		c-0.1-2-1.9-3.2-3.7-3.6c-3.6-0.7-3.8-3-3-5.9c0.7-2.7,1.5-5.4,1.9-8.2c0.5-3.6,2.2-5.3,6-4.6c1.3-0.8,3.3-0.1,4-2.1
		c0.6-0.4,1.3-0.8,1.9-1.2c7.5-4.4,7.9-12.1,8.6-19.5c0.3-3,0.2-7.2,2.5-8.2c3.3-1.3,2-3.5,2.4-5.3c0.4-1.9,0.5-3.9,0.5-5.9l0,0
		C176.6,72,177.5,67,173.6,61.8z"/>
	<path fill="#E2E0C9" d="M898.5,272.8c4.7,7.2,13.2,10.3,18.5,16.8c1.6,2,4.5,1.8,6.6,3c2.2,2.1,4.6,1.3,6.9,0.4
		c2.1,0.3,4.2,0.7,6.4,0.7c5.9,0.2,8.9-2.3,11.7-10c0.8-2.2,1.5-3.1,4.1-2.4c6.4,1.7,13.1,1.3,19.7,1.6c0.1,0.2,0.2,0.5,0.3,0.7
		c-0.2,0.2-0.4,0.3-0.6,0.5c-1.8-0.4-3.3-0.6-2.2,2c3.6,8.3,1.2,16.1-2.1,23.8c-5.7,2-11.7,1-17.6,1.3c-8.8,0.5-17.6-0.3-26.3,0.4
		c-6.1-1.4-13-0.4-18.2-5.2c-0.5-0.4,0.2-0.3-0.4-0.3c-10.6,1.1-10.3-8.4-13.8-14.1c-1.1-1.8-0.9-4.3-3.5-5
		c-5.7-1.2-11.1-1.2-15.9,2.9c-0.1,0.7-0.3,1.3-1,1.6c-0.5,0.1-0.8,0-1.1-0.5c-0.6-0.2-1.5-0.2-1.9-0.6c-8.1-8.7-18.2-5.6-28-5.1
		c-6.7,0.3-13.5,0.1-20.2-0.4c1.9-1.3,4-1.2,6.1-1.1c3.1-0.9,6.3,0.2,9.3-0.7c5.8,0,11.5-1.1,17-2.9c2.3,0.5,4.6,0.1,6.8,0.3
		c0.5,0,0.9,0,1.4,0c6.6,0.6,7.4,0.1,9.1-5.9c0.4-2.4,2.9-3.6,3.5-5.9c6.1-3.4,12.4-4.7,19.1-1.7
		C894.6,268.8,896.6,270.7,898.5,272.8z"/>
	<path fill="#A14944" d="M218.4,111.9c-6,0.7-11.2,2.7-14,8.8c-1.1,2.5-3.6,1.8-5.7,1c-2.2-1.1-4.1-2.6-5.2-4.9l0,0
		c-7.6-3.9-8.1-5-5.9-12c0.7-0.5,1.3-1.1,2-1.5c5.3-3,6.5-5.7,4.6-11.7c-0.8-2.7-1-5.2,0-7.8c1-2.5,1.5-4.8-0.2-7.5
		c-1.4-2.2,1.7-6.3,4.9-6.5c5.9-0.4,11.3,2.3,17,3.4c0.5,0.1,1.2,1,1.1,1.5c-0.3,4.3,2.4,2.3,4.3,2.1c3.2,7.3,4.8,14.9,5.2,22.8
		c-0.1,1.5-0.2,3-1.7,3.8c-1.7,1-2.5,2.2-2.2,4.4C223.3,111.1,221.2,112,218.4,111.9z"/>
	<path fill="#E2E0CA" d="M888.5,296.8c0.2,0.2,0.3,0.5,0.1,0.8c0.3,2.4,1.1,4.6,3.2,6.1c8.6,9.8,20.5,10.8,32.2,11.6
		c8.4,0.6,17,0.5,25.4,0.7c-0.6,2.7-2.8,2.3-4.7,2.3c-4.6,0.1-9.3,0-12.8,0c6.3-0.2,13.6,0.2,21-0.4c2.5-0.2,4.5-2.2,7.1-1.5
		c1.9,0.5,4,0.4,5.4,2.2c0.3,0.4,0.5,0.9,0.5,1.3c-2.5,3.7-6.9,5.5-9.4,9.2c-3.7,2.4-7.8,3.1-12.1,3c-2.1-0.1-4.2-1.2-6.2,0.2
		c-0.8,0.4-1.7,0.5-2.6,0.4c-1.9-0.6-3.8-0.9-5.8,0c-0.7,0.2-1.5,0.2-2.2,0.1c-7.9,0.2-15.8,0.4-23.7,0.3c-2.5-0.1-5,0.2-7.4-0.4
		c-8.9-2.3-11.4-5.9-12.6-17.1c-0.7-7.1-5.1-12.1-10.6-16.2c-1.8,0.6-3.9,2.4-5.1-0.2c-1.1-2.4,0.1-4.5,2.6-5.5
		c1.4-0.6,2.6-1.4,3.9-2.1c1.1-0.9,2.5-1.3,3.8-1.7c0.6-0.1,1.2-0.2,1.8-0.3c2.8-0.7,5.1,0.4,7.3,2l0,0
		C888.5,293.3,887.3,295.2,888.5,296.8z"/>
	<path fill="#FFFFFF" d="M267.6,369.7c-0.2,0.3-0.5,0.4-0.8,0.3c-1.8,0.5-3.7,0.9-5.6,0.8c-2.1-1.8-3.9-2.1-6.6-0.6
		c-2.5,1.5-5.8,0.3-8.4,0.6c1.9,0.8,4.9-1.6,6.5,1.7c-5.6,2.9-11.2,0.5-16.7-0.3c-2-2.4-5.3-3.3-6.9-6.2c-1.3-2.4-2.4,0.8-3.7,0.3
		c-2-2.4-5-3.8-7.1-6.1c0.4-2.2,3-2.3,3.9-4.1c-0.9,0.1-1.9,0.7-2.7-0.2c0.2-2.4,1.4-4.4,2.3-6.5c2.2-1.2,2.2-4.4,4.9-5
		c1.1,0.3,1.7,1.2,2.3,2.1c0.5,0.6,1.2,0.8,2,0.7c1.3,0.3,2.4,0,3.5-0.8c5.3-2,10.8-0.6,16.2-1c7.3-0.6,13.1,3.5,19.8,4.7
		c1.9,0.6,2.2,1.6,1.1,3.2c-0.1,0.2-0.2,0.5-0.5,0.6c0.5,0.1,0.4-0.6,0.8-0.6c0.6-0.3,1.2-0.2,1.8,0.1c1.4,1.3,2.1,3.4,3.8,4.4
		c0.4,0.7,0.8,1.3,1.2,2c0.2,3.1-2.8,3.8-4.4,5.6C271.9,366.5,269,366.9,267.6,369.7z"/>
	<path fill="#A14944" d="M113.6,293.8c-3.6,3.4-7.9,2.4-12.9,1.9c3.7-4.8,8.6-7,12.7-10.2c3.7-2.9,7.1-6,8.4-10.8
		c0.8-2.8,0.8-5.4-0.6-8.2c-2.1-4.2-2-8.4-0.2-13c2.1-5.4,3.3-11.1,4.9-16.7c0.5-1.9,0.8-4.2,3.8-2.8c1.8,1.3,2.8,0.8,3.5-1.2
		c0.8-2.3,0.6-4.7,1.5-7c0.7-3,2.2-5.6,3.9-8c2.2-0.8,2.2-4.4,5.3-4.1c1.8,2.5,1.3,4.6-1.2,6.2c-1,0.6-1.9,1.2-2.2,2.4
		c-1,1.5-1.9,3.2-1.4,5.1c0.9,3.6,0.1,7.1-0.2,10.7c-0.2,2-1.4,4.7,2,5.6c1.5-0.7,2-1.9,2.6-3.3c0.6-1.4,1.2-3.2,3.4-2.5
		c-0.7,12.6-3.1,24.6-10.4,35.2c-0.7,1.1-1.7,2-2.6,3c-3.8,1.3-5.6,4.5-7.3,7.8l0,0C121.6,286.3,118,290.5,113.6,293.8z"/>
	<path fill="#A14944" d="M349.6,280.8c-10.9,3.5-22.1,3-33.4,2.9c-0.8,0-1.9,0-2-1c-0.1-0.7,0.5-1.6,1-2.1c1.4-1.2,2.8-2.3,4.3-3.3
		c6.2-4,6.3-4.3,2-10.6c0.1-1.4,1.1-2.1,2-3c17.7,0.7,35.4,1.3,53.1,2c4.4,0.2,5.8,2.8,3.7,6.7c-4.4,8-6.2,9.1-15.1,6.9
		c-3.2-0.8-5.9,0.3-8.8,0.4C354,278.6,351.9,280,349.6,280.8z"/>
	<path fill="#A14944" d="M267.1,277.7c-0.4,6.8-5,9.5-8.7,12.5c-6.3,5.2-10,11.7-11.9,19.6c-0.4,1.8-0.1,4.6-2.8,4.6
		c-2.2,0-2-2.5-2.8-4.1c-3.2-6.1-5.5-12.4-7.2-19c-1-4-4.3-6.7-6.9-9.6c-2.8-3.1-3.6-5.9-1.5-9.8c1.6-3,3.8-5.5,6-7.8
		c1.7-1.7,4-3.2,6.7-1.9c2.9,1.4,5.2,3.3,5.6,7c0.7,6.3,2.4,12.3,6,17.7c2.4,3.6,4.8,3.4,7,0.2C259.2,283.3,262.9,281,267.1,277.7z"
		/>
	<path fill="#A14944" d="M646.6,277.8c-4.7,1.8-9.4,2.8-14.5,2c-6.9-1-13.8,1.7-20.8-0.1c-2.8-0.7-5.2-2.1-5.5-5
		c-0.3-3.1,0.1-6.2,4.6-6c21,1.1,41.6-4,62.5-4.2c3.6,0,7.2-0.9,10.9-0.9c2.6,0.1,4.6,0.4,4.7,3.7c0.2,3.2-1.6,5.2-4.3,5
		c-8.4-0.5-16.4,3.2-24.7,2.3C654.8,273.9,650.8,276.2,646.6,277.8z"/>
	<path fill="#A14944" d="M214.6,170.8c0-1.3,0-2.7,0-4c0-7.6,0.6-7.9,7.9-5.5c6.1,2,9.9,5,10.7,12.2c1.2,10.8,3.8,21.5,4.3,32.5
		c0.1,1.3,0.6,3-0.6,3.7c-1.4,0.8-2.4-0.6-3.4-1.4c-1.9-1.8-4.2-2.7-6.8-2.5c-3.3,0.3-4.9-1.2-5.2-4.5c-0.4-5.4-2-10.3-4.9-15
		C213.8,181.6,214.6,176.1,214.6,170.8z"/>
	<path fill="#A14944" d="M530.5,281.8c-6.7,0.6-13.3-2.3-20.1-3.7c-3.4-0.7-6.8-1.2-10.3-1.4c-14.9-0.8-29.9-1.2-44.8-1
		c-1.9,0-4.1,0-3.5-2.8c0.5-1.9,0.1-4.8,3.9-4.4c15.1,1.7,30.2,1.7,45.3,1c11-0.5,21.9-0.8,32.9-0.8c5.4,0,6.4,1.2,6.5,7.8
		c0,4.4-2.5,5.7-6.5,5.2C532.9,281.7,531.9,281.8,530.5,281.8z"/>
	<path fill="#E1DFC9" d="M991.5,282.8c2.4-1.7,5-1.6,7.6-1.1c2.8,0.6,4.5,2.5,4.2,5.4c-0.4,4.1-1.1,8.2-1.9,12.2
		c-1.9,9-10.2,9.9-16.9,12.4c-2.7,1-5.9,1-8.8,1.4c-5.4,0.7-5.7,0.3-3.9-4.5c0.2-0.6,0.6-1.2,0.8-1.8c0.9-0.8,1.2-1.8,0.8-3
		c-0.2-2.1,0.3-4.1,1.2-6c0.6-2,0.6-4,0-6c-0.1-2.8-1-5.4-2.5-7.7c0.1-0.1,0.3-0.2,0.4-0.3c5.2-0.7,10.5-0.5,15.7-0.2
		C989.6,283.5,990.7,283.9,991.5,282.8z"/>
	<path fill="#FFFFFF" d="M585.3,301.6c1.3-0.3,2.5-0.5,3.8-0.8c2.6-0.6,3.9,0.2,3.7,3.2c-0.2,4.4-0.5,8.9,0.5,13.3
		c0.5,2.5-0.2,3.7-2.9,3.6c-1.6,0-3.2,0.4-4.9,0.6c-9.1-0.6-18.3-0.3-27.4-0.2c-3.2,0-4.6-1-4.6-4.2c0-1.5-0.5-2.9-0.4-4.4
		c0.3-6.9,0.5-6.6,7.1-8.7c8.2-2.7,16.4-1.3,24.7-1.7c0.7,0-0.2,0,0.5-0.1C585.7,302.2,585.7,301.9,585.3,301.6z"/>
	<path fill="#FFFFFF" d="M455.4,317c-2-4.4,0.1-9.2-1.4-13.6c-0.7-2,1.2-1.5,2.1-1.6c6.5-0.9,13-1.8,19.5-2.7
		c2.2,0.6,4.6-0.1,6.8,0.6c11.6,0.5,10.6,0,10.6,11.2c0,2.1,0.4,4.3-1.1,6.2c-3,1.7-6.2,0.1-9.3,0.2c-7,0.2-13.9-0.3-20.9,0.5
		C459.7,317.9,457.4,318,455.4,317z"/>
	<path fill="#A14944" d="M171.7,66.8c-0.2,1.3,0,2.2-0.3,2.6c-4.6,4.9-4.4,12.1-8.1,17.5c-2.5,3.6-2.8,7.7-2.7,11.9
		c0.2,6.8-2.5,12.3-7.9,16.3c-1.5,1.1-3.2,2.4-5,1.3c-2-1.2-0.3-3.1,0.1-4.5c3.8-11.2,5.3-22.9,7.9-34.3c1.4-6.1,2.8-12.2,5.9-17.9
		c1.5-2.7,2.7-2.8,4.9-1C169.3,60.9,170.3,64.2,171.7,66.8z"/>
	<path fill="#E1DECA" d="M875.6,291.8c-1.1,1.6-2.1,3.3-4.3,3.5c-1.9,0.2-3.4,1.5-2.3,3.3c1.5,2.5,2.5-0.5,3.9-0.7
		c6.5,5.9,11.1,12.7,12.2,21.8c1.2,9.6,5,12.4,14.4,13.7c8.1,1,16.2,0.9,24.3,1c3.1,0.2,6.1-0.2,9.1-1c3-0.1,5.9-0.1,8.9,0
		c1.5,0.3,3.8-0.1,3.6,2.2c-0.1,1.7-2.2,1.7-3.7,1.7c-0.8,0-1.6,0-2.5,0c-8.6,1.8-17.3,0.7-26,1c-1.9,0.1-4-0.5-5.2,1.7
		c-4,2.3-8.3,1.5-12.6,1c-0.9-0.1-2.1-0.6-1.8-1.9c0.2-1.1,1.2-1.4,2.3-2c-6.6,3.3-10.8-0.1-14.5-5c4,8.3,11.7,9.4,19.4,9.4
		c7.8,0,15.6,0,23.4-0.3c2-0.1,4-0.1,5.5,1.6c0.1,0.6,0,1-0.5,1.4c-3.2,0.4-6.5-0.3-9.7,0.4c-8.8,0.1-17.6,0.4-26.4,0.2
		c-12.3-0.3-15.6-3.2-18.4-16.4c-0.7-3.4-0.7-6.9-0.6-10.4c0.1-4.5-0.9-8.7-3.6-12.2c-3.9-5-4.3-9.8-0.4-14.9
		c0.5-0.1,0.9-0.1,1.4-0.2C872.7,291.8,874.4,290.8,875.6,291.8z"/>
	<path fill="#E1DFC9" d="M938.6,335.8c1.9,0,3.8,0,5.9,0c-0.9-1.5-2.1-0.8-3.1-1.1c0.1-1.7,1.4-2.2,2.7-2.3
		c5.4-0.1,10.3-2.1,15.4-3.4c2.2,0.3,4-0.5,5.8-1.9c3-2.2,3.7-4.1,0.3-6.3c0-0.3,0-0.7,0-1c3.1-3,7-3.4,11-3.8
		c1.1-0.2,2.1-0.4,3.2-0.7c8.5,0.3,16-2.3,22.5-7.8c1.2-0.9,2.2-2.9,4-1.3c1.9,1.6,1.5,3.7,0.5,5.8c-2.3,2-4.6,3.9-6.9,5.9
		c-3.3,1.9-6.6,3.8-8.2,7.6c-0.2,0.5-0.5,0.9-0.9,1.1c-5.6,3.5-11.3,7.1-18.1,7.4c-2.4,0.1-4.5,0.3-6.6,1.5c-1.9,1.1-4,1.9-6.1,1.8
		c-3.3-0.1-6.1,1-9,2.4c-2.9,1.5-6,3.1-9.3,0.5C941.2,338.4,937.8,338.5,938.6,335.8z"/>
	<path fill="#FFFFFF" d="M596.6,317.9c-1.6-4.8-0.8-9.8-1.1-14.8c-0.1-2.2,1-2.9,2.9-3c9.7-0.7,19.4-1.3,29.1-2
		c1.1,3.2,0.2,6.5,0.5,9.8c0,0.5-0.1,1-0.1,1.5c-0.1,5.9-0.9,7.1-6.8,6.4c-5.9-0.6-11.1,1.7-16.6,2.9c-1.6,0.4-3.2,1.2-5,0.9
		C598.7,318.9,597.2,319.2,596.6,317.9z"/>
	<path fill="#FFFFFF" d="M223.4,336.8c-0.9,1.4-1.8,2.7-2.7,4.1c-2,1.2-1.5,4.4-4,5.2c-0.4-0.2-1.1-0.7-1.2-0.6
		c-1,1.3,0.6,2.1,0.7,3.3c0.2,2.1-1.6,3.8-0.9,6c-0.5,1.2-0.1,4.1-2.6,1.3c-1.1-1.3-2.7-2.3-3.3-4c-0.9-0.9,1-3.9-2.3-3
		c-4.2-5.1-6.7-11-8.4-17.3c0.1-3.7-0.3-7.4-2.4-10.6c-0.7-0.7-0.8-1.5-0.6-2.3c0.7-1.4,1-2.9,0.6-4.5c-0.7-2.9,0.5-4,3.4-3.6
		c2.1,1.2,0.1,4.5,2.7,5.5c2.2,0.3,3.3-0.7,3.6-2.8c0.2-1.6,0.2-3.3,2.3-3.7c1.4,0.7,1.7,2,1.6,3.3c-0.3,2.5,1.4,3.7,3.1,5
		c0.3,2.8,4.3,4.2,2.9,7.6c-1,1.6-2.3-0.3-3.5,0.4c1.5,2.6,2.4,0.5,3.4-0.3c0.3-0.2,0.6-0.2,1-0.1c2.3,0.6,1.4,2.6,1.6,4
		c2.1-2.4,2.9,0.2,4.2,1.1C225.2,332.2,223.6,334.6,223.4,336.8z"/>
	<path fill="#A14944" d="M119.5,270.6c-0.6,5.3-3.3,8.8-6.9,11.6c-4.9,3.7-9.9,7.2-14.7,11c-1.6,1.3-2.9,1.6-4.9,0.8
		c-5.3-2.1-10.6-4.4-15.5-7.5c-2-1.2-1.6-2.5,0.2-3.1c2.5-0.9,5-1.6,7.7-1.6c11.5,0.1,20.7-4.5,27.6-13.8c1-1.3,1.7-4.4,3.6-3.4
		C118.6,265.6,119.1,268.6,119.5,270.6z"/>
	<path fill="#FFFFFF" d="M684.4,291.7c0.6-0.7,1.4-0.9,2.3-0.7c0.6,0.2,1.3,0.5,1.5,1.2c0,0.4,0,0.9-0.1,1.3c-0.6,1-1,2.1-1.3,3.2
		c0,0,0.2,0.3,0.2,0.3s0.4,0,0.4-0.1c0.6-0.1,1.1,0,1.7,0.2c1.4,0.5,2.7,1.4,4-0.2c0.8-0.7,1.3-1.9,2.7-1.2c0,5.2-1.9,10.2-1.1,15.5
		c0.3,1.8-1.5,1.4-2.5,1.4c-7.8,0-15.6-0.1-23.3-0.1c-2.2,0-2.4-1.4-2.5-2.9c-0.1-5.5,0.7-10.9,1.4-16.3c0.2-1.7,1.5-1.5,2.6-1.5
		c2.8,0,5.6,0,8.4,0C680.5,292.3,682.5,292.8,684.4,291.7z"/>
	<path fill="#A14944" d="M199.6,215.8c-0.1,2.5,0.1,4.8,1.6,7.1c1.1,1.7,0.9,4,0.7,6.2c-0.3,3.2-1.5,6.7,2,9.6
		c1.8,1.5,0.6,4.8,0.7,7.2c0.1,3.1,0.2,6.3,0,9.5c-0.1,2.4,0.4,4.2,2.8,5.2c3.1,1.3,3.2,3.6,2.2,6.4c-1.2,3.5-1.5,7.1-0.5,10.8
		c0.4,1.2,0.5,2.7,2.4,2.5c1.9-0.2,2.1-1.5,2-2.9c-0.3-5.6,3.5-9.8,4.4-15.2c3.5,1.8-0.9,7.6,4.7,7.6c-4.3,6.4,0.2,11,3.1,15.9
		c-2,0.1-3.6-0.1-3.8-2.7c-0.1-1.2-0.9-2.5-1.6-3.6c-0.9-1.3-1.5-3.6-3.4-3.2c-2.2,0.5-1.1,2.8-1.3,4.3c-0.1,1,0.2,2.5-0.3,2.9
		c-5.3,4.3-1,8.9-0.8,13.4c0.3,6.8,4.5,13,3,20.1c-2.9-4.4-3-9.7-4.4-14.6c-3.8-12.7-7.7-25.3-9-38.6c-1.5-16-5.4-31.7-5.5-47.9
		C199,215.3,199.3,215.2,199.6,215.8z"/>
	<path fill="#FFFFFF" d="M299.5,332.8c-0.5,0.7-1,1.4-1.5,2.2c-2,0.7-1.8,3.9-4.4,4.1c-0.4-0.2-0.8-0.6-1-0.9c-1.4-1.6-0.1-6-3.8-5
		c-3.3,0.9-0.4,3.9-0.5,5.9c0,0.5,0,1-0.2,1.4c-0.6,0.9-1.8,1.2-2.5,2c-4.4,1.5-2.5-3.3-4.3-4.3c-0.9,2.5,0.7,5.4-1.3,7.7
		c-1.9,1-3.2,0.9-4-1.5c-0.5-1.5-0.6-3.2-1.6-4.5c-0.5-2.4,0.1-4.9-0.1-7.3c-0.2-1.8,0.8-3.2,2-3.6c3-1.1,4-3.5,5-6.1
		c4.1-0.6,6.8-3.2,9.3-6.1c0.4-0.2,0.7-0.4,1.1-0.6c1.9,0.3,3.4-0.5,4.8-1.7c0.4-0.2,0.8-0.3,1.2-0.5c1,0.7,2.8-0.4,3.3,1.4
		c0.1,1.9-0.6,3.8,0,5.7c0.1,1.5,0.2,3.1,0.4,4.6C301.6,328.3,299.6,330.3,299.5,332.8z"/>
	<path fill="#FFFFFF" d="M515.6,321.5c-2.4-0.3-4.7-0.6-7.1-0.8c-2.7-0.6-3.7-2.2-3.5-4.9c0.2-3.2,0-6.5,0.1-9.8
		c0-0.5,0.1-1,0.4-1.4c2.8-0.6,2.5,2.3,3.9,3.3c4.7,1.5,9.7-1.2,14.3,1.2c3.7,2.2,7.8,0.8,11.7,1.1c2.8,0.3,5,1.2,5.4,4.1
		c0.4,2.7,0.9,5.8-2.9,6.9C530.5,321.5,523,320.9,515.6,321.5z"/>
	<path fill="#A14944" d="M143.6,213.8c-1.3,1.9-2.3,4-5.1,4c0.3-1.1,0.4-2.4,1.1-3.3c4.2-5.5,3.1-11.5,1.8-17.5
		c-0.5-2.3-0.8-4.5-0.7-6.9c0.2-3.7-0.8-6.2-4.9-7.4c-4.2-1.2-1.7-4.4-1.1-6.9c1.6,0,3.3,0.1,4.1,1.4c1.6,2.5,4,3.9,6,1.8
		c2.3-2.4,0.5-4.8-2.7-6.2c2.9-1.7,4.9-1,6.4,1c1.8,2.5,2,5.4,0.1,7.9c-2.3,3-3.9,5.1-0.6,8.9c1.7,1.9,2.3,5.8,1.3,9.1
		c-0.8,2.6-0.5,4.9,2.4,6.2c-2.4,7.8-2.9,16-3.9,24.1c-2.5,0.1-2.3-1.8-2.6-3.3c-0.9-5.5-0.7-11,1-16.4c0.4-1.4,1-2.9-0.3-4.2
		c-2.3-3.2-0.4-7.1-1.3-9.3c1.1,2.2-1.1,6.2,1.5,9.4C147,209.3,146.1,211.8,143.6,213.8z"/>
	<path fill="#A14944" d="M222.6,269.8c0-3.4-0.9-7,3.9-8.4c1.6-0.5,0.9-2.4,0-3.4c-1.4-1.6-2.4-3.6-4.6-4.3c-2.2-0.7-2.1-1.9-0.2-3
		c3.1-1.7,2.6-3.5,0.1-5.1c-2.8-1.8-3.3-4.3-3.2-7.3c0.1-4.3,0-8.6,0.2-12.9c0-1.2,0.3-2.8,2-2.9c0.3,0,0.6,1,1,1.6
		c-1.9,4.5-1.3,9.2-1,13.8c0.3,5.1,5.3,7.6,10.8,6.1c8.1-2.3,9.8-1,10,7.4c0,0.7,0,1.3,0,2c0.3,3.7,1.3,7.3-5.3,5.7
		c-4.6-1.1-8.1,3.1-11,6.6C224.3,267,223.5,268.4,222.6,269.8z"/>
	<path fill="#A14944" d="M571.6,268.8c2.7,0,5.3,0.2,8,0c3.6-0.3,5,2.1,6.2,4.7c1.2,2.7-0.7,4.2-2.6,5.7c-9.2,6.6-12.5,5.7-18.5,0.5
		c-0.9-0.7-2.1-1.1-3-1.7c-1.6-1.1-4.7-1.1-3.3-4.4c1.2-2.8,2.3-5.6,6.4-4.9c2.2,0.4,4.6,0.1,6.9,0.1
		C571.6,268.7,571.6,268.7,571.6,268.8z"/>
	<path fill="#FFFFFF" d="M651.7,312.9c-4.4,0.6-8.8,1-13.2,1.8c-4.2,0.8-6.6-0.5-6.8-4.9c0.8-3.5-0.1-7.2,0.5-10.7
		c0.3-0.4,0.7-0.6,1.2-0.6c3.4,1.9,6.4-0.5,9.6-0.9c0.7-0.5,1.7,0,2.2-1c3.5-2,7.2-3.3,11.2-3.7c0.7,0.2,1.3,0.4,1.5,1.3
		c0.2,4.6-2.8,9.3,0.5,13.8c1.3,4.5-1.9,3.6-4.4,3.6c-1.9-0.2-2.3-3.2-4.7-2.3c-0.1,0-0.1,0.3-0.1,0.4c0,0.1,0.1,0.3,0.2,0.4
		C650.1,311.2,651.4,311.6,651.7,312.9z"/>
	<path fill="#A14944" d="M444.5,300.6c-0.7-1.4-3.1-3.2,0.9-3.3c7.8-0.3,15.5-1.3,23.1-3c1.1-0.3,2.1-1,3.4-0.7
		c11.1,2.4,22.4,0.2,33.5,1.9c6.1,0.9,11.9,2.3,17.7,4.5c5.8,2.2,12.2,1.6,18.2,0.3c7-1.5,13.7-4.9,21.2-3.3c0.8,1.3-0.1,1.9-1,2.6
		c-1,0.1-1.9,0.1-2.9,0.2c-1.7-1.3-3.4-1.1-5.1,0.1c-17.1,5.3-34,2.6-50.9-1.4c-14.3-3.4-28.6-3.1-42.9-0.2
		C454.7,299.1,449.6,299.8,444.5,300.6z"/>
	<path fill="#A14944" d="M874.6,261c3-1.8,7.2-2.3,7.4-7.1c0-0.4,0.9-0.9,1.5-1.1c9-3.6,27.6,0.5,34.2,7.6c3.7,3.9,3.2,6-1.5,8.2
		c-1.1,0.5-2,0.5-2.5-0.5c-1.4-2.5-4-3.3-6-5c-8.2-6.8-16.5-6.1-25-1c-1.3,0.7-2.5,0.6-3.9,0.7C874.9,263.7,874.7,263.6,874.6,261z"
		/>
	<path fill="#FFFFFF" d="M723.8,304.8c0.3-1.3,0.6-2.7,1-4c1.9-0.2,1.6,1.3,1.8,2.3c0.3-2-0.4-4-1.1-5.9c-0.4-1.4-0.8-2.7,0.1-4
		c5.3,0.3,10.7,0.6,16,0.8c0.7,0.3,1.4,0.5,1.2,1.5c-2.2,3.1-5.5,1.5-8.5,2.2c2.8,0.8,5.5,0.3,8.2,0.4c1.7,0.1,3.4,0.1,4.8,1
		c0.9,0.6,1.6,1.4,1.3,2.4c-0.2,0.8-1.1,1.2-2,1.3c-2.8,0.3-5.6-0.3-8,0.1c3.8-0.4,7.9,0.5,12-0.5c2.7,2.2,1.4,4.9,1.1,7.5
		c-3,0.9-6.1,0.7-9.1,0.6c-4-0.4-7.9-0.7-11.8,0.2c-2.3,0.1-4.6,1.5-6.9,0C724.2,308.8,724.3,306.8,723.8,304.8z"/>
	<path fill="#A14944" d="M561.6,299.4c0.3-0.9,0.7-1.7,1-2.6c3.6-0.6,7-1.2,10.8-0.2c4.4,1.1,9,0,13.2-1.2c2.9-0.8,5.4-0.2,8.1-0.2
		c8.6-0.2,17.5,1.4,25.7-2.6c2.1-1,4-0.3,5.8-0.3c10.6,0.5,20.5-2.9,30.7-4.6c2.8-0.4,6.3-2.3,8.8,1.1c-12.3,1.4-24,5.6-36.5,6.2
		c-14.6,0.7-29.1,2.4-43.6,3.6C577.5,299.2,569.5,298.2,561.6,299.4z"/>
	<path fill="#E2DECD" d="M941.6,339.8c4.3,1.6,7.8-0.6,11.1-2.6c1-0.6,1.9-1.1,2.9-1c4.6,0.4,8.7-0.4,12.2-3.8
		c1.5-1.5,3.5-0.1,5.2,0.3c3,0.8,5.8,0.5,6.8-3c0.6-2.1,1.6-1.4,2.9-1.2c3.8,0.8,6.8-1.5,7.8-4.3c1.6-4.9,4.9-6.1,9.3-6.4
		c-0.8,1.3-1.9,2.4-2.3,3.8c-1.9,6.9-7.3,9.7-13.4,11.1c-15.3,3.6-30.3,8.4-45.8,11.1c-1.3,0.2-2.4,1.3-3.8,0.7
		c-1.6-0.9-3.5,0.3-5-0.8c0-0.3,0-0.7,0-1c1.4-2.4,3.7-1.4,5.7-1.5c2.3,0.6,2.9-2.7,5.1-2.2C940.9,339.2,941.3,339.4,941.6,339.8z"
		/>
	<path fill="#FFFFFF" d="M328.5,306.8c18.2-1.5,36.4,0.3,54.6,0c1.8,0,2.7,0.6,2.7,2.6c0.1,3.5,0.4,6.9,0.6,10.4
		c-0.4,1.1-0.2,2.3-0.3,3.4c-0.2,2.3-1.3,2.4-3,1.3c-0.5-0.6-0.8-1.3-0.9-2.1c0-1.2-0.6-2.4-0.9-3.6c-0.2-4.1-3.5-3.3-5.8-3.5
		c-4.2-0.5-8.5,0.4-12.8-0.6c-9.4-0.8-18.7-0.9-28.1,0c-0.4,0.3-0.9,0.6-1.3,0.9c-1,0.5-2,0.8-3.1,0.2c-1.1-1.1-1.5-2.3-0.7-3.8
		c0.5-0.8,1.2-1.2,2.1-1.5c8.4-0.6,16.8-0.1,25.2-0.2c2.5,0,5-0.1,7.2-1.3c4-0.6,7.9-0.1,11.9-0.4c-13.2,0.6-26.5,0.8-39.7,0.5
		c-2.8,0-5.5,1.9-8.3,0.2C326.7,308.2,327.6,307.5,328.5,306.8z"/>
	<path fill="#A14944" d="M223.6,232.8c0-8,1.2-9,9.1-6.4c3.3,1.1,8.1,0.7,7.9,6.4c-0.1,4,1.2,8.7-5.7,7.1c-0.6-0.1-1.3,0.4-1.9,0.5
		C225.3,242.3,223.6,241,223.6,232.8z"/>
	<path fill="#A14944" d="M128.9,231.2c-1.8-4.1-0.5-6.9,0-9.4c2.1-11,4.2-22,4.1-33.3c0-1.4,0.6-2.2,1.9-2.4
		c1.7-0.3,2.7,0.6,2.5,2.2c-0.5,5.7,1.8,11.2,1.9,16.7c0.1,5.5-3.6,10.2-5.7,15.2C132.3,223.4,130.4,226.5,128.9,231.2z"/>
	<path fill="#FFFFFF" d="M227.6,347.8c-0.3-1-0.7-2-1-3c0.1-0.8,0.5-1.4,1.1-1.9c2.1-0.8,3.6-2.9,6.1-2.9c6.8,1.7,13.7,1.9,20.6,0.6
		c0.6-0.7,1.4-0.8,2.3-0.6c1.9,0.9,3.8-0.4,5.8-0.2c0.9,0.1-0.1-0.7,0.1-1c2.4-1.3,4.8-2.6,7.6-4.1c0.5,6.5,2.9,12.2,4.8,18.1
		c-0.2,0.6-0.6,1-1.3,1.1c-0.7,0-1.3,0-2,0c-0.3,0.5-0.7,0.5-1,0c0.4-1,1.3-2,0-3c-5.1-3.9-10.3-5.9-17.2-5.2
		c-4.9,0.5-10.1,0.1-15.2,0.2c-1.8,0-3.7-0.1-4.6,2c0,0.6,0.2,1.5-0.1,1.6c-1.6,0.7-1.9-1.1-3-1.6
		C229.6,348.6,228.6,348.6,227.6,347.8z"/>
	<path fill="#FFFFFF" d="M193.9,302.8c-0.4-4.7-0.7-9.4-1.1-14.1c0.7-2.3-0.2-4.7,0.6-7c0.5-0.3,1-0.2,1.5,0.1
		c1.2,2.8-0.2,5.6,0,7.1c-0.9-3.4,2-7.1,3.8-11c0.8-1.7,1.5-3.8,4.2-3.2c1.8,6.4,1.3,13.3,5.2,19.1c1.1,1.6-0.1,2.4-1.4,3
		c-3.1-0.9-3.9,2.5-6.2,3.2c-2.6-1.3-1.8-3.4-1.4-5.6c0.3-1.7-0.5-3.5-0.1-4.8c0.3,2.8-0.3,6-0.4,9.3
		C198.5,302.6,196.7,303.9,193.9,302.8z"/>
	<path fill="#A14944" d="M616.6,283.8c-4.3,2.3-8.4,0.2-12.3-1.1c-2.9-1-5.8-2.9-4.9-7.4c0.4-2-0.4-4.7-3.4-4.2
		c-2.5,0.4-3.3,2.6-3.2,4.9c0.2,3.4,2.3,6.1,4.1,8.7c2,2.9,0.7,2.9-1.6,3.1c-6,0.5-6.8-0.3-6.1-6.3c0.2-1.6,0.2-3.3,0.3-4.9
		c0.2-2.6-1.1-4.7-2.1-7.6c4.8,0,9.3,0,13.8,0c1.9,0,1.9,0.9,1.8,2.5c-0.8,7.8,1.7,10.6,9.8,11.5C614.1,283,615.3,283.5,616.6,283.8
		z"/>
	<path fill="#FFFFFF" d="M329.6,312.8c0.3,1,0.7,2,1,3c1.8,1,2.5-1.4,3.9-1.3c9.3-0.2,18.5-0.4,27.7,0.1c2.6,1.3,2.5,2.8,0,4.2
		c-1.1,0.6-2.4,1.1-3.5,1.8c-0.6,0.3-1.3,0.5-2,0.5c-2.8,0.2-5.6-0.4-8.4,0.7c-6.7-0.4-13.2-2.4-20-2.2c-1.4-0.4-3.1,0-3.9-1.6
		c-1.2-1.4-0.9-3.1-1.3-4.7c-1.7-6.6-1.6-6.6,5.3-6.4c-0.3,0.7-0.6,1.3-1,2C325.3,311.6,329.7,311,329.6,312.8z"/>
	<path fill="#FFFFFF" d="M779.4,294.7c0.1-0.1,0.4-0.3,0.4-0.3c3.7,3.6,0.9,8.1,1.6,12.1c0.5,2.4-2.1,2.5-3.9,2.6
		c-3.3,0.1-6.6,0.3-9.9,0.4c-1.6-0.7-3.3,0-4.9-0.5c-0.3-0.4-0.4-0.8-0.4-1.3c0.3-0.7,0.7-1.2,1.4-1.6c3.4-1.3,6.9-0.7,10.1-0.8
		c-1.9-0.1-4.2,0.3-6.5-0.3c-0.9-0.3-1.9-0.7-2.7-1.1c-1.1-0.6-1.8-1.5-1.6-2.8c0.2-1.5,1.3-2.3,2.6-2.6c2.4-0.5,4.9-0.1,6.7-0.2
		c-2.9,1.6-9.2-3.6-10,4.5c-0.6,0.9-1.3,1.4-2.4,1.3c-2-1.1-0.4-2.9-0.8-4.2c0,0.9,0.2,2-1.3,2.1c-1.3-0.8-0.3-2.3-1-3.3
		c-0.5-6.1,3.3-5,6.9-4.1C768.9,295.8,774.2,295.5,779.4,294.7z"/>
	<path fill="#FFFFFF" d="M849.5,287.6c1.3-0.9,2.9-0.6,4.3-0.7c3.1-0.2,4,0.8,3.3,4.1c-0.9,4.2-1.2,8.5-1.7,12.7
		c-0.5,0.2-1,0-1.3-0.4c-0.3,0.4,0.1,0.5,0.3,0.7c0.9,1,0.7,2.1,0.4,3.3c0,2.9,0.2,5.8-1,8.6c-1.4-0.7-2.8-1.5-4.3-2
		c-1.2-1.5-1.7-3.3-1.6-5.2c0.4-3.6,0.8-7.3-0.2-10.9c-1-2.3-1.2-4.7-0.8-7.1C846.8,289,848.3,288.4,849.5,287.6z"/>
	<path fill="#FFFFFF" d="M389.5,315.9c-0.2-0.8-0.6-1.5-0.7-2.3c-0.6-7-0.4-7.2,6.9-5.9c0.3,0.4,0.4,0.8,0.3,1.3
		c-2.8,2.6,0.5,2.2,1.5,2.9c7.8,0.5,15.6,1.6,23.2-1c0.5-0.6,3.6,0.3,1-2c-0.5-0.5-0.3-1.1,0.4-1.5c3.6,0.4,7-1.6,10.6-1
		c1-0.1,2,0,2.8,0.8c0.9,1,0.8,2.1,0.5,3.3c-2,0.6,0.4,1.6-0.2,2.3c-2.2,3.9-7.2,1.7-9.9,4.5c-9.3,1.1-18.6,0.5-27.9,0.6
		c-1.3-0.3-2.6-0.5-3.8-0.9c-1.1-0.4-2.3-0.1-3.4-0.3C390.2,316.4,389.8,316.1,389.5,315.9z"/>
	<path fill="#FFFFFF" d="M506.6,304.8c-0.3,0-0.7,0-1,0c-0.7-0.9-0.7-1.8,0-2.8c9,1.3,17.8,3.4,26.9,4c5,0.4,9.3-2.1,14.1-2.1
		c1.6,0.4,2.1,1.8,2.4,3.2c0,0.9,0.2,1.9-0.3,2.7c-2.2-0.7-4.5,0-6.7-0.5c-6.1,2.1-12.3,2.1-18.5,0.4c-4.2,0.1-8.4,0.1-12.6,0.3
		c-1.4,0.1-2.5-0.2-3.4-1.4c-0.3-1.9,1.2-1.9,2.4-2.3C508.8,305.9,507.6,305.6,506.6,304.8z"/>
	<path fill="#FFFFFF" d="M150.8,231.8c0.3-4.5,0.5-9.1,0.9-14.3c4.6,3.7,8,7.7,10.9,12.2c0,1.3,0.4,2.6-0.5,3.8
		c-0.3,0.3-0.7,0.5-1.1,0.6c-1.5-0.1-1.9-2.2-3.5-2c-1,2.1,1.3,1.1,1.7,1.9c1.8,0.8,2.2,3.1,4.1,3.8c-0.8,2.8-1.7,5.5-2.7,8.9
		c-2.7-2.4-5-4.5-7.3-6.6c0.6-0.8,1.1-1.9,2.4-1.8c0.6,0.2-0.2,0,0.4,0.2c-0.2-0.1-0.3-0.2-0.5-0.2c-3.1-0.6-2.5-2.9-2.6-4.8
		c-1.1,2.1,2.1,4.3,0.3,6.6c-0.7-0.2-1.5-0.3-1.9-1.2C150.5,236.6,151.5,234.1,150.8,231.8z"/>
	<path fill="#FFFFFF" d="M804.6,289.9c11.5-3,11.3-3,11,8.5c-0.1,4.4-0.7,7.4-6.2,6.7c-2.6-0.3-5.2,0.4-7.9,0.7
		c-0.7-1.4-0.3-2.9-0.4-4.3c-0.3-3.1,0.8-6.1,0.9-9.2C802.1,290.5,803.5,290.4,804.6,289.9z"/>
	<path fill="#FFFFFF" d="M719.7,292.7c4.2,2,1.4,5.4,1.7,8.1c-0.3,0.8-0.7,1.6-1.4,2.2c-1.5,1.5-0.4,2.9,0.1,4.3
		c-1,4.8-3.4,2.8-5.6,1.1c-0.8-1.8-2.1-2.8-4.2-2.7c-1.6,0.1-3.3,0.1-4.9,0.1c-5.5-0.1-6.2-0.8-6.6-6c-0.4-3.1,0.6-6,1.9-8.7
		c2.3,0.3,4.7,0.4,7,0C711.6,291.7,715.8,290.7,719.7,292.7c-1.4,0.9-3.1,0.9-4.6,1.5c-2.9,0.2-5.9,0-8.8,0.1
		c-1.4,0-3.1-0.5-3.7,1.5c-0.2,1.6,0.7,2,2,2.1c3.3,0.3,6.6,0.4,9.8-0.7c1.5-0.2,1.4-1.6,1.8-2.6C717,293.2,718.7,293.6,719.7,292.7
		z"/>
	<path fill="#FFFFFF" d="M393.6,314.8c1,0.3,2,0.7,3,1c0.8,3.1,3.1,3.4,5.8,3.3c5.8-0.1,11.4-2.3,17.3-0.6c3,0.9,6.3,0.7,8.9,2.8
		c0.3,0.4,0.3,0.9,0,1.3c-8,1-16,2-24,2.9c-4.6-0.9-9.4,0.4-14-0.7c-0.3-0.2-0.4-0.5-0.3-0.9c-0.1-1.1,3.5-0.9,1-3.4
		C390.4,319.8,391.9,316.5,393.6,314.8z"/>
	<path fill="#A14944" d="M407.6,274.8c-3.2-0.1-5.3-1.5-4.8-4.8c0.4-3.3,3.4-2.2,5.2-2.1c4.3,0.4,8.5,1.2,12.9,0.9
		c1.9-0.1,4,0.1,3.7,2.7c-0.3,2.2-0.2,5-3.4,5.2c-3.1,0.2-6.3,0-9.5,0C410.4,275.7,409.5,274.3,407.6,274.8z"/>
	<path fill="#E0E0C7" d="M976.6,316c-4,0.3-6.5,4.8-11,3.8c-3.3-1.4-6.5-4.7-10-0.3c-0.4,0.5-1.6,0.3-2.4,0.3c-8.7,0-17.3,0-26,0
		c-1.2,0-3.2,0.3-3.1-1.5c0-1.8,1.9-1.4,3.2-1.4c5.7,0,11.3,0,17,0c1.8,0,3.7,0.4,5.3-0.8C958.6,316,967.6,316,976.6,316z"/>
	<path fill="#FFFFFF" d="M187.4,190.1c-0.6-9.1-3.5-18.2-0.9-27.5c0.7-0.5,1.3-0.5,2,0.1c3.3,7.3,3.9,15,4.8,22.8
		c0.2,2.2-1.1,3.3-2.6,4.4C189.6,190.1,188.5,190.5,187.4,190.1z"/>
	<path fill="#A14944" d="M792.2,267.9c-8.8-0.6-16.4,0.4-24-0.8c-3.6-0.6-7.4,1.2-11,2.6c-4.1,1.6-8.4,2.6-11.5-2.2
		c-0.6-0.9-2.1-1.6-1.5-2.9c0.7-1.5,2.5-1.1,3.6-0.8c4.6,1.1,9.3,0.2,13.8,1c9.5,1.8,19.3-0.4,28.7,1.9
		C790.7,266.9,790.9,267.1,792.2,267.9z"/>
	<path fill="#FFFFFF" d="M202.8,274.7c-0.4,0.3-1.1,0.5-1.2,0.8c-1.1,5.7-7.3,9.4-7,15.9c0-3.2,0-6.4,0-9.6
		c-1.9-2.2-0.6-4.7-0.5-7.1c0.1-1.6-0.1-3.2,0.6-4.7c2.5-2.7,1.3-5.9,1.3-8.9c0-2-0.7-3.9-0.5-5.9c0.2-1.3,1.4-2.1,2-3.1
		c5-0.7,1.7,3.3,2.8,4.8c-0.2,1.9-0.8,3.9,0.3,5.7C202,266.5,202.6,270.6,202.8,274.7z"/>
	<path fill="#A14944" d="M874.6,261c0.6,2.3,2.5,1.6,4.1,1.8c-6.9,2.2-11.7,8-18.3,10.8c-2.9,1.2-5.5,3-8.8,3.1
		c-2.1-2.8-5.2-2.7-8.2-3c4.3-1.3,8.5-2.6,12.8-3.8c3.7-1,7.1-2.4,9.8-5.3C868.2,262.2,871.7,262.1,874.6,261z"/>
	<path fill="#FFFFFF" d="M827.5,287.9c2.2,5,0.3,10.3,1,15.4c0.2,1.4-1,1.4-2,1.4c-2-0.1-4-0.1-6-0.2c-1.4,0-2.2-0.6-2.1-2.1
		c0.4-4.6-0.6-9.3,1.2-13.8C822.3,289.4,825,289.1,827.5,287.9z"/>
	<path fill="#A14944" d="M298.6,270c-1.1,2.9-0.1,6.8-4.1,8.3c-1.9,0.7-11.5-3.1-12.4-4.9c-0.8-1.7,0.1-2.6,1.5-3.1
		c4.1-1.3,8.2-2.5,12.4-3.5C298.4,266.2,299.3,267.6,298.6,270z"/>
	<path fill="#A29EA6" d="M923.5,267.6c5.1-3.4,10.8-4.2,16.8-4c2.9,0.1,4.6,1.8,5.4,4.3c0.7,2,1.9,4.5-1.1,5.9
		c-2.7,1.3-2.7-1.4-3.7-2.6c-0.7-0.8-2-2.5-2.5-1.2c-1.7,4.8-5.5,1.8-8.1,2.7c-1.9,0.1-3.8,0.1-5.6,0c-0.5-0.1-0.9-0.3-1.2-0.6
		C922.3,270.6,922.6,269.1,923.5,267.6z"/>
	<path fill="#A14944" d="M146.6,149.3c0.3,2.3-0.5,4.9-0.9,7.5c-0.3,2-1.1,2.8-3.1,3c-5.2,0.5-5.7-0.1-4.5-5.1
		c0.8-3.4,1.3-6.8,2.1-10.2c0.4-1.6,0.2-4,3-3.6c2.6,0.3,3.6,2.1,3.4,4.6C146.5,146.7,146.6,147.8,146.6,149.3z"/>
	<path fill="#A14944" d="M218.7,129.8c7.6,0.1,8.5,1.1,8.7,9.2c0.1,1.6-0.3,2.3-2.2,2.2c-7.3-0.2-11.9-2.8-12-7.2
		C213.1,129.1,216.5,129.7,218.7,129.8z"/>
	<path fill="#A14944" d="M143.6,213.8c0.7-2.7,1.3-5.3,2-8l0,0c2.9-0.2,2.6,1.5,2.1,3.5c-1.2,5.6-2.5,11.2-1.2,17
		c0.3,1.3,0,2.7,1.2,3.6c-0.3,2.6,0.6,5.4-0.9,7.9c-2.6,2.1-2.4,6-5.2,8c-2.5-2.4-1.8-5.2-1-7.9c1.6-5.5,1.9-10.9-1-16.1
		c-0.5-1.1-0.7-2.5,0.8-2.7C144,218.7,143.6,216.2,143.6,213.8z"/>
	<path fill="#FFFFFF" d="M152.6,270.2c0.1,2.3-6.8,10.2-8.7,10.3c-1.7,0.1-5.5-5.1-4.6-6.5c2-3.2,4-6.5,5.3-10.1
		c0.5-1.3,1.4-1.7,2.3-1.1C149.6,264.7,151.1,267.7,152.6,270.2z"/>
	<path fill="#FFFFFF" d="M303.6,311.9c3.9-2.9,8.3-3.6,13-3.1c0.5,1.3,1.6,1.8,2.8,2c0.4,1.8,0.6,3.7,1.3,5.3
		c1.5,3.4-0.1,4.4-3.2,4.5c-1.9-0.5-3.5,0.1-4.8,1.4c-0.4,0.2-0.8,0.4-1.2,0.6c-0.4-0.3-0.8-0.5-1.1-0.9c-1.5-2.2-4.5-4.4-0.8-6.9
		c-0.9,0-2.4,0.1-3.8-0.5C304.7,313.9,303.4,313.6,303.6,311.9z"/>
	<path fill="#A14944" d="M806.5,284.7c-0.7-3.8,0.3-5.3,4.7-5.1c5,0.3,9.7-2.6,14.9-2.1c0.8,0.1,1.9-2,3.2-3.4
		c0.8,3,2.5,4.1,5.5,3.9c4.6-0.4,9.2-0.1,13.8-0.1c-7.6,3-15.6,2.2-23.4,2.8C818.7,281.1,812.5,281.9,806.5,284.7z"/>
	<path fill="#FFFFFF" d="M585.3,301.6c1,0.1,1.9,0.2,2.9,0.3c0,0.3,0,0.6,0,0.9c-5.3,0-10.6,0.5-15.9-0.1c-5.8-0.6-10.4,3.3-16,3.6
		c-2.1,0.1-2.4,4.7-2.5,7.3c-0.2,6.2,1.1,7.1,7.5,7.3c8.1,0.3,16.2-1,24.3,0.7c-9.8,1.1-19.6-0.1-29.4,0.5c-1.9,0.1-2.8-0.7-3.1-2.4
		c-0.2-0.8-0.4-1.6-0.4-2.4c-1.3-13.8-1.3-14,12.3-15.2C571.6,301.5,578.4,301.7,585.3,301.6z"/>
	<path fill="#A14944" d="M170.5,77.7c0.7,4.2,3.5,8.5-2.1,11.8c-1.3,0.7-1.6,3.6-1.7,5.5c-0.3,5.8-1.8,11.5-3.7,16.8
		c-0.8,2.2-2.5,5.8-6.6,4.6c5.5-6.3,7.2-13.6,7.5-21.9C164.1,88.6,168.5,83.5,170.5,77.7z"/>
	<path fill="#A14944" d="M795.6,268.9c0.6,4.2-0.8,4.9-5.2,5.1c-10.6,0.6-21.2-1.4-31.8-0.3c-0.6-0.3-0.6-0.7,0-1.1
		c3.7-1.9,7.4-2.6,11.8-2.2c6.9,0.7,13.8,0.2,20.8,0.2C792.9,270.8,794.1,269.6,795.6,268.9z"/>
	<path fill="#FFFFFF" d="M187.7,201.8c-1.2-4.9,1.1-7.7,5.6-9.1c0.6,6.2,1,12.3,2,18.4c0.6,3.7-1.9,4.3-4.2,4.7
		c-3.7,0.6-1.8-2.5-2.3-4c0.3-0.8,0.6-1.5,1.6-1c-0.1-0.1-0.1-0.1-0.2-0.2c-0.5-0.4,0.2,0.1-0.3-0.4
		C188.3,207.6,190.3,204.1,187.7,201.8z"/>
	<path fill="#DFDDCB" d="M888.1,286.9c0.7,0.3,2.1,0.4,2.2,0.9c1.1,4.8,6.4,7.1,6.7,12.6c0.1,3.4,3.5,5.4,7.1,3.9
		c2-0.8,3.1-1,3.5,1.4c0.3,1.7,1.5,1.9,2.9,2.2c4.4,0.9,8.7,1.9,13.1,2.9c0.3,0.5,0.2,1-0.3,1.4c-1.3,0.1-2.7,0.4-3.9-0.3
		c-4.5,0.4-8.6-1.2-12.8-2.2c-1.4-0.5-2.1-2.6-4.1-1.6c-6.1-2.7-10.4-7-11.1-14C891.1,291.3,890.2,288.9,888.1,286.9z"/>
	<path fill="#FFFFFF" d="M170.6,182.7c1.8,3.3,3.6,6.6,5.5,9.9c-0.2,0.4-0.6,0.7-1,0.9c-3.6,0.6-5.1,3.7-7.3,6
		c0.2,1,1.2,1.6,1.4,2.6c0.1,0.7,0,1.3-0.5,1.9c-1.3,0.4-2.1-0.7-3.2-1.2c-1.4-1.3-2.8-2.7-4.2-4c-2.7-2.5-2.8-5.2-0.6-8
		c1.9-1.1,4.8,1.5,6.1-1.8C168.7,187.3,167.4,183.7,170.6,182.7z"/>
	<path fill="#A14944" d="M238.6,220.8c-0.9-2.6-1.6-5-5.3-3.2c-1.3,0.6-2.3-1-3.3-1.8c-2.4-1.9-4.7-4.2-8-4.5
		c-1.2-0.1-2-0.7-2.4-1.5c-2.5-4.7-5.8-9.1-5-14.9c3.4,0.6,2.2,4.2,3.8,6c0.7,6.9,1.3,7.6,8.4,8.1
		C233.2,209.4,238.5,214.7,238.6,220.8z"/>
	<path fill="#A14944" d="M300.4,277.5c0.9,2.8,3.8,6.9-3,4.8c-0.6-0.2-1.6-0.1-1.8,0.3c-2.4,3.3-4.9,3-8,0.8c-2-1.4-3.3,0.1-4.1,2.1
		c-0.4,1.1-1.4,1.4-2.5,1c-1.2-0.4-1.3-1.3-1.2-2.4c0.7-6.5-0.3-7.8-7.1-9.3c2.8-2.1,4.8-3.6,7.7,0.8
		C284.9,282.4,295.6,283,300.4,277.5z"/>
	<path fill="#FFFFFF" d="M170.7,173.8c-1.5-4.4,6.6-19.9,10.9-20.8c0.6,0.6,0.7,1.4,0.5,2.2c-0.1,0.4-0.7,0.8,0.1,1.2
		c0.2-0.5,0.6-0.7,1.1-0.8c1.3,0.3,0.7,1.5,1.1,2.2c-0.6,2-1.2,4.1-1.8,6.1c-1.1,1.6-0.3,3.8-1.9,5.2c-2.2,0.3-2.9-1.1-3.4-2.9
		c-0.2-0.6,0.9-1.3-0.1-1.8c-1.1,1.5,0.2,2.5,0.7,3.6c0.8,1.7,1.5,3.4,0.4,5.2c-1.2,2-2.9,0.8-4.5,0.4
		C172.7,173.4,171.7,174.1,170.7,173.8z"/>
	<path fill="#FFFFFF" d="M154.5,208.6c0.4-2.5,0-5.4,3.1-6.6c1.8,1.7,1.5,6,5.8,4.7c0.9,0.6,1.3,1.5,1.6,2.5c2,5.6,3.5,11.1-1.5,16
		c-1.6-1.8-3.1-3.6-4.7-5.4c0.3-0.8-0.2-1.5-0.4-2.3c-0.3-0.8-1-1.3-1.6-1.8c-0.3-0.3-0.5-0.7-0.7-1.1
		C155.8,212.5,153.3,211,154.5,208.6z"/>
	<path fill="#A14944" d="M219.4,319.9c1.2-0.7,2.2,2,3.3,0.3c0.8-1.1,0-2.2-0.8-3.1c-1.4-1.5-2.2-3.5-0.4-4.7
		c1.8-1.2,2.8,1.1,3.7,2.3c1.8,2.2,5.1,4,1.8,7.8c-0.9,1-0.3,3.7,1.6,4.7c3.6,1.8,4.6,5.3,5.8,8.7C228,332,223.4,326.2,219.4,319.9z
		"/>
	<path fill="#A14944" d="M199.6,215.8c-0.3,0-0.6,0-0.9,0c-2.2-15.7-1.4-31.7-5.1-47.2c-0.2-1-0.5-1.9-0.8-2.9c2-1.6,3.8-2,3.8,1.4
		c0,5.9,0.7,11.7,2.9,17.3c0.3,0.9,0.4,2.1,0.1,3C196.5,196.9,200.4,206.3,199.6,215.8z"/>
	<path fill="#A14944" d="M686.6,275.8c-4.6,3.5-10.3,2.8-15.5,3.8c-6.7,1.4-13.7,1.2-20.4,3.3c-2.6,0.8-5.5,0.6-8.3-0.2
		C656.7,277.8,671.5,275.9,686.6,275.8z"/>
	<path fill="#FFFFFF" d="M714.6,307.8c1.6-0.6,4.3,3.9,5-1c-1.3-1.7-1.2-3.3,0-5c0.6-0.3,1.2-0.6,1.8-1c-1.1,10.8-1.1,10.8-11.8,11
		c-1.3,0-2.7,0-4,0.1c-8.4,0.3-8.4,0.3-7.8-8.2c2.9,2.5,6.4,2.6,10,2.5C710.1,306.2,712.7,305.5,714.6,307.8z"/>
	<path fill="#FFFFFF" d="M235.6,370.8c5.5,2.6,11.2,2.8,17,1c0.7-1.1,1.8-1.3,2.9-1.4c1.5,0,2.9-0.6,4.4-0.6c0.2,0,0.4,0,0.6,0
		c2.1,0.1,4.2,0.1,6.2,0.2c-15.1,8.2-35.3,5.2-47.3-6.9c-1.5-1.5-2.6-3-1.7-5.2c1.4,0.2,1.5,0.9,0.8,1.9c3.1,1.1,5.8,2.7,7,6
		C229.6,366,232.6,368.5,235.6,370.8z"/>
	<path fill="#FFFFFF" d="M797.2,303.7c0,0.4,0,0.8,0,1.2c-0.9,2.1-3.3,1.3-4.8,2.3c-2.4-1.8-4.1,1.3-6.3,0.9c-2.3-3-0.6-6.4-1.1-9.5
		c2.1-3.1,3.7-6.3,8.1-7c2.4-0.4,2.9,0.1,2.8,2.4C795.8,297.3,796,300.6,797.2,303.7z"/>
	<path fill="#BFB46B" d="M931.5,277.1c1.4,0.2,2.9,0.4,4.3,0.6c-0.5,1.1,0.2,2.1,0.6,3c0,2.9,0.8,4.7,4.1,2.8c0.6,0.1,0.9,0.5,1,1.2
		c-5.5,4.4-9.4,3.9-15.9-2c-0.2-1.2-2.1-1.9-0.9-3.4c1-0.6,2.4-0.7,3-1.9C928.9,277.1,930.2,277.5,931.5,277.1z"/>
	<path fill="#FFFFFF" d="M170.7,173.8c1.1-1.4,1.4-5.2,4.2-1.2c0.5,0.7,1.3,1.2,2.1,0.4c0.8-0.8,0.3-1.8,0.2-2.8
		c-0.3-2.2-3-3.3-2.2-5.9c0.7-2.3,1.5-1.5,2.5-0.4c0.6,0.6,0.6,1.3,0,2c0.6,1.3,1.7,2.3,3,3c2.3,6.1-0.2,11.2-3.1,16.7
		c-2.9-2.8-3.1-6.5-5.7-8.7C171.4,175.8,171.1,174.8,170.7,173.8z"/>
	<path fill="#FFFFFF" d="M491.6,316.8c0-3.6-0.2-7.3,0.1-10.9c0.4-4.2-1.4-5.6-5.4-5.2c-1.6,0.2-3.3,0.4-4.7-0.9
		c1.2-1.1,2.8-0.1,4-0.8c3.8,0.2,7.6,0.3,11.2,1.7c2.4,0.9,3.6,2.4,3.4,5.2c-0.3,2.9-0.2,5.9,0,8.9c0.2,3.5-1.3,4.9-4.7,4.5
		c-0.6,0-1-0.3-1.2-0.8c2.3-3.4,1.2-7.3,1.5-11c-1.1,3.4,0.7,7.1-1.2,10.3C493.1,318.8,492.2,318.1,491.6,316.8z"/>
	<path fill="#A14944" d="M209.6,177.8c-1.6-1.9-0.8-4-0.5-6.1c0.6-4.9,1.6-9.8-1.4-14.4c-1.9-2.8,0.7-4,2.3-5
		c3-1.8,8.8-0.3,10.6,2.9c1.4,2.6,5.3,1.2,6,4.4c-3.6-1.1-7.1-2.7-11-3.2c-1.8-0.2-3.3-0.6-4.2,1.4c-0.8,4.6-0.1,9.2-0.4,13.8
		C210.9,173.8,211,176,209.6,177.8z"/>
	<path fill="#FFFFFF" d="M150.7,261.8c-0.5-0.6-1-1.2-1.5-1.9c-1.1-1.9-0.6-4.1-1.3-6.1c0.2-0.8,0.4-1.5,0.6-2.3
		c4.7-1.2,0-3.2,0.4-4.7c0.2-0.7,0.4-1.5,0.6-2.2c2-0.6,3.7,0.2,5.3,1.1c0.3,0.3,0.6,0.6,0.9,0.8c2.8,3.3,3,6.7,0.9,10.4
		c-1.2,2.1-0.6,4.9-2,7C152.8,263.9,152.2,262,150.7,261.8z"/>
	<path fill="#DFDFC5" d="M923.6,311.7c0-0.3,0-0.6,0-0.9c1.5-1.5,3.4-1,5.2-1c10.2-0.1,20.5,0.3,30.7-0.3c2.9-0.2,5.7,0,8.5,0.4
		c-0.2,0.6-0.3,1.3-0.5,1.9c-9.7,1.1-19.4,0.2-29.1,0.5c-2.5,0.1-4.9,0-7.4,0C928.5,312,925.9,312.9,923.6,311.7z"/>
	<path fill="#A14944" d="M703.5,264.8c-0.3,0.1-0.6,0.3-0.9,0.4c-2.2,0.6-5.6-1.6-6.5,1.6c-1,3.4,3.1,3,4.6,4.6
		c2.1,2.2,4.2,5.1-0.3,8c-0.7-6.5-5.3-6.2-10-5.7c0.3-0.9,0.6-1.9,1-2.8c0.9-2.2-1.1-5.9,1.6-6.7
		C696.2,263.3,700.1,262.8,703.5,264.8z"/>
	<path fill="#A14944" d="M229.6,156.8c-2.6-0.5-2.8-2.9-2.9-4.7c-0.2-5.4-3.9-5.5-7.6-5.2c-6.3,0.5-9-2.3-8.5-9.3
		c1.9,3.1,4.6,5.2,8.1,6.1C229.4,146.1,229.4,146,229.6,156.8z"/>
	<path fill="#FFFFFF" d="M208.6,309.8c-0.3,0.7-1,1.5-0.9,2.1c0.5,4.6-1.9,6.1-6.1,5.9c-1.4-1.3-1.1-3,0.2-3.8
		c2.8-1.8,2.4-4.3,2.3-6.9c-0.2-1.2,0.5-2.2,0.3-3.4c1.4-1.6,2.8-3.1,4.8-5.4c1.3,5.8,2.3,10.7,3.4,15.5c-1.5,1-2,1-2.6-0.1
		C209.3,312.5,210,310.7,208.6,309.8z"/>
	<path fill="#FFFFFF" d="M196.6,254.8c1.7,4,0.4,8.5,1.6,12.6c0.6,2.2-1.1,2.4-2.6,2.4c-0.6,0.8-1.1,1.7-2.3,0.9
		c-0.9-2,0.9-3.8,0.2-5.5c-0.4,1.2,0.9,3.4-1.9,3.6c-0.3-3.4-0.5-6.9-0.8-10.3c-0.2-2.1,0.3-3.5,2.6-3.9
		C194.5,254.2,195.5,253.9,196.6,254.8z"/>
	<path fill="#FFFFFF" d="M311.5,321.8c0,0.3,0,0.5,0,0.8c-4.8,2.5-8.7,6.1-12.1,10.2c-0.9-2.5-0.4-4.8,1.1-7c0.9-1.9,0.5-3.6-1-5
		c-1.2-2-0.6-3.6,1-5c0.2,0,0.4,0.1,0.7,0.1C305.2,316.9,309,318.3,311.5,321.8z"/>
	<path fill="#FFFFFF" d="M163.5,225.1c1.9-5.4,1.8-10.9,0.1-16.3c1.6-0.8,2.8,0.4,4,1c0.9,0.4,1.4,1.2,1.7,2.1c-0.2,1.2,0.4,2.1,1,3
		c-1.3,4.5-2.6,9-4,13.6C164.7,227.8,164.1,226.4,163.5,225.1z"/>
	<path fill="#FFFFFF" d="M651.7,312.9c-1.4-0.2-2.9-0.2-3.1-2.1c1.7-1.8,3.3,0,5,0c1.9-0.3,5.1,1.2,4-3c-2.3-4.9,0-9.3,1.4-13.8
		c1.1-1,2.4-0.9,3.6-0.3c0.7,2.9,0,5.7-0.4,8.5c-0.3,1.7-0.2,3.2,0.5,4.7c1.5,4.6,0,6.7-5,6C655.7,312.7,653.7,312.9,651.7,312.9z"
		/>
	<path fill="#FFFFFF" d="M196.6,231.6c0,0.3,0.1,0.7,0.1,1c0.7,1.7,0.2,3.4,0.4,5.2c-1.2,3.4-3.7,6.4-4.2,10.1
		c-0.2,0.4-0.5,0.8-0.9,1.1c-0.4,0.2-0.9,0.2-1.3-0.1c-0.1-5.1-0.1-10.3-0.2-15.4c-1-3-0.1-5.9,0.3-8.8c0.1-1,1-1.8,2.1-1.8
		c1.4,0,1.1,1.3,1.2,2.2c0.2,2.2-0.4,4.2-0.5,6.1c0.8-2.5,0.1-5.5,0.9-8.4c2.3-0.1,1.3,1.7,1.6,2.8
		C196.3,227.4,195.5,229.6,196.6,231.6z"/>
	<path fill="#FFFFFF" d="M797.2,303.7c-2.3-0.5-1.3-3.9-4-4.5c-1.6-0.4-0.1-1.2,0.8-1.6c1-0.3,1.5-1.2,0.3-1.6
		c-5.6-2.2,1.1-2,0.2-3.9c-1.6,1.3-4.8-0.9-4.7,3.7c0.1,2.8-2.6,1.7-4.2,2c-0.8-0.4-0.3-1.5-0.9-2c-0.5-1.9,0.3-2.5,2.1-3.1
		c10.5-3.7,10.7-3.6,10.7,7.1C797.4,301.1,797.3,302.4,797.2,303.7z"/>
	<path fill="#FFFFFF" d="M167.6,189.8c-0.6,4.4-0.8,4.4-6.9,1c1.7-5.3,4-10.2,7.3-15.7c0.8,2.3,1.3,3.9,1.9,5.5
		C168.5,183.6,168.4,186.8,167.6,189.8z"/>
	<path fill="#A14944" d="M426.5,277.7c0.1,1.9,1.4,3.9-2.8,3.7c-2.9-0.2-6.3,1.1-9.5,1.5c-6.5,0.9-10.1-2.8-13.7-7
		c6.3,3.3,13,4.5,20.1,4C423,279.8,424.9,279.3,426.5,277.7z"/>
	<path fill="#A14944" d="M209.6,177.8c1.7-6.5,0-13.4,1.8-19.9c0.8,8.9-1.2,17.9,1.4,26.7c1.6,5.5,5.7,10.1,5.6,16.2
		c-2.4-1.2-2.2-4.2-3.8-6C212.9,189.1,209.7,183.9,209.6,177.8z"/>
	<path fill="#A14944" d="M399.7,275.7c-1.4-0.5-2.5-1.7-2-3c1.2-3.6-0.9-4.6-3.6-4.7c-3-0.1-6.8-1.8-8.2,3.1
		c-1.1,3.8-1.8,7.7-3.9,11.1c-0.5,0.8-0.5,2.2-1.8,2.1c-1.4-0.2-1.6-1.6-1.7-2.7c2.7-3.8,5.1-7.8,6.1-12.3c0.4-1.9,1.2-2.6,2.9-2.4
		c0.8,0,1.7,0,2.5,0.1C399.1,266.9,399.1,266.9,399.7,275.7z"/>
	<path fill="#FFFFFF" d="M831.7,295.8c-0.1-2.6-1.3-6.6,0.5-7.4c2.9-1.2,6.8-0.4,10.3-0.4c1.1,0,1.1,1.1,1.1,1.9
		c0.3,5,0.5,10,0.8,14.9c-0.5,0.3-1,0.3-1.5,0c-2.5-1.9-1.5-4.8-1.9-7.3c-0.5-1.7-0.1-3.6-1.7-5.5
		C837.6,294.8,834.8,295.6,831.7,295.8z"/>
	<path fill="#FFFFFF" d="M433.6,306.8c-4,0.3-8,0.7-12,1c-0.9,1.5-2.3,2.4-4.1,2.4c-6.3,0.1-12.6,0.1-18.9,0c-1.2,0-2.3-0.4-3-1.5
		c0-0.4,0.1-0.8,0.1-1.2c13.7,0,27.5-0.4,41-2.8c1.9-0.3,3.9-0.5,5.9-0.8c1.4,0.8,4.1-0.4,4.1,2.6
		C442.4,308.2,438,308.2,433.6,306.8z"/>
	<path fill="#FFFFFF" d="M714.6,307.8c-3.6,0-7.2-0.3-10.8,0.1c-3.4,0.3-5.2-0.9-6-4.1c-0.4-1.5,0.6-2.7,0.9-4
		c0.9,3.6,3,5.1,6.8,4.6c2.3-0.3,4.6,0,7,0C714.9,304.4,715.8,305.4,714.6,307.8z"/>
	<path fill="#FFFFFF" d="M831.7,295.8c0.9-0.5,0.6-2.7,2.7-1.8c0.7,0.3,3,0.3,2.4-1.9c-0.8-3,1.5-2.2,2.8-2.3
		c1.8-0.2,2.7,0.4,2.3,2.6c-0.2,1.4,0.3,2.9,0.6,4.4c-0.8,1.6-2,2.6-3.8,2.4c-2.5-0.3-3.7,1.4-5.1,2.8c-3-0.9-0.5-3.7-1.9-5.2
		C831.7,296.5,831.7,296.1,831.7,295.8z"/>
	<path fill="#FFFFFF" d="M223.4,336.8c-0.4-2.9,0.5-6.4-3.6-7.6c-0.9,0.6-0.1,1.1,0.3,1.5c0.6,0.8,1.5,1.7,0.2,2.5
		c-0.6,0.4-1.6,0.5-2.3,0.3c-1.2-0.3-1.2-1.3-1-2.4c0.4-2,1.8-4.3-1.4-5.3l0,0c0-3-3.4-4.8-3-8c-0.7-1-0.7-1.8,0.8-2
		c2.1,5.3,5.9,9.4,9.5,13.6C225.1,332,225.9,334.1,223.4,336.8z"/>
	<path fill="#A14944" d="M267.5,286.6c0.4,2.5-0.5,4.4-2.3,6.2c-3.9,3.8-7.7,7.8-12.8,10C255.3,295.4,262,291.5,267.5,286.6z"/>
	<path fill="#A14944" d="M902.5,270.9c-3.2-4.5-7.2-7.7-12.7-9c2.3,0,4.5,0,6.8,0c1.5,1.4,3.3,0.9,5,0.9c2.4,2,4.7,4.3,7.9,5.1
		C908.9,272.6,905.6,271.6,902.5,270.9z"/>
	<path fill="#98979C" d="M918.6,273.8c-4.3,2.4-4.2,5.2-1.1,8.8c1.3,1.5,3.4,2.6,4.2,5.7c-5.2-1.8-7.4-6.8-11.7-8.6
		c-1.2-0.5,0.2-2.1,1-2.8c1.8-1.7,3.8-3.2,5.7-4.8C917.6,272.3,918.4,272.7,918.6,273.8z"/>
	<path fill="#FFFFFF" d="M604.6,318.7c4.4-1.9,8.5-5.4,13.6-4.5c7.7,1.4,8,1.5,9.4-5.5c0.3-0.5,0.6-0.5,0.8,0
		c1.5,6.8,1.5,6.9-5.2,7.8C617,317.4,610.8,318,604.6,318.7z"/>
	<path fill="#FFFFFF" d="M428.6,322.6c0-0.3,0-0.6,0-0.9c4.1-3.4,9.1-4.2,14.2-4.4c5.5-0.1,6.1-0.8,6.3-6.3c0.1-1.9-0.9-3.4-1.8-5
		c-0.4-0.8-0.9-1.6-1-2.5c3.7-2.1,5.1-0.5,5.3,3.2c0.1,1.8,0.1,3.6,0.1,5.4c0.3,7.5,0.3,7.5-7,8.4
		C439.3,321.4,433.9,322,428.6,322.6z"/>
	<path fill="#A14944" d="M863.1,262c-1.6,3-3.7,4.1-6.2,4.8c-4.6,1.3-9.3,2.5-14,3.7c-1.1,0.3-2.6,0.7-2.9-0.9
		c-0.4-1.7,1.1-1.6,2.2-1.8C849.2,266.5,856,264.6,863.1,262z"/>
	<path fill="#FFFFFF" d="M130.5,284.6c1-1,1.9-2,2.9-3c1.9,0.1,3.6-0.5,5.4-1c2.1,1.3,2.8,3,0.3,4.4c-2.8,1.5-4.9,4.1-8.1,5
		c-1.8,0.3-3.9,1.9-4.5-1.5c0.3-0.3,0.6-0.6,0.9-0.9C128.9,287.2,129.9,286.1,130.5,284.6z"/>
	<path fill="#FFFFFF" d="M279.6,345.8c0-3.7,0.2-7.4-0.8-11c1.9-0.1,1.8,1.6,2.9,2c1.6,3.8,1.7,7.8,1.9,11.8
		c0.1,1.1-0.3,2.3,0.8,3.1c1.1,1.3,1,2.8,0.2,4.2c-0.6,1.2-1.5,1.9-2.9,1.8c-1.4-1.7-2.5-3.6-3-5.8
		C277.9,349.7,277.5,347.5,279.6,345.8z"/>
	<path fill="#FFFFFF" d="M171.7,176.8c3.1,1.3,3.8,4.3,5.5,7.4c3.2-4.9,3-10.2,3.3-15.4c0-1.9,0.5-3.6,1.9-5
		c0.4,7.6,0.1,15.1-3.8,22c-0.8,0.6-1.5,0.6-2.3,0.1C173.9,183.4,173,179.9,171.7,176.8z"/>
	<path fill="#A14944" d="M639.5,283c-1,2.1-3.7,2.8-4.4,5.3c-0.2,0.9-1.3,1.2-2,0.3c-2.8-4.3-6.6-2.8-10.3-2c-2.3,0.5-4-0.1-4.3-2.7
		C625.6,283.4,632.6,284.1,639.5,283z"/>
	<path fill="#9E9FA3" d="M930.6,271.8c3.2-0.6,6.5-0.8,8.5-4c0.4,1.5,2.1,1.1,3.1,2.2c1,1.2,0.2,3.6,2.4,3.8c-4.3,1.5-8.7,0.9-13,0
		C931.1,273.2,930.7,272.5,930.6,271.8z"/>
	<path fill="#FFFFFF" d="M742.6,294.8c-0.3-0.3-0.7-0.6-1-0.8c12.1-0.4,12.2-0.4,11.8,11.5c0,1.5,1.9,4.2-1.7,4.5
		c-1.6-2.2-0.2-4.9-1.1-7.2c0.2-2.6-1.7-3.7-3.5-5C745.6,296.8,743.7,296.3,742.6,294.8z"/>
	<path fill="#FFFFFF" d="M491.6,316.8c1,0.3,2,0.7,3,1l0,0c0,0.3,0,0.7,0,1c0.4,0.2,0.5,0.4,0.4,0.5c-0.1,0.2-0.3,0.3-0.4,0.3
		c-11.3-2.2-22.6-2.2-34-1c-1.6-0.7-3.4,0.2-5-0.7c-0.1-0.2-0.2-0.4-0.2-0.6c0-0.1,0-0.2,0.1-0.3c9.6-0.1,19.1-0.1,28.7-0.2
		C486.6,316.8,489.1,316.8,491.6,316.8z"/>
	<path fill="#DEDCCC" d="M860.6,281.8c-0.3,0-0.7,0-1,0c-0.8-0.9-1.9-1.7-1-3.1c4.4-4.2,10.7-5.7,15-10.1c-0.2,2.5-1,4.6-2.9,6.2
		C868.8,279.4,863.9,279.4,860.6,281.8z"/>
	<path fill="#FFFFFF" d="M194.6,222.8c0.1,3.9-0.3,7.9,0.9,11.8c0.3,1,0.4,2.6-1.2,2.8c-1.7,0.2-1.4-1.4-1.6-2.5
		c-0.8-3.7,1.8-7.3,0.4-11.8c-2.2,3.6-2.4,6.9-2.5,10.3c-1-2.1-0.8-4.4-0.7-6.6c0.9-2.4-0.9-5.4,1.9-7.3c1.1-0.3,2.1-0.6,3.1,0.2
		C195.1,220.7,195.4,221.8,194.6,222.8z"/>
	<path fill="#FFFFFF" d="M227.6,343.8c-0.3,0.3-0.7,0.7-1,1c-1.7,1.4-1.2,4.5-4,5c-0.8,0-1.3-0.5-1.8-1c1.7-3.3,3.4-6.6,5-9.9
		c1.9-4.1,3.8-3.8,6-0.2c0,0.2-0.1,0.4-0.1,0.7C230.7,341.2,228.9,342.2,227.6,343.8z"/>
	<path fill="#FFFFFF" d="M863.6,304.8c-1.6,3.3-3.3,6.6-6.5,10c1-8.1,1.9-15,2.7-22c2.4-1.1,2.7,0.8,2.4,2.1
		C861.7,298.4,863,301.5,863.6,304.8z"/>
	<path fill="#FFFFFF" d="M833.6,301.8c-0.3-2.8,0.8-4.3,3.8-4c1.8,0.2,3.6-0.1,5.2-1c0.2,2.7-0.5,5.5,1,8c-0.3,3-2.9,0.7-4,1.7
		c-2.1-0.5-4.2-1.1-6.4-1.6c0.5-0.9,1.8-0.4,2.3-1.2c0.5-0.8,1.6-0.9,2.2-1.5c-1.4-0.1-1.8,1.2-2.6,1.9c-0.7,0.3-1.4,0.3-2-0.3
		C832.9,303,833,302.4,833.6,301.8z"/>
	<path fill="#A14944" d="M166.6,169.8c-4-4.9-1.3-10.4,5.9-12C171.3,162.2,169.2,166.1,166.6,169.8z"/>
	<path fill="#FFFFFF" d="M369.6,325.6c-6.1-0.3-12-2-18-3c-0.2-4.1,2.6-1.7,4.2-1.9c4.2,1.1,8.3,0.1,12.4-0.8c0.7-0.1,1.5,0,2.1,0.4
		c1,1.7,3.7,2.2,3.4,4.8C372.4,325.6,370.9,324.9,369.6,325.6z"/>
	<path fill="#A14944" d="M187.7,104.8c-0.1,1.2-0.1,2.3-0.2,3.5c-0.2,2.9-0.4,5.7,3.7,6.1c0.9,0.1,1.6,1.6,2.3,2.4
		c-5.7,0-8.4-3-7.6-9.1c0.5-3.9,1.2-7.9,0.6-11.8c-0.3-2.5,1.5-2.5,2.9-3.1C189.3,96.9,187.2,100.6,187.7,104.8z"/>
	<path fill="#DFDBCC" d="M1002.6,308.8c-6.7,5.4-14.1,8.2-22.9,6.6c7.9-0.2,14.3-4.6,21.2-7.5
		C1001.7,307.7,1002.2,308.1,1002.6,308.8z"/>
	<path fill="#A14944" d="M902.5,270.9c2.1-1.5,5.6,0,7-3c1.5,1.5,2.7,3.1,1.1,5.2c-1.1,1.5-2.4,3-4.5,2.6
		C903.6,275.2,903.1,273,902.5,270.9z"/>
	<path fill="#FFFFFF" d="M863.6,304.8c-2.5-0.1-2.8-1.6-3.2-3.9c-0.4-2.7,2.1-5.7-0.6-8.2c0.2-0.4,0.3-0.8,0.5-1.2
		c2.6-2,3.8-0.7,3.9,2c0.1,1.4-0.6,2.8,0.1,4.2C864.4,300.2,866.2,302.7,863.6,304.8z"/>
	<path fill="#FFFFFF" d="M150.7,261.8c1.5-1.1,2.4,0.2,3.7,1.2c0.1-5.7,5-10.6,1.4-16.4c3.5,1.9,4,4.8,2.6,8.3
		c-1.5,3.8-1.6,8.1-4.2,12.1C152.8,265,151.7,263.4,150.7,261.8z"/>
	<path fill="#FFFFFF" d="M204.4,303.7c1.2,0.7,1.2,1.9,1.2,3.1c-0.7,0.8-0.9,1.7-1,2.7c-0.1,1.3-0.2,2.6-1.6,3.3
		c-2,0.9-2.1-1.6-3.4-2c-2.1,0.6-2.7,2-2,4c-0.6,0.6-1.4,0.4-2.1,0.2c-1.4-2.3-1.4-4.1,1.4-5.7C199.6,307.8,201.9,305.6,204.4,303.7
		z"/>
	<path fill="#A14944" d="M709.4,264c3-0.2,5.9-0.4,8.8-0.5c2.4-0.1,1.9,1.2,1.1,2.5C716.5,270.1,712.8,269.4,709.4,264z"/>
	<path fill="#FFFFFF" d="M281.6,322.8c-0.7,3,1.1,7.6-5.1,7c-1.9-0.2-1.1,2.7-1.4,4.2c-0.4,1.9-0.3,3.9-0.4,5.9
		c0.3,0.3,0.4,0.5,0.2,0.7c-0.1,0.2-0.2,0.3-0.4,0.3c-1.5-5.2-3.3-10.4,2.8-14.3c1.7-1.1,2.9-3.1,4.3-4.7c0.3,0.2,0.4,0.4,0.3,0.6
		C281.8,322.7,281.7,322.8,281.6,322.8z"/>
	<path fill="#A14944" d="M173.6,61.8c0.5-0.1,1.2-0.4,1.4-0.2c2.3,2.4,2.6,5.2,1.6,8.2c-1.1,3.3-1.2,7.5-6.1,7.9
		C173.4,72.8,176.3,67.8,173.6,61.8z"/>
	<path fill="#FFFFFF" d="M193.9,302.8c3-0.2,3.3-2.4,3.7-4.7c0.5-3.4-0.2-6.9,1.4-10.1c2.6,3.7-0.5,8.1,1.6,11.8
		c0.3,1.6-0.5,2.6-1.7,3.4c-1.5,0.9-2.6,2.5-4.2,3.3C193.4,305.5,193.9,304.1,193.9,302.8z"/>
	<path fill="#FFFFFF" d="M515.6,321.5c7.6-1.7,15.3-0.3,23-0.8c1.6-0.6,2-2.1,2.6-3.5c4.3-2.8,4.4,0.7,5,3.4
		c-0.1,0.5-0.3,0.9-0.7,1.1C535.5,322.5,525.6,322.1,515.6,321.5z"/>
	<path fill="#A14944" d="M113.6,293.8c-1-2.8,1.8-3.2,3.1-4.1c1.2-0.8,2.4-1.6,3.2-2.7c1.7-2.3,3.1-4.8,6.6-3.2
		C123,288.1,118.9,291.7,113.6,293.8z"/>
	<path fill="#FFFFFF" d="M174.6,192.8c0.5,0,1-0.1,1.5-0.1c1.6,3.5-1.1,6.2-1.6,9.3c-0.4,2.4-1.5,4.7-2.3,7.3
		c-2.6-1.8-4.6-4.1-6.6-6.5c1,0.3,2.1,0.6,3.1,1c2.9-0.4,2.8-2.9,3.3-4.9C172.4,196.7,172.4,194.3,174.6,192.8z"/>
	<path fill="#A14944" d="M267.6,330.9c2-5.4,4.8-9.9,11-11.1C276.7,325.3,271.2,327.1,267.6,330.9z"/>
	<path fill="#A14944" d="M331.6,287.2c0,1.5-0.7,2.6-2.4,2.6c-4.3-0.1-8.5,0.5-13.6-0.6c3.8-2.7,7.8-0.1,10.8-2.1
		C328.2,287.1,329.9,287.1,331.6,287.2z"/>
	<path fill="#E2E0D3" d="M930.6,311.8c12.3,0,24.6,0,36.9,0c-0.4,2.1-2.1,1.2-3.1,1.2c-11.2-0.1-22.5-0.3-33.7-0.4
		c-0.4-0.2-0.5-0.4-0.4-0.6C930.3,311.9,930.4,311.8,930.6,311.8z"/>
	<path fill="#FFFFFF" d="M662.7,306.9c-3,1.4-3-0.7-2.7-2.5c0.7-3.3,1.7-6.5,2.6-9.7c0.6-0.6,1.2-0.6,1.7,0.1
		C663.5,298.9,664,303,662.7,306.9z"/>
	<path fill="#FFFFFF" d="M293.6,338.8c1.5-1.3,2.1-3.5,4.4-3.9c-3,5.7-4.9,12-9.2,17c-0.2-0.1-0.4-0.3-0.6-0.4
		c-0.9-1.7-0.1-3.2,0.3-4.8c0.5-1.3,1.2-2.5,1.8-3.7C291.3,341.5,291.6,339.5,293.6,338.8z"/>
	<path fill="#DCD7CA" d="M1002.6,308.8c-0.6-0.3-1.1-0.6-1.7-0.9c0.4-0.9,0.9-1.7,1.9-2.2c2.2-1.1,4.7-1.9,6.2,0.4
		c1.7,2.5,0.3,4.7-2.3,6c-0.2-0.9-0.3-1.9-0.5-2.8C1005.4,305.4,1004,306.9,1002.6,308.8z"/>
	<path fill="#A14944" d="M193.3,49.2c-4.2,0-8.8,2.1-13-2.1C185.2,46.2,189.3,47.5,193.3,49.2z"/>
	<path fill="#FFFFFF" d="M281.6,322.8c0-0.3,0-0.6,0-0.9c2.4-2.7,5.4-4.4,8.9-5.1C289,320.9,287.6,325.1,281.6,322.8z"/>
	<path fill="#A14944" d="M134.6,225.8c0.4,2.8,0.5,5.6-0.6,8.3c-0.5,1.3,0,3.4-2.1,3.5c-2.8,0.2-0.8-2.8-2.2-3.7
		C133.6,232.6,132.2,228.1,134.6,225.8z"/>
	<path fill="#A14944" d="M126.6,283.8c-0.3-5.2,3-8.8,7.3-7.8C132.1,279.2,129.4,281.5,126.6,283.8z"/>
	<path fill="#FFFFFF" d="M254.3,340.6c-6,2.6-12.2,0.9-18.3,0.8c-1.1,0-2.3-0.4-3.4-0.6c-1.7,0.2-1.6-0.7-1.1-1.9
		c0,0,0.3-0.4,0.3-0.4C239.1,341.2,246.7,341,254.3,340.6z"/>
	<path fill="#FFFFFF" d="M494.6,319.6c0-0.3,0-0.5,0-0.8c4,0.4,5.4-1.6,5-5.3c-0.5-4.4,1.7-9.3-2.8-12.8c3-0.4,4.6,0.5,4.3,4
		c-0.3,3.1,0,6.2-0.1,9.3C500.8,320.7,502.2,320.3,494.6,319.6z"/>
	<path fill="#FFFFFF" d="M213.4,315.8c-0.3,0.7-0.5,1.3-0.8,2c-2.5,0.9-3.8,0-4-2.6c-0.1-1.8,0-3.6,0-5.4c2.1-0.6,1.7,1.2,2,2.2
		c0.3,1,0.1,2.5,2,1.7C212.8,314.4,213.1,315.1,213.4,315.8z"/>
	<path fill="#FFFFFF" d="M198.6,302.8c0.7-1,1.3-2,2-3c0.7-1.6,1.4-3.2,2.2-5.1c1.3,1,2.2,2.5,4,2.2c-2,2.6-4.5,4.7-7.1,6.7
		C199.1,303.4,198.7,303.2,198.6,302.8z"/>
	<path fill="#FFFFFF" d="M126.4,288.5c1.2,1.5,3,1.2,4.5,1.5c-3,2.5-6.7,3.6-10.3,4.9c-1,0.2-1.3-0.2-1-1.1
		C121.9,292,124.1,290.3,126.4,288.5z"/>
	<path fill="#FFFFFF" d="M157.6,231.8c0.4-0.7-0.7-3.7,1.8-1.2c0.9,0.9,1.5,2.2,2.2,3.2c1.3,0.1,2.6,0.3,2.1,2.2
		c-0.1,0.6-0.2,1.2-0.3,1.8c-3.1,1.5-2.8-2.6-4.8-3C156.2,234.5,156.8,233.1,157.6,231.8z"/>
	<path fill="#A14944" d="M377.6,281.9c-0.7,3.1-3.6,3.9-5.9,4.6c-2.4,0.8-3.1-1.9-4.1-3.6C371,283.6,374.4,283.3,377.6,281.9z"/>
	<path fill="#BBB76E" d="M941.5,284.8c-0.3-0.4-0.7-0.8-1-1.2c0.2-1.5,0.7-3,0.6-4.4c-0.1-2.9,2-1.7,3.1-1.7c2.3,0,1.7,1.8,1.1,2.8
		C944.3,282,943.4,283.8,941.5,284.8z"/>
	<path fill="#A14944" d="M646.6,277.8c3.8-3.3,7.9-5.3,13-3C655.2,275.5,651.1,277.8,646.6,277.8z"/>
	<path fill="#FFFFFF" d="M827.5,287.9c-1,1.1-3.5,1-2.6,3.5c0.3,1,0.3,2-1,2.2c-1.4,0.2-2.1-0.6-2.2-2c-0.1-1.4-0.5-2.6-2.1-2.9
		C822,286.4,824.9,288,827.5,287.9z"/>
	<path fill="#FFFFFF" d="M804.6,289.9c-0.2,0.8-2.3,1.1-1,2.1c1,0.7,2.4,0.5,0.5,1.9c-2.4,1.7-2.4,4.4-2.5,7c-0.3,0.5-0.6,0.5-0.9,0
		c-0.1-2.4,0-4.9-0.2-7.2C800,290.2,801.5,289.2,804.6,289.9z"/>
	<path fill="#FFFFFF" d="M393.6,314.8c1.6,2.5-3.4,5.2,0.2,7.8c0.2,0.1-2.4,0.8-3.6,1.4c-0.2-0.4-0.3-0.8-0.5-1.2
		c0.9-2.2-0.4-4.7,0.8-7C391.3,314.8,392.5,314.8,393.6,314.8z"/>
	<path fill="#FFFFFF" d="M369.6,325.6c1.2-1.1,2.6-0.7,4-0.8c3.1-2.6,6.5-2.6,10-1c0.9-1.3,1.9-2.7,2.8-4c0.7,6.3,0.7,6.3-5.4,6.2
		C377.2,325.9,373.4,325.7,369.6,325.6z"/>
	<path fill="#E4DFD3" d="M991.5,282.8c0.8,1.5-0.5,2-1.3,1.8c-5.8-1.7-11.7-0.1-17.5-0.8c-0.1-0.3-0.1-0.5-0.1-0.8
		C978.9,282.9,985.2,282.8,991.5,282.8z"/>
	<path fill="#FFFFFF" d="M726.6,296.8c2.1,2.3,0.8,5.4,1.8,8.1c0.3,0.9,0.4,2.2-1,2.3c-1.2,0.1-1.5-1.1-1.7-2.1
		c-0.2-1.4,0.2-3-0.9-4.3c0-0.3,0-0.7,0-1C725.6,298.9,725.5,297.5,726.6,296.8z"/>
	<path fill="#FFFFFF" d="M931.5,277.1c-1.2,1-2.6,0.6-3.9,0.7c-0.7,1.2-2.5,0.6-3,2c0.1,1.1,2.1,1.5,1,3c-2.1-1.5-4-3.2-5.8-5.9
		C924.1,276.3,927.8,276.7,931.5,277.1z"/>
	<path fill="#FFFFFF" d="M505.6,302c0,0.9,0,1.8,0,2.8c0,3.3,0.2,6.5-0.1,9.8c-0.2,2.7,0.8,4.7,3,6.2c-3.1,0.6-4.6-0.2-4.3-3.7
		c0.3-4.1,0-8.2,0.1-12.4C504.3,303.7,503.6,302.1,505.6,302z"/>
	<path fill="#FFFFFF" d="M215.3,354.8c-1.7-2.1,0.1-4,0.2-6c-1-1.5-0.4-2.4,1-3c2.1-1.1,1.1-4.7,4.1-4.9
		C218.9,345.5,217.1,350.1,215.3,354.8z"/>
	<path fill="#FFFFFF" d="M274.5,340.8c0-0.3,0.1-0.7,0.1-1c1.7,1.9,1.1,5.8,4.9,6c-0.3,2-0.7,4.1-1,6.1
		C276.3,348.5,275,344.9,274.5,340.8z"/>
	<path fill="#FFFFFF" d="M303.6,311.9c0.8,0.9,1.9,0.9,3,0.9c0.4,4.4-0.7,4.9-6,3c0,0,0,0,0,0c-1-0.6-2-1.2-3-1.8
		C299.6,313.3,301.6,312.6,303.6,311.9z"/>
	<path fill="#FFFFFF" d="M167.6,189.8c-1.2-3.5-1.3-6.8,2.3-9.1c0.8,0.5,0.7,1.3,0.7,2.1C168.9,184.8,170.6,188.3,167.6,189.8z"/>
	<path fill="#FFFFFF" d="M148.9,246.8c0.4,0.3,0.9,0.5,1.2,0.9c1,1.5,5.3,0.5,3.5,4c-1.5,3-3.3-1-5-0.2
		C148.6,249.9,148.7,248.4,148.9,246.8z"/>
	<path fill="#A14944" d="M758.5,272.7c0,0.4,0,0.7,0,1.1c-3.4,1.8-7.4,0.9-11,2.3c-2.3,0.9-1.4-2.1-2-3.3
		C749.9,274.8,754.2,273.6,758.5,272.7z"/>
	<path fill="#FFFFFF" d="M191.6,268.8c1.9-1.9,0-4.9,2.1-7.4c1.7,3.4,0.4,6.4-0.2,9.4c0.8,0.9,0.9,1.8,0.3,2.8
		c-3.1,0.9-1.1-2.2-2.2-2.8C191.7,270.1,191.6,269.4,191.6,268.8z"/>
	<path fill="#FFFFFF" d="M262.4,338.7c1.6,0.3,3.2,0.6,5.2,2.4c-4.3,1.1-7.6-0.5-11-1.2C258.5,339.6,260.5,339.2,262.4,338.7z"/>
	<path fill="#A14944" d="M448.5,271.8c-1.6-3.3-4.7-2.8-7.6-2.9c-1.8-0.1-3.6-0.1-5.5-0.1c3.7-1.7,7.7-0.9,11.6-1
		C450.6,267.7,449.4,269.9,448.5,271.8z"/>
	<path fill="#A14944" d="M231.5,295.8c-5-0.9-3.7-4.8-3.9-8C230.2,289.8,231.5,292.5,231.5,295.8z"/>
	<path fill="#A14944" d="M174.5,154.8c-3-0.9-1.6-2.7-0.8-4.1c1.5-2.7,3.7-1.9,5.9-0.8C177.3,150.8,175.4,152.3,174.5,154.8z"/>
	<path fill="#FFFFFF" d="M756.8,298.8c0.8,0.9,0.8,1.9,0.8,3c1.6,1.4,0.6,4.3,3,5.3c0.8,0.4,1.4,1.1,2,1.7c1.7,0.2,3.5-0.4,5,0.8
		C755.9,310.4,755.9,310.4,756.8,298.8z"/>
	<path fill="#FFFFFF" d="M854.7,307.3c-0.1-1.8-0.8-3.1-2.7-3.6c-1.2-0.3-2.1-1-2.2-2.3c0-0.7,0.3-1.3,1.1-1.4
		c1.4-0.1,2.5,0.4,3.3,1.6c0.5,0.7,0.8,1.4,1.2,2.1C855.5,305,855.5,306.3,854.7,307.3z"/>
	<path fill="#FFFFFF" d="M196.6,238.8c0-2.1,0.1-4.2,0.1-6.3c0.6,3.8,1.1,7.5,1.7,11.3c-0.4,2.3-0.8,4.6-4,4.1
		c-0.3-0.4-0.5-0.9-0.6-1.4C194.2,243.7,195.2,241.2,196.6,238.8z"/>
	<path fill="#FFFFFF" d="M196.4,321.1c3.1,2.1,3.8,5.4,2.4,10.6C197.5,328.3,196.3,324.9,196.4,321.1z"/>
	<path fill="#FFFFFF" d="M154.5,208.6c0.1,1.4,1.1,2.2,2.2,2.9c1.8,1.2,1.1,2.2-0.1,3.3c-0.4,0.8-1.3,0.5-1.9,0.8
		C150.6,213.3,154.1,210.9,154.5,208.6z"/>
	<path fill="#DEDACA" d="M898.5,272.8c-2.8-1.1-6.6-1.3-5.9-5.9C896.2,267.2,897.6,269.7,898.5,272.8z"/>
	<path fill="#FFFFFF" d="M162.6,206.8c-1.6,3.4-3.1,1.4-4.4-0.2c-1-1.3-0.5-3.1-0.6-4.7c0.7,0,1.4,0.1,2,0.1c0.8,1.5,2,2.7,2.9,4.2
		C162.5,206.4,162.5,206.6,162.6,206.8z"/>
	<path fill="#A14944" d="M869.2,258.6c3.4-2.5,5.7-3.8,8.7-4.1C876.2,257.9,875.9,258.1,869.2,258.6z"/>
	<path fill="#FFFFFF" d="M218.6,359.8c-0.3-0.6-0.5-1.3-0.8-1.9c0.3-0.7,0.6-1.4,0.8-2.1c0.3-0.5,0.6-0.5,0.9,0
		c1.2,1.2,2.7-3.1,3.6,0C224.2,359.7,220.3,358.6,218.6,359.8z"/>
	<path fill="#FFFFFF" d="M267.6,369.7c-1.5-5.9,4.1-3.1,6-4.9c0.6,0.6,0.5,1.2,0,1.8C271.6,367.6,269.6,368.6,267.6,369.7z"/>
	<path fill="#A14944" d="M170.5,58c0.1-0.1,0.2-0.3,0.2-0.4c1.1-1.8,2.8-2,4.6-1.5c0.3,0.1,0.8,0.8,0.7,1.1
		c-0.5,1.8-1.9,2.5-3.6,2.7C171.8,59.2,171.1,58.6,170.5,58z"/>
	<path fill="#FFFFFF" d="M191.7,270.8c0.6,1,1.3,2,1.9,3c0.7,0.2,1.4,0.6,2,1c-0.3,2.3-0.7,4.7-1,7c-0.3,0-0.6,0-1,0
		c-1-1.5-0.3-3.7-1.9-5C191.7,274.8,191.7,272.8,191.7,270.8z"/>
	<path fill="#A14944" d="M744.6,271.8c-1-1.7-3.6,2.3-3.8-0.8c-0.1-1.3-3.5-3,0-4.3C742.3,268.2,744.2,269.5,744.6,271.8z"/>
	<path fill="#FFFFFF" d="M787.6,307.7c1.1-1-0.6-3.2,1.5-3.8c2.4-0.6,2.3,1.9,3.5,2.8c0.4,0.2,0.5,0.4,0.4,0.6
		c-0.1,0.2-0.2,0.3-0.4,0.3c-1.3,0.3-2.7,0.6-4,0.9C788.1,308.5,787.8,308.2,787.6,307.7z"/>
	<path fill="#9EA09C" d="M930.6,271.8c1.6,0.1,1.5,1,1,2.1c-2.6-0.1-5.3-0.2-7.9-0.3c-0.6-0.6-0.5-1.2,0-1.7
		C925.9,271.8,928.2,271.8,930.6,271.8z"/>
	<path fill="#FFFFFF" d="M864.4,297.8c-1.5-0.8-1.1-2.1-0.9-3.4c0.3-2.4-0.7-3.4-3.1-2.8c0.3-1-0.6-3.3,1.5-2.6
		c1.8,0.6,3.7,2.1,3.5,4.6C865.2,295,864.7,296.4,864.4,297.8z"/>
	<path fill="#FFFFFF" d="M779.4,294.7c-5.2,1.7-10.5,1.8-15.7-0.1C769,294.7,774.2,294.7,779.4,294.7z"/>
	<path fill="#E1DDD2" d="M858.5,278.7c0.3,1,0.7,2.1,1,3.1c-2.5,0.1-4.9,0.1-6.9-1.7C854.5,279.2,856.4,278.3,858.5,278.7z"/>
	<path fill="#FFFFFF" d="M138.8,280.6c-1.4,2.6-3.2,2.8-5.4,1C135.1,280.6,135.8,274.5,138.8,280.6z"/>
	<path fill="#FFFFFF" d="M281.5,357.7c0.7-0.6,1.4-1.3,2.1-1.9c1.8-1.2,0.5-6.1,4.9-4.1c0,0,0.3,0.2,0.3,0.2c-1,2.5-3.1,4.3-4.9,6.2
		C283,359.1,282,359.7,281.5,357.7z"/>
	<path fill="#FFFFFF" d="M355.6,321.8c-1.5-0.6-3.2-2-4,0.8c-1.1,0.3-2.1-0.3-3-0.8c1.9-4,5.3-1.6,8.1-2
		C357.2,320.9,356.1,321.2,355.6,321.8z"/>
	<path fill="#D4CEAB" d="M787.6,307.7c0.3,0.3,0.7,0.6,1,0.8c-2.9,0.8-4.4,0.1-4.1-3.3c0.3-3.1,0.1-6.3,0.2-9.5
		c0.3,0.7,0.6,1.3,0.9,2C786.6,301.1,783.5,305.1,787.6,307.7z"/>
	<path fill="#FFFFFF" d="M548.3,309.7c0.1-1,0.2-1.9,0.2-2.9c0.3-0.3,0.6-0.3,0.8,0c0,3,0,6,0,9c-0.4,0.3-0.8,0.4-1.3,0.3
		C544.3,313.3,544.3,312.8,548.3,309.7z"/>
	<path fill="#E2DECC" d="M930.6,293c-2.4,2.5-4.8,4-6.9-0.4C926,292.8,928.3,292.9,930.6,293z"/>
	<path fill="#FFFFFF" d="M273.6,353.8c0.4-0.4,0.9-0.7,1.3-1.1c1.3,1.5,2.2,3.1,2.5,5.1C275.9,356.7,271.8,358,273.6,353.8z"/>
	<path fill="#E5DDD1" d="M929.6,343.8c1.7,0.1,3.5-0.4,5,0.8c-5,0.4-10,0.4-15,0C922.8,342.9,926.3,344.2,929.6,343.8z"/>
	<path fill="#A14944" d="M143.6,162.9c-2,4.2-4.6,2.4-7.3,0.8C138.6,162,141.1,162.8,143.6,162.9z"/>
	<path fill="#9F9CA8" d="M923.6,271.8c0,0.6,0,1.2,0,1.7c-1.7,0.1-3.3,0.2-5,0.3c-0.7-0.6-1.3-1.2-2-1.8c0.6-0.4,1.2-0.9,1.8-1.3
		C920.3,270.4,922.1,270.2,923.6,271.8L923.6,271.8z"/>
	<path fill="#9EA09C" d="M923.6,271.8c-1.8,0.1-3.5-0.1-5.1-1c1.3-1.6,3.3-2.2,5-3.1C924.4,269,923.8,270.4,923.6,271.8z"/>
	<path fill="#FFFFFF" d="M273.6,366.6c0-0.6,0-1.2,0-1.8c2.2-1.1,3.2-3.5,5-5c1.6,1.3,1.3,2.4-0.3,3.5
		C276.7,364.3,275.2,365.5,273.6,366.6z"/>
	<path fill="#A14944" d="M820.8,268.7c-1.8,1.1-3.7,1.4-6,0.1C817.2,267.2,819,267.9,820.8,268.7z"/>
	<path fill="#FFFFFF" d="M191.7,276.8c2.8,0.8,1.5,3.2,1.9,5c-0.3,2.3,0.6,4.8-0.8,7C192.5,284.8,192.1,280.8,191.7,276.8z"/>
	<path fill="#A14944" d="M270.8,277.8c1.2,1,3.1,1.7,2.1,3.9c-0.6,1.4-1.8,1.9-3.3,1.1C270,281.2,270.4,279.5,270.8,277.8z"/>
	<path fill="#A14944" d="M561.7,281.7c-2.5,0.5-5.8,2.6-5.1-2.8C558.3,279.6,560.4,279.8,561.7,281.7z"/>
	<path fill="#FFFFFF" d="M687.6,291.8c-0.3-0.3-0.6-0.5-0.9-0.8c2.6-0.1,5.2-0.3,7.7-0.3c3-0.1,2.7,1.4,1.5,3.3
		c-0.8,0-1.6-0.1-2.4-0.3c-0.8,0-1.7,0-2.5-0.2C689.6,293.4,688.5,292.8,687.6,291.8z"/>
	<path fill="#FFFFFF" d="M183.6,155.8c-1.5,0.9-0.5,2.7-1.5,3.9c-1.4-2.2-2.1-4.3-0.5-6.6c0.8-0.1,1.6-0.3,2.1,0.6
		C184.2,154.4,184.2,155.1,183.6,155.8z"/>
	<path fill="#FFFFFF" d="M187.7,201.8c3.2,2.3,1.6,6.1,2.8,9l0,0c-0.6,0.3-1.1,0.6-1.7,1C188.5,208.4,188.1,205.1,187.7,201.8z"/>
	<path fill="#FFFFFF" d="M390.6,324.9c4.7,0.2,9.4-0.9,14,0.7C399.9,325.2,395.1,327.5,390.6,324.9z"/>
	<path fill="#FFFFFF" d="M207.2,349c1.6-0.8,3.1-1.6,5.1-2.6c0.3,2.8-3.2,3.3-2.8,5.7C208.3,351.3,207.6,350.3,207.2,349z"/>
	<path fill="#A14944" d="M567.8,285.7c-3.1,0.3-5.7-0.2-6.1-4C564.1,282.4,566,283.9,567.8,285.7z"/>
	<path fill="#FFFFFF" d="M633.6,298.8c-2.4,3.4,0.3,7.6-1.8,11c-0.1-3.2-0.3-6.5-0.4-9.7c0-1.4,0-2.7,2-2.4c0.2,0.2,0.4,0.5,0.3,0.7
		C633.7,298.6,633.6,298.8,633.6,298.8z"/>
	<path fill="#FFFFFF" d="M219.6,355.8c-0.3,0-0.6,0-0.9,0c-0.1-2.6,1.5-4.7,2.2-7c0.6,0.3,1.2,0.7,1.8,1
		C221.6,351.8,220.6,353.8,219.6,355.8z"/>
	<path fill="#A14944" d="M407.6,274.8c0.6-1,1.3-2.2,2.5-1.8c1.6,0.6,1,2.5,1.4,3.7C410,276.6,408.6,276,407.6,274.8z"/>
	<path fill="#A14944" d="M553.6,299.7c1.2-3.1,3.7-1.9,5.8-1.6c0.6,0.1-0.4,0.9-0.7,1.5C557,299.6,555.3,299.7,553.6,299.7z"/>
	<path fill="#DAD7C8" d="M887.7,291.7c-2.4-0.7-4.9-1.3-7.3-2C883.4,288.4,886,288.2,887.7,291.7z"/>
	<path fill="#FFFFFF" d="M693.6,291.8c0.8,0.7,1.5,1.5,2.3,2.2c-0.1,0.6-0.2,1.2-0.3,1.8c-0.7,0.7-1.3,1.3-2,2
		c-1,0.2-1.4-0.3-1.8-1.1C691.2,294.6,692.7,293.3,693.6,291.8z"/>
	<path fill="#FFFFFF" d="M730.7,310.8c3.9-1.7,7.9-1.3,11.8-0.2C738.6,310.6,734.7,310.7,730.7,310.8z"/>
	<path fill="#A14944" d="M447.7,276.8c-2.5-0.3-1.7-2.7-3.3-4.2c1.7,0.1,2.9,0.2,4,0.2C448.2,274.1,448,275.4,447.7,276.8z"/>
	<path fill="#282731" d="M901.6,262.7c-2.1,2-3.8,2.4-5-0.9C898.3,261.9,900.1,261.3,901.6,262.7z"/>
	<path fill="#DCD9C9" d="M930.6,311.8c0,0.3,0,0.6,0,0.8c-3.8,0.1-7.6,0.5-11.2-0.7c1.4-0.1,2.8-0.1,4.2-0.2
		C925.9,311.7,928.2,311.7,930.6,311.8z"/>
	<path fill="#FFFFFF" d="M839.6,306.5c1-1.4,2.8-0.9,4-1.7c0.3,0,0.5,0,0.8,0c0.1,1.2,0.1,2.5,0.2,4.1
		C842.7,308,841.2,307.3,839.6,306.5z"/>
	<path fill="#A14944" d="M323.6,263.8c0,1.5-0.2,2.8-2,3c-0.8-0.5-1.9-1.1-1.4-2.1C320.8,263.2,322.4,264,323.6,263.8z"/>
	<path fill="#FFFFFF" d="M628.4,308.7l-0.4,0c0,0-0.4,0-0.4,0c0-3.5,0-7.1,0-10.6C629,301.6,628,305.2,628.4,308.7z"/>
	<path fill="#FFFFFF" d="M847.6,297.9c1.7,3.6,1.4,7.2,0.2,10.9C847.7,305.1,847.6,301.5,847.6,297.9z"/>
	<path fill="#A14944" d="M349.6,280.8c-0.2,0-0.3-0.1-0.5-0.1c-0.1-0.1-0.3-0.2-0.4-0.3c2.5-1,5-2.7,7.8-0.7
		C354.2,280.1,351.9,280.5,349.6,280.8z"/>
	<path fill="#DCD9C9" d="M902.5,308c0.6-1,1.1-2.3,2.6-1.8c1.7,0.5,0.6,2.4,1.5,3.4C905,309.6,903.7,309,902.5,308z"/>
	<path fill="#FFFFFF" d="M726.6,296.8c0,1.4,0,2.7-1.8,3c0-2.3-0.3-4.6,0.8-6.7C725.7,294.4,725.3,295.8,726.6,296.8z"/>
	<path fill="#FFFFFF" d="M633.6,298.8c0-0.4-0.1-0.8-0.1-1.1c0.7-0.2,1.5-0.4,2.2-0.5c1.7,0.6,3.6-0.5,5.1,0.8
		C638.6,299.6,636.4,301.2,633.6,298.8L633.6,298.8z"/>
	<path fill="#FFFFFF" d="M640.6,297.8c-1.7-0.2-3.4,0.4-4.9-0.7c3.2-0.1,6.5-0.3,9.7-0.4c-0.3,0.8-1,1-1.8,1.1
		C642.6,298.6,641.6,298.6,640.6,297.8z"/>
	<path fill="#FFFFFF" d="M198.6,302.8c0.3,0.2,0.6,0.5,1,0.7c-1.6,1.1-2.5,3.4-4.9,3C195.3,304.6,196.6,303.3,198.6,302.8z"/>
	<path fill="#FFFFFF" d="M154.8,245.7c-1.7-0.7-3.8,0.6-5.3-1.1C152.2,240.7,153.2,244.4,154.8,245.7z"/>
	<path fill="#FFFFFF" d="M147.9,253.8c2.3,1.6,1.2,4,1.3,6.1C146.7,258.3,147.4,256.1,147.9,253.8z"/>
	<path fill="#FFFFFF" d="M167.6,209.8c-1.5,0.1-2.8-0.3-4-1c-0.3-0.7-0.7-1.3-1-2c0,0,0,0,0,0c-0.1-0.9,0.1-1.4,1.1-1
		C165.2,206.8,166.7,208.1,167.6,209.8z"/>
	<path fill="#FFFFFF" d="M163.6,205.8c-0.4,0.3-0.7,0.7-1.1,1c-1.9-1-3.1-2.4-2.9-4.7C161.4,202.7,162.5,204.2,163.6,205.8z"/>
	<path fill="#DAD7C8" d="M875.6,291.8c-1.4,0.1-3.1,1.2-4-1c0.2-0.3,0.5-0.6,0.7-1c2,2.8,4.2-0.7,6.3,0.1
		C877.6,290.6,876.6,291.2,875.6,291.8z"/>
	<path fill="#FFFFFF" d="M154.7,215.6c0.6-0.3,1.3-0.5,1.9-0.8c0,0,0,0,0,0c1.4,0.5,2.8,1.2,3,3c-0.3,0.6-0.5,1.3-0.8,1.9
		C157.4,218.3,156,216.9,154.7,215.6z"/>
	<path fill="#FFFFFF" d="M664.3,294.9c-0.6,0-1.1-0.1-1.7-0.1c-0.8-1-1.9-0.9-3-0.9c-0.7,0.5-1.3,0.6-2,0c-0.3-0.3-0.7-0.5-1-0.8
		c2.1-0.1,4.2-0.3,6.3-0.4C664.7,292.5,664.6,293.6,664.3,294.9z"/>
	<path fill="#DAD7C8" d="M891.9,303.7c-2.9-1.1-4.4-2.9-3.2-6.1C889.7,299.6,890.8,301.6,891.9,303.7z"/>
	<path fill="#B5B4AA" d="M835.6,283c-3,1.5-6.2,1-9.3,0.7C829.3,282.7,832.5,282.9,835.6,283z"/>
	<path fill="#FFFFFF" d="M545.5,321.8c0-0.3,0.1-0.7,0.1-1c-0.7-1.2-0.9-2.6,0.6-3.3c1.3-0.6,2.1,0.4,2.5,1.5c0.5,1.2,0.1,2-0.8,2.7
		C547,321.8,546.2,321.8,545.5,321.8z"/>
	<path fill="#A14944" d="M154.5,117.7c1.1,5.3-2.5,1.7-4,2.1C151.6,118.6,153.1,118.1,154.5,117.7z"/>
	<path fill="#FFFFFF" d="M849.4,313.9c1.8-0.1,3.7-0.5,4.3,2C851,318,850.7,314.8,849.4,313.9z"/>
	<path fill="#FFFFFF" d="M194.6,247.8c2.1-0.6,2.9-2.3,3.8-4c1,3.3,0.3,5.5-3.8,5.1C194.3,248.5,194.3,248.2,194.6,247.8z"/>
	<path fill="#FFFFFF" d="M792.6,307.7c0-0.3,0-0.6,0-0.9c1.1-1.8,3.2-0.9,4.7-1.9C797.1,308.2,794.5,307.4,792.6,307.7z"/>
	<path fill="#FFFFFF" d="M191.6,219.8c-1.7,2-0.4,4.8-1.8,6.9c-0.1-2.4-0.9-4.8,0.3-7.1C190.7,219.3,191.2,219.4,191.6,219.8z"/>
	<path fill="#FFFFFF" d="M833.6,301.8c0,0.7,0,1.3,0,2c-1.1,0.6-1.4-0.3-1.9-1c0-2,0-4,0-6C833.2,298.1,831.9,300.5,833.6,301.8z"/>
	<path fill="#FFFFFF" d="M191.6,219.8c-0.5-0.1-1-0.1-1.5-0.2c1.8,0.1,3.7-4.1,5.4,0.1c-0.3,0.7-0.6,0.7-1,0.1
		C193.6,219.8,192.6,219.8,191.6,219.8z"/>
	<path fill="#FFFFFF" d="M163.6,236c-0.7-0.7-1.4-1.5-2.1-2.2c0,0,0-0.1,0-0.1c0.8-0.7,0.3-3.4,2.7-1.9
		C165,233.4,164.8,234.7,163.6,236z"/>
	<path fill="#FFFFFF" d="M195.5,315c0.6-1,1.3-0.4,2.1-0.2c0.1,1.6-0.2,3.1-1.8,4C195.7,317.5,195.6,316.2,195.5,315z"/>
	<path fill="#FFFFFF" d="M200.6,262.6c0,0.2,0,0.4-0.1,0.5c-0.2,0.2-0.4,0.3-0.7,0.5c-0.3-2.3-0.7-4.5,0.5-6.7
		C200.4,258.7,200.5,260.6,200.6,262.6z"/>
	<path fill="#FFFFFF" d="M547.8,321.8c0.3-0.7,0.5-1.3,0.8-2c-0.6-1.3-1.1-2.6,0-4c0.3,0,0.5,0,0.8,0c0.2,1.4,0.3,2.9,0.6,4.3
		C550.4,322.2,549.2,322.1,547.8,321.8z"/>
	<path fill="#DBD7C9" d="M973.5,303.8c0.7,0.2,1.7,0.3,1.6,1.3c-0.2,1.3-1.3,1.6-2.4,1.7C972.5,305.7,972.6,304.6,973.5,303.8z"/>
	<path fill="#FFFFFF" d="M936.4,280.8c-0.8-0.7-2.4-0.7-2.1-2.2c0.1-0.4,1-0.6,1.5-0.8C937,278.5,936.5,279.7,936.4,280.8z"/>
	<path fill="#FFFFFF" d="M194.6,219.8c0.3,0,0.6-0.1,1-0.1c0.3,2,0.5,4,0.8,6c-0.3,0.6-0.5,0.6-0.8,0c0-1.1,0-2.2-1-3
		C194.6,221.8,194.6,220.8,194.6,219.8z"/>
	<path fill="#D0CCAE" d="M707.6,291.1c-2.3,1.1-4.6,1.1-7,0C702.9,290.5,705.2,290.8,707.6,291.1z"/>
	<path fill="#FFFFFF" d="M549.4,306.8l-0.4,0c0,0-0.4,0-0.4,0c-0.7-0.9-1.3-1.9-2-2.8C549.4,303.1,550,304.3,549.4,306.8z"/>
	<path fill="#FFFFFF" d="M319.4,310.8c-1.7,0.5-3.1,0.5-2.8-2C318.5,308.1,319.6,308.4,319.4,310.8z"/>
	<path fill="#FFFFFF" d="M296.4,314.5c-1.2,1.6-2.4,3.3-4.8,1.7C293.2,315.6,294.8,315,296.4,314.5z"/>
	<path fill="#FFFFFF" d="M390.6,315.8c-0.3,2.3,0.7,4.8-0.8,7c-0.1-2.3-0.2-4.6-0.3-6.9C389.8,315.8,390.2,315.8,390.6,315.8z"/>
	<path fill="#FFFFFF" d="M190.7,248.8c0.3,0,0.6,0,0.9,0c1.1-0.2,2,0,2.7,1c-0.7,1.2-1.8,2.2-3,1.8
		C189.9,251.3,190.7,249.8,190.7,248.8z"/>
	<path fill="#C3BD9C" d="M196.6,254.8c-1.1,0-2.1-0.1-3.2-0.1c1-1.4,2.6-2,4.1-2.6C197.2,252.9,196.9,253.8,196.6,254.8z"/>
	<path fill="#FFFFFF" d="M164.3,231.8c-1.3,0-1.8,1.3-2.7,1.9c0.1-1.4-0.3-2.9,1-4C163.6,230.1,164,230.9,164.3,231.8z"/>
	<path fill="#C9C1A0" d="M312.7,321.9c1-2.5,2.7-2.6,4.8-1.4C316,321,314.4,321.5,312.7,321.9z"/>
	<path fill="#CFCAA9" d="M195.6,225.8c0.3,0,0.5,0,0.8,0c0.1,1.9,0.1,3.9,0.2,5.8C194.8,229.9,195.9,227.7,195.6,225.8z"/>
	<path fill="#FFFFFF" d="M684.4,291.7c-1.8,1.8-3.8,1.4-5.8,0.3C680.5,291.9,682.4,291.8,684.4,291.7z"/>
	<path fill="#FFFFFF" d="M723.8,304.8c1.2,2,1.2,3.9,0.1,5.9C723.8,308.8,723.8,306.8,723.8,304.8z"/>
	<path fill="#FFFFFF" d="M183.6,155.8c0.1-0.7,0.1-1.4,0.2-2.2c4.1,0.8,0.1,2.8,0.6,4.1C184.1,157.1,183.8,156.4,183.6,155.8z"/>
	<path fill="#DBD7C9" d="M974.7,291.8c1.2,2,1.3,4,0,6C974.7,295.8,974.7,293.8,974.7,291.8z"/>
	<path fill="#DAD7C8" d="M888.5,296.8c-1.9-1.4-1.3-3.3-0.9-5.1C888.9,293.2,888.6,295,888.5,296.8z"/>
	<path fill="#FFFFFF" d="M194.3,249.8c-1,0-2,0-2.7-1c0,0,0,0,0,0c1-0.6,1.1-2.7,3-2c0,0.3,0,0.7,0,1c0,0.4,0,0.8,0,1.1
		C194.6,249.3,194.5,249.5,194.3,249.8z"/>
	<path fill="#FFFFFF" d="M831.7,302.8c0.6,0.3,1.2,0.6,1.9,1c0.7,0,1.3,0,2,0l0,0c-0.8,0.4-1.5,0.7-2.3,1.1
		C831.4,305.2,831.4,304.1,831.7,302.8z"/>
	<path fill="#D1CCAA" d="M800.7,300.8c0.3,0,0.6,0,0.9,0c0,1.7-0.1,3.4-0.1,5C799.6,304.4,800.7,302.5,800.7,300.8z"/>
	<path fill="#CECBAA" d="M455.6,317.9c1.7-0.1,3.5-0.5,5,0.7C458.9,318.5,457,319.9,455.6,317.9z"/>
	<path fill="#FFFFFF" d="M849.5,287.6c-0.9,1-1.8,2.1-2.7,3.1C846.2,288.4,846.7,287.1,849.5,287.6z"/>
	<path fill="#FFFFFF" d="M130.5,284.6c0,2.1-1,3.1-3.1,3C128.1,286.3,129.1,285.3,130.5,284.6z"/>
	<path fill="#A14944" d="M817.3,284.2c-1.5,0.8-1.8,1.1-2.3,1.2c-0.5,0.2-1.2,0.6-1.4-0.3c0-0.2,0.6-0.6,1-0.8
		C815,284.2,815.5,284.3,817.3,284.2z"/>
	<path fill="#FFFFFF" d="M176.4,185.9c0.8,0,1.6-0.1,2.3-0.1c0.2,0.9,0.2,2.4-0.5,2.5C177,188.4,176.6,187.1,176.4,185.9z"/>
	<path fill="#FFFFFF" d="M170.4,214.8c-1.8-0.5-2.2-1.5-1-3C170.4,212.6,171,213.5,170.4,214.8z"/>
	<path fill="#67684D" d="M119.6,293.8c0.3,0.4,0.6,0.7,1,1.1c-0.9,0.8-2.2,1.6-3,0.5C117.2,294.8,118.7,294.1,119.6,293.8z"/>
	<path fill="#D1CDAB" d="M596.6,317.9c0.9,0.7,2.8-0.3,3,1.7C598.3,319.6,596.3,320.9,596.6,317.9z"/>
	<path fill="#A14944" d="M485,287.8c4.5-1.5,8.7,2.3,13.6,2.1c6.8-0.3,13.4-2.4,20.3-1.2c1.8,0.3,4.3-0.3,4.3,2.2
		c0,2.5-2.2,2.8-4.4,2.5c-13.2-2.2-26.6-2.1-40-2.7c-1.1,0-2.6,0.3-2.6-1.4c0-1.1,1.3-1.5,2.3-1.5
		C480.6,287.8,482.6,287.8,485,287.8z"/>
	<path fill="#A14944" d="M193.6,116.8c1.7,1.6,3.5,3.3,5.2,4.9C195.8,121.3,193.4,120.4,193.6,116.8z"/>
	<path fill="#DFDFC5" d="M860.6,281.8c1.9-4.4,6.9-4.3,10-7c1.1,3.9-2,8.2-5.7,7.8C863.4,282.5,862,282.1,860.6,281.8z"/>
	<path fill="#E2DECC" d="M930.8,296.4c2.3-0.2,4.4-0.4,6.5-0.5c1.1,0,2,0.5,2.1,1.7c0.1,1.4-0.7,2.1-2.1,2.2
		C934.7,299.9,932,300.1,930.8,296.4z"/>
	<path fill="#E1E1C2" d="M882,267.9c0.9,0.1,1.8,0.4,1.8,1.3c0,1.2-1.1,1.4-2.1,1.4c-0.9,0-1.7-0.4-1.7-1.3
		C879.9,268,880.9,267.9,882,267.9z"/>
	<path fill="#131412" d="M960.5,329.7c-6,3.2-12.7,3.5-19.1,5c-3,0.1-5.9,0.2-8.9,0.3c-3.1,0.8-6.3-0.3-9.4,0.7
		c-9.2-0.5-18.6,0.5-27.7-1.9c-8.4-2.1-11-5-11.9-13.6c-0.6-5.9-2.2-11.3-6.4-15.8c-1.8-1.9-2.9-4.4-4.3-6.6
		c1.3-1.3,2.1-1.4,3.4,0.3c5.5,7.3,10.3,14.7,10.5,24.5c0.1,5.9,5.2,7.3,10,8.6c2.1,0.6,4.2,0.8,6.4,0.7c8.6,1,17.2,0.1,25.8,0
		c0.6,0,1.1,0,1.7-0.1c1.6-1,3.3-0.7,5-0.2c1,0,2,0,3-0.1c1.5-1.2,3.5,0.1,5-0.7c4.6-0.1,9.1-0.6,13.1-3c1.7-1.8,3.8-3.1,5.7-4.6
		c1.4-1,3-2,4.3-0.3c1.6,2-0.1,3.4-1.5,4.5C963.9,328.5,962.5,329.8,960.5,329.7z"/>
	<path fill="#E1DFC6" d="M896.3,328.2c3.1-2.7,5.6-3.2,7.7-2.8c10,2,20-0.4,30-0.1c1.3,0,2.7,0,3.9,0.2c0.9,0.1,2.1,0.2,2.1,1.6
		c0,1.8-1.2,1.7-2.4,1.7c-4.9-0.3-10.1-0.8-14.8-0.4c-5.7,0.5-11.8-1-17.3,1.5C902.1,331.5,900.3,327.9,896.3,328.2z"/>
	<path fill="#E0E0C6" d="M890.3,323.2c-2-2-2.2-3.9-0.1-5.3c6.4-4.2,12.4-3.9,16.8,1C901.9,322.1,894.6,316.3,890.3,323.2z"/>
	<path fill="#E0DDCC" d="M960.5,329.7c1.8-1.4,3.6-2.7,5.4-4.1c0.7-0.5,1.1-1.3,0.3-2.1c-0.7-0.8-1.3-0.7-2.1,0
		c-2.3,1.8-4.7,3.4-7.4,4.4c2-3.5,4.5-6.4,8.8-7.1c1.1,0.2,2.2,0.6,3.4,0.7c1.1,0,2,0,2.4,1.2c0.3,1.2-0.4,1.8-1.2,2.4
		c-1.9,1.6-3.6,3.4-5.7,4.7C963.4,330.4,961.7,332.5,960.5,329.7z"/>
	<path fill="#E2DFC4" d="M888.6,310.1c0.2-1.4-0.1-3.5,1.8-2.9c1.8,0.6,3.3,2.5,3.7,4.4c0.4,2-2.2,3.2-3.2,3
		C888.5,314.3,888.9,311.8,888.6,310.1z"/>
	<path fill="#DADAC9" d="M928.9,331.9c-8.6,1.1-17.2,1.4-25.8,0c7.2-0.4,14.4,0.4,21.6-0.8C926.3,330.8,927.6,331.3,928.9,331.9z"/>
	<path fill="#DADAC9" d="M943.6,330.9c-1.6,1-3.3,0.9-5,0.7C939.7,327.9,942,331.3,943.6,330.9z"/>
	<path fill="#DADAC9" d="M935.6,331.7c-1.7,0.1-3.3,0.1-5,0.2C932.2,329.4,933.9,330.9,935.6,331.7z"/>
	<path fill="#FFFFFF" d="M233.6,347.8c-1.2-3,0.1-3.6,2.9-3.6c6.6-0.1,13.2,0.4,19.8-1c4.4-0.9,8,2.6,12.3,3.3
		c1.7,0.3,1.5,2.7,2,4.2c-0.9,1.6-1.8,2-3.6,1C256.5,345.5,245.1,346.3,233.6,347.8z"/>
	<path fill="#FFFFFF" d="M256.6,371.8c-1.3,0-2.6,0-4,0c-3.3-0.3-6.8,0.8-10.9-1.7c6.4-0.6,11.9,0.4,16.8-2.9c1.5-1,0.5,2.4,2.1,2.6
		c0,0,0,0,0,0C259.3,370.6,257.5,370.4,256.6,371.8z"/>
	<path fill="#FFFFFF" d="M235.6,370.8c-3.3-1.7-6.7-3.3-10-5c1-0.9-0.6-3.5,1.9-3.3c1.5,0.1,3.1,0.5,3.1,2.6
		C230.4,368.5,235.8,367.2,235.6,370.8z"/>
	<path fill="#FFFFFF" d="M227.6,347.8c1,0,2,0,3,0c-0.2,0.8-0.3,1.6-1.3,1.7C228,349.7,227.8,348.7,227.6,347.8z"/>
	<path fill="#FFFFFF" d="M270.6,353.8c0.3,0,0.7,0,1,0c-0.3,1.2-0.5,2.4-0.9,3.9C268.9,356,270.3,354.9,270.6,353.8z"/>
	<path fill="#A14944" d="M139.6,221.8c2.8,0.1,3.8,1.1,4.2,4.3c0.8,6.8-2.7,13.1-2.2,19.7c-5.6,1.7-4.8-3.4-4.7-5.6
		c0.1-4.7,2-9.2,0.1-14C136.3,224.7,137.8,222.7,139.6,221.8z"/>
	<path fill="#201F13" d="M992.1,301.8c-1.2-0.2-1.8-0.9-1.4-1.7c0.9-1.8,0.2-4.7,3-5.1c1-0.2,1.1,1.2,0.9,1.9
		C994.1,298.7,994.1,300.8,992.1,301.8z"/>
	<path fill="#E0E0C8" d="M935.6,342.8c-2-0.1-4-0.7-6,0c-9.6,0.1-19.2,0.1-28.8,0.6c-5.8,0.3-11.7-1.1-16.7-4.1
		c-2.4-1.4-3.8-4.4-5.5-6.7c-1-1.4,0.5-2.6,1.2-3.5c0.9-1.2,1.7,0.3,2.3,0.9c1.2,1.2,2.4,2.3,3.3,3.7c1.8,2.8,3.7,4.2,7.3,2.5
		c2.2-1,5.2-0.9,7.8,0.9c-1.6,1.7-3.8,1.5-5.6,2.8c4.2,0,8.4,0,12.6,0c0.6-0.9,1.5-1.4,2.5-1.4c6.1,0.1,12.2-0.6,18.2-0.3
		c1.7,0.3,3.4,0.1,5,0.2c1.1,0,2.2,0.2,3.1,0.9C937.5,340.8,936.4,341.7,935.6,342.8z"/>
	<path fill="#E2DFC6" d="M928.6,339.8c-3.9-2.1-7.7,0.6-11.6,0.1c-3.1-0.4-6.3-0.1-9.4-0.1c-1.4-1.9-1.8-3.1,1.4-3
		c5.4,0.2,10.9,0,16.3,0.1c4.4,0.1,8.9,0,13.2-1c0,2.1,4.1,1.1,3,4c-0.3,0-0.7,0-1,0c-1.3-0.6-2.7,0.3-4,0c-1,0-2,0-3,0
		C931.9,339,930.2,339,928.6,339.8z"/>
	<path fill="#E2DFC6" d="M923.1,335.7c3.1-1,6.3-0.8,9.4-0.7C929.5,336.5,926.3,335.5,923.1,335.7z"/>
	<path fill="#FFFFFF" d="M623,305.4c-1,0-1.3-0.5-1.2-1.2c0.1-0.4,0.6-0.9,0.9-0.9c0.7,0,1.2,0.5,1.1,1.2
		C623.7,304.8,623.3,305.1,623,305.4z"/>
	<path fill="#FFFFFF" d="M623.8,309.8c0.3,0.2,1,0.4,1.2,0.9c0.3,0.6-0.2,1.4-0.9,1.2c-0.6-0.1-1.1-0.7-1.4-1.3
		C622.3,310,623,309.9,623.8,309.8z"/>
	<path fill="#FFFFFF" d="M626.4,305.3c0-0.2,0,0.9,0,2.1C624.6,306.5,626.3,305.2,626.4,305.3z"/>
	<path fill="#FFFFFF" d="M199.6,310.8c1.5-1,1.5-1,2.9,1.1c1.8-1.3,0.6-4.4,3.1-5.1c-0.1,3.3,1.3,7.2-3.6,8.7
		c-0.3,0.1-0.3,1.5-0.4,2.3c-1.6,0.6-2.1-0.1-2-1.6C199.6,314.4,199.6,312.6,199.6,310.8z"/>
	<path fill="#FFFFFF" d="M215.6,325.8c0.9,2.2,0.2,3.8-2,4.2c-2,0.4-2.3-1.7-2.7-3c-0.5-1.4-0.6-2.9-0.9-4.5
		C213.2,321.6,213.6,325.1,215.6,325.8C215.6,325.8,215.6,325.8,215.6,325.8z"/>
	<path fill="#FFFFFF" d="M207.3,340c2,0.5,2.7,2,2.9,3.6c0.1,1.1-0.4,2.8-1.6,2.4c-1.8-0.5-2.6-2.3-2.8-4.1
		C205.6,340.8,206.2,340.1,207.3,340z"/>
	<path fill="#FFFFFF" d="M216.6,345.8c-0.3,1-0.7,2-1,3c-3.7-2.3-1.8-4.8-0.3-7.6C217.2,342.5,216.3,344.3,216.6,345.8z"/>
	<path fill="#FFFFFF" d="M675.7,307.3c-1.6,0-3.3,0.1-4.9,0c-0.9,0-2.1,0.1-2.1-1.5c0.1-1.1,0.7-1.9,1.8-1.9c3.5-0.1,6.9-0.1,10.4,0
		c0.8,0,1.8,0.3,1.9,1.3c0.1,1.2-0.7,1.9-1.7,2C679.3,307.3,677.5,307.2,675.7,307.3C675.7,307.2,675.7,307.3,675.7,307.3z"/>
	<path fill="#FFFFFF" d="M692.6,296.8c0.3,0.3,0.7,0.7,1,1c-1.1,2.8-2.6,2.7-5,0c-1.5-1.4-1.8-3.1-1-5c0-0.3,0-0.7,0-1
		c1.4,0.1,2.9-0.3,4,1C693.1,293.8,691.4,295.7,692.6,296.8z"/>
	<path fill="#FFFFFF" d="M688.6,310.5c-3.4-5.9-3.3-5.8,2.2-7.1c1.1-0.3,1.7-0.8,2.2,0.5c0.4,1.1,0.2,2.3-1,2.2
		C688.7,305.8,690.1,308.9,688.6,310.5z"/>
	<path fill="#FFFFFF" d="M687.6,292.8c0.9,1.5,1.1,3.2,1,5c-0.7,0-1.3,0-2,0c-0.3,0.3-0.7,0.3-1,0
		C684.9,295.6,685.2,293.8,687.6,292.8z"/>
	<path fill="#FFFFFF" d="M685.6,297.8c0.3,0,0.7,0,1,0c-0.1,0.8-0.4,1.7-1.4,1.7c-0.3,0-1-0.5-1-0.7
		C684.2,298,685,297.9,685.6,297.8z"/>
	<path fill="#FFFFFF" d="M291.6,343.8c-0.7,1-1.3,2-2,3c-3.8-0.9-3-3.5-2-6c-0.6-1.3-1.5-2.6-1.7-4c-0.2-1.5-1.9-3.4-0.1-4.5
		c1.5-0.9,3.2-2.5,5.5-1.3c1.9,1,2.6,2.3,2,4.5c-0.2,0.7,0.2,1.6,0.4,2.4C291.7,339.4,291.1,341.4,291.6,343.8z"/>
	<path fill="#FFFFFF" d="M283.6,352.8c-1.7-0.3-1.9-1.3-1.9-2.8c0-4.4-0.1-8.8-0.1-13.2c3-1.2,1.6,1.4,2,2.4c0.4,1.1-0.8,3.4,2,2.6
		C288.9,347.5,288.7,348.5,283.6,352.8z"/>
	<path fill="#FFFFFF" d="M283.6,352.8c2.4-3.3,3.5-6.9,2-11c-0.2-0.7-1.1-1.6-0.4-2c0.5-0.3,1.6,0.6,2.4,1c0.9,1.9,0.2,4.4,2,6
		c-0.4,1.6-0.7,3.3-1.1,4.9c-2.8,0-2.9,3.1-4.9,4.1C283.4,354.8,284.5,353.8,283.6,352.8z"/>
	<path fill="#FFFFFF" d="M299.6,320.8c1.4,0.2,2.8,0.3,4.6,0.5c-1.6,1.5-1,4.1-3.6,4.5C299.1,324.4,299.7,322.5,299.6,320.8z"/>
	<path fill="#FFFFFF" d="M291.6,343.8c-2.8-1.8-0.9-4.1-0.5-6c0.3-1.2,1.6-0.2,2.5,0c0,0.3,0,0.7,0,1
		C292.9,340.5,292.2,342.1,291.6,343.8z"/>
	<path fill="#FFFFFF" d="M541.6,317.8c0.1,2.1-0.8,3.2-3,3c2.4-7.4,1.3-9-6-9c-2.9,0-5.9,0.3-8.8,0.4c-0.6,0-1.6,0.4-1.5-0.5
		c0-0.7,0.9-1.3,1.3-1.9c3.2,0,6.3,0.1,9.5,0c2.4-0.1,5.3,1,6.8-2.3c0.4-0.9,1.8,0,2.7,0.4C543.2,311.2,544.1,314.7,541.6,317.8z"/>
	<path fill="#FFFFFF" d="M506.6,304.8c2.8,0.2,5.9-0.8,8.6,1.8c-2.2,2.4-5.6,0.1-7.6,2.2C506.1,307.7,507.6,305.9,506.6,304.8z"/>
	<path fill="#A14944" d="M145.6,205.8c-3.1-4.6-3-9.7-2.7-14.9c0-0.4,0.9-1.3,1.3-1.2c1.2,0.2,1.4,1.3,1.4,2.3
		C145.6,196.5,145.6,201.2,145.6,205.8C145.6,205.8,145.6,205.8,145.6,205.8z"/>
	<path fill="#A14944" d="M234.3,246.1c2.5,0.5,2.1,2.5,2.6,4c0.5,1.6,0.5,2.7-1.7,2.1c-1.4-0.3-1.9,1-2.8,1.6
		c-2.3,1.6-2.7-1.1-3.6-2c-1.6-1.5,0.2-1.7,1.1-2.3C231.4,248.4,232.9,247.2,234.3,246.1z"/>
	<path fill="#FFFFFF" d="M657.6,293.8c0.7,0,1.3,0,2,0c0.1,4.8-2.7,9.1-2,13.9c-0.6-0.1-1.8-0.3-1.8-0.3
		C655.9,302.8,654.6,298,657.6,293.8z"/>
	<path fill="#FFFFFF" d="M653.6,310.8c-1.7,1.9-3.3-0.1-5,0c-1.2-0.5-2.3-1.1-3.8-1.8c2.4-2.3,6,0,7.6-3.1
		C653.6,307.7,652.3,309.5,653.6,310.8z"/>
	<path fill="#FFFFFF" d="M640.6,297.8c1,0,2,0,3,0c0.7,1.7-0.3,2-1.7,2c-1.8,0-3.5,0-5.1,1.3c-3.3,2.6-2.9-0.3-3.1-2.2
		C636,299.2,638.4,299.4,640.6,297.8z"/>
	<path fill="#FFFFFF" d="M644.2,305.2c-2.5,0.5-4.4,0.9-6.3,1.2c-0.8,0.2-1.7,0.1-1.9-1c-0.2-1,0.6-1.5,1.4-1.6
		C639.5,303.9,641.6,303.2,644.2,305.2z"/>
	<path fill="#FFFFFF" d="M647.9,300.6c1.9-1.1,3.3-0.7,4.8-0.6C651,302.7,651,302.7,647.9,300.6z"/>
	<path fill="#A14944" d="M907.1,256.7c3.5,0.9,6.2,1.8,8.4,4c0.9,1,1.3,1.9,0.3,3c-0.6,0.7-1.6,0.9-2.2,0.3
		C911.5,262,907.9,261.2,907.1,256.7z"/>
	<path fill="#FFFFFF" d="M742.6,294.8c4.2-1.5,6,3.2,9.4,4c1.5,0.4,0.7,3.1-1.4,4c-5.7,3.3-11.5,0.5-17.3,0.5
		c4.6-2.3,9.5-0.9,15.2-1.9c-6-3.9-13.5,1.5-18.6-4.6C734.2,294.5,738.8,297.2,742.6,294.8z"/>
	<path fill="#E1DFC9" d="M936.6,339.8c1.3-1.3,2.7-1.3,4,0c-2.2,0.1-2.4,3.6-5,3C935.9,341.8,936.2,340.8,936.6,339.8z"/>
	<path fill="#FFFFFF" d="M329.6,312.8c-0.9-0.2-1.9-0.6-2.8-0.6c-1.5,0-3.2,0.2-3-2c0.3-2.7,2.4-1.3,3.8-1.3c34-2.5,49.5-2,55,2.4
		c-5.9-2-12-1.3-18-1.4c-1.8,1.2-3.8,1-5.8,1c-7.5,0-14.9,0-22.4,0c-2,0-4-0.3-5.8,1C330.2,312.1,329.9,312.5,329.6,312.8z"/>
	<path fill="#FFFFFF" d="M363.6,315.8c-10.3,0-20.7,0-31,0c-0.3-0.2-0.4-0.4-0.3-0.7c0.1-0.2,0.2-0.3,0.3-0.3l0,0
		c1.6-1.3,3.4-1,5.2-1c8.6,0,17.2,0,25.8,0c5,0.2,9.9-0.4,14.9,0.4c2.7,0.4,5,1.1,4.1,4.6c-0.3,0.4-0.7,0.6-1.2,0.7
		c-4.2-1.6-8.5-2-13-1.8C366.5,317.7,364.8,317.4,363.6,315.8z"/>
	<path fill="#FFFFFF" d="M330.6,311.8c1.3-2.4,3.6-2,5.7-2c9.4,0,18.9,0,28.3,0c-1.3,2.5-3.6,2-5.7,2
		C349.4,311.8,340,311.8,330.6,311.8z"/>
	<path fill="#FFFFFF" d="M363.6,313.8c-2.4,1.8-5.1,0.9-7.7,1c-7.8,0.1-15.6,0-23.3,0c0.3-1.3,1.1-2,2.5-2
		c9.1,0.1,18.2,0.1,27.3,0.2C362.8,313,363.2,313.5,363.6,313.8z"/>
	<path fill="#FFFFFF" d="M383.6,323.8c-3.3,1.1-6.6,1.1-10,1c-0.8-1.5-4.6-0.7-3-4c3-2.7,6.6-2.1,10.1-1.6c1.5,0.3,1.9,1.7,2.9,2.5
		C383.6,322.4,383.6,323.1,383.6,323.8z"/>
	<path fill="#FFFFFF" d="M332.6,314.8c0,0.3,0,0.7,0,1c-0.4,1.9-1.7,2.6-3.1,1.4c-0.9-0.7,0.4-1.2,1.1-1.4
		C331.2,315.4,331.9,315.1,332.6,314.8z"/>
	<path fill="#FFFFFF" d="M383.6,321.7c-1.2-0.1-1.9-0.8-2-2c-0.4-0.2-0.5-0.4-0.3-0.7c0.1-0.2,0.2-0.3,0.4-0.3c0.3,0,0.7,0,1,0
		C382.9,319.8,383.2,320.8,383.6,321.7z"/>
	<path fill="#FFFFFF" d="M231.5,339c0.4,0.6,0.8,1.2,1.1,1.9c-0.9,2.3-2.5,3.3-5,2.9C227,340.6,229,339.6,231.5,339z"/>
	<path fill="#FFFFFF" d="M381.6,318.8c0,0.3,0,0.7,0,1c-3.6,1.3-7.3,1-11,1c-0.7,0-1.3,0-2,0c-2,0.7-4.2,0.5-6.3,0.8
		c-1.4,0.2-3.6,0.9-3.7-1.8c0.4-0.8-0.4-2.3,1.6-2c1.5,0.2,3.1,0.1,3.4-2c3.2,0.8,6.5,0.6,9.8,0.4
		C376.5,316.1,379.2,316.7,381.6,318.8z"/>
	<path fill="#FFFFFF" d="M358.6,319.8c3.1,2.4,6.8-0.2,10,1c-4.2,2.2-8.6,2.1-13,1c0.3-0.7,0.7-1.3,1-2
		C357.2,319.8,357.9,319.8,358.6,319.8z"/>
	<path fill="#FFFFFF" d="M763.6,306.8c-0.3,0.3-0.7,0.7-1,1c-1.9-1.4-1.6-3.1-1-5c-0.6-4.5,1.2-6.5,5.9-6.1c3.1,0.3,6.3,0.1,9.5,0.1
		c1,0,2.2,0.2,2.2,1.5c0,1.3-1.2,1.4-2.2,1.4c-2.8,0-5.7-0.1-8.5,0.1c-1.5,0.1-3.9-0.8-4.3,1.3c-0.5,2.3,2.7,1.2,3.5,2.7
		C766.8,305.5,765.1,306,763.6,306.8z"/>
	<path fill="#FFFFFF" d="M763.6,306.8c0.7-1.8,1.7-3.3,4-3c3.3,0,6.6,0,9.9,0.1c1,0,2.2,0.3,2.2,1.5c0,1.2-1.3,1.4-2.3,1.4
		C772.8,306.8,768.2,306.8,763.6,306.8z"/>
	<path fill="#FFFFFF" d="M759.6,308.8c-3.6-1.5-1.3-4.6-1.9-7c1.2-0.9,0.7-2.7,2-5.1c0,3.3,0,5.2,0,7.1
		C761.3,305.5,760.9,307.1,759.6,308.8z"/>
	<path fill="#FFFFFF" d="M759.6,308.8c0-1.7,0-3.3,0.1-5c0.7-0.3,1.3-0.7,2-1c0.9,1.5,1.1,3.2,1,5c0,0.3,0,0.7,0,1
		C761.6,308.8,760.6,308.8,759.6,308.8z"/>
	<path fill="#FFFFFF" d="M852.1,310.8c0.1,0.8-0.1,1.3-0.6,1.2c-0.5-0.2-1.2-0.6-1.4-1.1c-0.3-0.7,0.2-1.4,0.9-1.3
		C851.5,309.7,851.8,310.5,852.1,310.8z"/>
	<path fill="#FFFFFF" d="M852.4,293.2c-0.1,0.3-0.3,0.5-0.4,0.8c-0.3-0.3-0.7-0.6-1-0.9c-0.1-0.1,0.2-0.7,0.4-0.7
		C852,292.2,852.3,292.6,852.4,293.2z"/>
	<path fill="#FFFFFF" d="M450.6,310.8c0,8-0.8,8.5-9.2,8.2c-4.4-0.2-8.3,2.8-12.7,2.8c-3.2-0.5-6.5-0.7-9.5-1.7
		c-6.6-2.1-12.9,1.5-19.5,0.7c-3.7-0.4-5.5-1.3-3-5.1c10,0,20,0,30,0c5.5-0.9,10.7-3,16.3-3.4c1.7-0.1,3.4,0.1,4.7-1.1
		C448.5,310.7,449.5,310.2,450.6,310.8z"/>
	<path fill="#FFFFFF" d="M395.6,308.8c8.7-0.4,17.4,1,26-1c0.3,0.2,0.5,0.4,0.8,0.6c1.4,1.1,4.9-0.7,4.6,2c-0.3,2.6-3.5,1-5.4,1.4
		c-8.6,2-17.3,0.5-26,1c-1.1-0.7-3-0.8-3-2.2C392.5,309,394.4,309.1,395.6,308.8z"/>
	<path fill="#FFFFFF" d="M448.6,311.8c-0.2,1.4-0.9,3.1-2.3,2.7c-6.8-2-13.1,2.8-19.7,1.3c0.4-2.2,2.2-2,3.8-2c2,0,3.8-0.4,5.2-2
		c2.5-2.5,6.4-0.8,9-2.9C446.8,308.7,448.6,308.9,448.6,311.8z"/>
	<path fill="#FFFFFF" d="M395.6,312.8c4.1-2.1,8.4-0.7,12.6-0.9c4.4-0.3,8.9-0.1,13.4-0.1c-3.3,2.6-7.2,2.1-10.9,1.9
		C405.7,313.5,400.5,314.8,395.6,312.8z"/>
	<path fill="#FFFFFF" d="M448.6,311.8c-0.8-1.7-2.3-2.1-4-2c-0.2,0-0.5,0-0.7,0c-2.7-1-6,0.5-8.3-2c-0.7-0.3-1.3-0.7-2-1
		c4.3-0.3,8.7-0.7,13-1c0.3,0,0.7,0,1,0c3.9,0,2.8,2.8,3,5C449.9,311.1,449.2,311.4,448.6,311.8z"/>
	<path fill="#FFFFFF" d="M444.6,309.8c-2.4,3.5-6,1.4-9,2c-1,0-1.9,0-3.6,0c1.7-0.9,2.7-1.5,3.6-2
		C438.6,308.2,441.6,308.4,444.6,309.8L444.6,309.8z"/>
	<path fill="#FFFFFF" d="M444.6,309.8c-3,0-6,0-9,0c-0.9-0.7-0.2-1.3,0-2C438.6,308.4,442.2,306.3,444.6,309.8z"/>
	<path fill="#FFFFFF" d="M541.6,317.8c1.5-3.2-2-6.9,1-10c1.8,0.9,4.3-0.1,5.8,1.9c-0.9,2.1-2.7,4.2,0.2,6.1c0,1.3,0,2.6,0,4
		c-0.8-0.4-1.2-1.9-2.4-1.3c-0.5,0.3-0.4,1.5-0.6,2.3C543.2,321.1,545.7,315.1,541.6,317.8z"/>
	<path fill="#FFFFFF" d="M156.6,238.8c-1.1,0.4-2.1,0.9-3.2,1.3c0,0,0,0,0,0c-0.1-2.6-1.5-5.1-0.3-8.5
		C153.6,234.7,153.9,237.4,156.6,238.8L156.6,238.8z"/>
	<path fill="#FFFFFF" d="M157.6,231.8c0,1.1,0,2.2,1,3c-3.6,1.5-3.1-1.5-2.8-3.1C156,229.6,156.9,231.8,157.6,231.8z"/>
	<path fill="#FFFFFF" d="M156.6,238.8c0.8-0.3,1.1-1.7,2.2-1.3c0.1,0,0.3,0.9,0.1,1.2C158.2,239.6,157.4,239.7,156.6,238.8
		C156.6,238.8,156.6,238.8,156.6,238.8z"/>
	<path fill="#FFFFFF" d="M808.8,303.2c-1.9-0.9-2.9-2.4-3.1-4.2c-0.2-1.5-0.8-3.7,1.2-4.3c1.8-0.5,3.9-0.3,5.6,0.8
		c0.6,0.4,0.8,1.6,0.3,1.6C808.1,296.9,810.5,301.4,808.8,303.2z"/>
	<path fill="#FFFFFF" d="M811.1,290.6c0.1,0.6-0.3,0.9-0.9,1c-0.3,0-0.6-0.3-0.8-0.4c0.3-0.3,0.6-0.7,0.9-1
		C810.4,290.1,810.8,290.5,811.1,290.6z"/>
	<path fill="#FFFFFF" d="M715.6,297.8c-4.1,3.8-9,1.7-13.5,1.7c-1.8,0-1.4-2.3-1.5-3.7c4.4-2.7,9.1-1.5,13.7-1
		C715.6,294.9,716.4,296.2,715.6,297.8z"/>
	<path fill="#FFFFFF" d="M715.6,297.8c-0.5-2.2-2.2-2-3.8-2c-3.7,0-7.4,0-11.2,0c-0.1-2.5,1.4-3.1,3.5-3c3.5,0.1,7,0,10.5,0
		c0.7,0.7,1.9,0.8,2,2c0.4,1.4,1.8,2.7,0.3,4.1C716.8,298.9,716,298.2,715.6,297.8z"/>
	<path fill="#FFFFFF" d="M719.6,301.8c0,1.7,0,3.3,0,5C716.8,305.7,716.8,304.2,719.6,301.8z"/>
	<path fill="#FFFFFF" d="M716.6,294.8c-0.7-0.7-1.3-1.3-2-2c1.7,0,3.4,0,5.1-0.1c0,0,0,0,0,0C718.6,293.4,717.6,294.1,716.6,294.8z"
		/>
	<path fill="#FFFFFF" d="M195.6,274.8c-1.1,0.5-2,0.6-2-1c0-1,0-2,0-3c0.7-0.3,1.3-0.7,2-1C195.6,271.4,195.6,273.1,195.6,274.8z"/>
	<path fill="#FFFFFF" d="M147.1,275.3c-0.9,0.1-1.4-0.4-1.3-1.1c0.1-0.6,0.5-1.3,0.9-1.6c0.7-0.4,1.3,0.1,1.4,0.8
		C148.4,274.4,147.9,275,147.1,275.3z"/>
	<path fill="#FFFFFF" d="M300.6,315.8c2.2-0.5,5.8,1.6,6-3c2.3,1.5,5,0.8,8,1.3c-5.7,1.2-5.6,4.1-3,7.7
		C308.1,319.4,303.4,319.4,300.6,315.8z"/>
	<path fill="#FFFFFF" d="M190.6,210.8c0.7,0,0.9-1.7,1.8-0.6c0.2,0.3,0,1.5-0.4,1.7C190.9,212.6,190.8,211.5,190.6,210.8
		C190.6,210.8,190.6,210.8,190.6,210.8z"/>
	<path fill="#FFFFFF" d="M174.6,192.8c-0.7,3.5-1.1,7-2.1,10.5c-0.7,2.7-2.3,3.1-3.9,0.5c0-0.7,0-1.3,0-2c-0.7-1.1-2-1.2-3-2
		c-0.5-0.5-0.8-1.3-0.2-1.6c2.5-1,4.4-2.3,5.4-5.1C171.3,191.6,173.2,192.2,174.6,192.8z"/>
	<path fill="#FFFFFF" d="M165.6,199.8c1.5,0,4.2-2,3,2C167.2,201.7,166.2,201.1,165.6,199.8z"/>
	<path fill="#FFFFFF" d="M177.6,165.8c0-0.7,0-1.3,0-2c0.3-0.7,0.7-1.4,1-2.1c0.3,0.3,0.9,0.5,0.9,0.8
		C179.7,164,179.6,165.5,177.6,165.8z"/>
	<path fill="#FFFFFF" d="M159.6,217.8c-1-1-2-2-3-3C158.4,214.9,160.8,214.6,159.6,217.8z"/>
	<path fill="#FFFFFF" d="M256.6,371.8c-0.2-3.9,2.8-1.1,4-2C259.5,371,258.1,371.6,256.6,371.8z"/>
	<path fill="#C1B75D" d="M924.5,279.8c-1-3.7,2-1.3,3-2C928.3,281.1,925.6,279.3,924.5,279.8z"/>
	<path fill="#FFFFFF" d="M494.6,317.8c-1.9-4.2-0.8-8.5-0.9-12.8c0-1.1,0.6-2,1.8-1.9c0.6,0,1.3,0.4,1.7,0.8
		c0.8,0.9,0.7,12.2-0.3,13.2C496.4,317.6,495.4,317.6,494.6,317.8C494.6,317.8,494.6,317.8,494.6,317.8z"/>
	<path fill="#FFFFFF" d="M194.6,246.8c-1,0.7-1.5,2-3,2c1-3.7-0.2-8.4,5-10C196.8,241.7,196.7,244.5,194.6,246.8z"/>
	<path fill="#FFFFFF" d="M835.6,303.8c-0.3-0.9-0.6-1.8,0.2-2.7c1.3-1.3,2.8-1.6,4.5-1.1c0.7,0.2,1,0.8,0.8,1.5
		c-0.6,1.7-1.6,2.8-3.6,2.6C836.8,304.1,836.2,303.9,835.6,303.8C835.6,303.8,835.6,303.8,835.6,303.8z"/>
	<path fill="#FFFFFF" d="M692.6,296.8c-1.3-1.1-0.9-2.6-1-4c0.7-0.3,1.3-0.6,2-1C693.3,293.5,692.9,295.1,692.6,296.8z"/>
	<path fill="#E1DFC9" d="M928.6,339.8c1.7-1.4,3.3-1.4,5,0C931.9,339.8,930.2,339.8,928.6,339.8z"/>
</g>
<g>
	<path fill="#A14944" stroke="#000000" stroke-width="2" stroke-miterlimit="10" d="M409,147.4c-1.3,0.4-1.4,1.4-1.7,2.1
		c-2.3,4.9-4.6,9.8-6.9,14.8c-4.6,10.1-9.1,20.3-13.6,30.4c-2.6,5.7-5.3,11.3-7.8,17c-3.1,7-6.2,14-9.3,20.9
		c-0.3,0.8-0.7,1.2-1.8,1.2c-10.9-0.1-21.8-0.1-32.8,0c-1.3,0-1.3-0.5-1.5-1.6c-0.5-4.4,0-8.7-0.5-13.1c-0.3-3.4-0.1-6.7-0.3-10
		c-0.6-7.3-0.6-14.7-1-22c-0.2-3.6-0.1-7.1-0.3-10.7c-0.6-7.1-0.7-14.2-0.9-21.3c-0.1-2.2-0.3-4.5-0.3-6.8c0-0.5,0.1-1-0.7-1
		c-0.7,0-0.5,0.5-0.6,0.9c-1.1,5.8-2.3,11.7-3.5,17.5c-1.2,6-2.6,12-3.9,18c-1.2,6-2.3,12.1-3.5,18.1c-1.2,5.9-2.5,11.9-3.8,17.8
		c-0.8,3.9-1.6,7.9-2.3,11.9c-0.3,1.7-0.8,2.4-2.7,2.4c-10.6-0.1-21.3,0-31.9,0c-1.4,0-2.3,0.3-1.7-2c1.5-5.9,2.4-12,3.6-18.1
		c1.2-6.1,2.6-12.3,3.9-18.4c1.2-6,2.3-12.1,3.5-18.1c1.4-6.7,2.8-13.3,4.2-20c1-4.6,1.8-9.2,2.7-13.9c1.1-5.3,2.2-10.7,3.3-16
		c0.3-1.3,0-3.1,1.1-3.7c1.1-0.6,2.7-0.1,4.1-0.1c18.8,0,37.6,0,56.4,0c1.5,0,2.1,0.2,2,1.9c-0.2,6.2,0.3,12.5,0.5,18.7
		c0.1,4.1-0.2,8.3,0.4,12.4c0.6,4.4-0.1,8.7,0.4,13.1c0.5,4.2,0.2,8.4,0.3,12.6c0,0.6,0,1.3,0.5,1.5c0.6,0.2,0.7-0.6,1-1.1
		c2.6-5.8,5.1-11.6,7.7-17.5c2.1-4.9,4.1-9.7,6.2-14.6c3-7,5.9-14.1,9-21.1c0.5-1.1,1.1-2.1,1.5-3.3c0.6-2,1.8-2.7,4-2.7
		c19.2,0.1,38.3,0.1,57.5,0c1.9,0,2.4,0.2,1.8,2.3c-1.2,4.6-1.9,9.2-2.8,13.8c-1,5.3-2.1,10.6-3.2,15.9c-1.1,5.3-2.2,10.5-3.3,15.8
		c-1.2,5.5-2.3,11.1-3.4,16.6c-1.1,5.3-2,10.6-3.1,15.9c-1.2,6.1-2.6,12.3-3.8,18.4c-0.6,3.1-1.2,6.3-1.8,9.5
		c-0.2,1.3-0.6,2.1-2.3,2.1c-11.4-0.1-22.9-0.1-34.3,0c-1.8,0-1.9-0.7-1.6-2c1.3-6.2,2.5-12.4,3.9-18.6c1.7-7.4,2.8-14.8,4.6-22.2
		c1.3-5.2,2.1-10.6,3.1-15.9c1.1-5.4,2.3-10.8,3.4-16.2C407.6,155.2,408.2,151.4,409,147.4z"/>
	<path fill="#A14944" stroke="#000000" stroke-width="2" stroke-miterlimit="10" d="M854.1,123.6c-15.5,0-30.9,0-46.4,0
		c-1.1,0-1.8,0.4-2.4,1.3c-3.3,5.4-6.7,10.7-10.2,16c-6.6,10.2-13.2,20.4-19.8,30.5c-3.1,4.8-6.3,9.6-9.5,14.4
		c-0.2,0.3-0.2,1-0.8,0.6c-0.2-0.1-0.2-0.7-0.1-1c1.2-4.1,1.8-8.3,2.6-12.4c1.6-8.1,3.5-16.2,5.2-24.4c1.5-7.3,2.9-14.6,4.3-21.9
		c0.6-3.2,0.6-3.2-2.7-3.2c-12.4,0-24.9,0-37.3,0c-0.9,0-1.9-0.3-2.1,1.1c-0.4,2.1-0.9,4.3-1.3,6.4c-1.2,7.6-3.1,15-4.4,22.5
		c-1.4,8.2-3.5,16.2-5.1,24.4c-1.7,8.5-3.3,17-5.2,25.4c-2.1,9.7-3.7,19.5-5.8,29.1c-0.4,1.7,0.2,1.2,1,1.2c15.7,0,31.4,0,47.1,0
		c0.7,0,1.3,0.1,1.9-0.8c2.9-4.7,5.9-9.3,8.9-13.9c6.8-10.4,13.7-20.7,20.6-31.1c3.5-5.3,6.9-10.6,10.3-15.9
		c-0.1,4.6-1.3,8.8-2.1,13.2c-1.5,8.2-3.5,16.2-5.1,24.4c-1.5,7.7-3.1,15.4-4.7,23c-0.2,0.8,0,1.2,0.9,1.1c1.7-0.1,3.3,0,5,0
		c11.6,0,23.3,0,34.9,0c0.7,0,1.5,0.5,1.7-1.1c0.9-5.2,2-10.3,3-15.5c1.6-8.2,3.5-16.2,5.2-24.4c1.5-7.5,2.7-15.1,4.4-22.5
		c1.9-8.1,3.2-16.3,5.1-24.4c1.6-6.8,2.5-13.9,4-20.7C855.7,123.6,855.4,123.6,854.1,123.6z"/>
	<path fill="#A14944" stroke="#000000" stroke-width="2" stroke-miterlimit="10" d="M667.6,123.6c18.7,0,37.5,0,56.2,0
		c1.2,0,2.2-0.5,1.7,1.8c-1.9,9.2-3.7,18.4-5.8,27.6c-0.1,0.3,0.1,0.7,0,1.1c-0.2,1.3-0.6,2.1-2.3,2.1c-11-0.1-22-0.1-33-0.1
		c-2.7,0-2.7,0-3.4,3.6c-1.7,9.2-3.5,18.5-5.6,27.7c-1.8,8.3-3.2,16.6-4.8,24.9c-1.4,6.8-3,13.6-4.3,20.4c-0.3,1.5-1,1.1-1.7,1.1
		c-10.8,0-21.5,0-32.3,0c-2.5,0-4.9,0-7.4,0c-1.1,0-1.3-0.2-1-1.3c1.2-5.3,2.2-10.7,3.3-16c1.1-5.3,2.3-10.5,3.3-15.8
		c1-4.7,1.8-9.4,2.7-14.1c1.1-5.3,2.2-10.5,3.3-15.8c0.9-4.5,1.9-9.1,2.8-13.6c0.3-1.4-0.7-1.1-1.5-1.1c-11.1,0-22.3,0-33.4,0
		c-2,0-2.3-0.4-1.8-2.4c1.1-4.6,1.9-9.2,2.8-13.9c1-5.2,2.3-10.3,3-15.5c0.1-1,1.1-0.9,1.9-0.9c5.3,0,10.6,0,15.8,0
		C640.2,123.6,653.9,123.6,667.6,123.6z"/>
	<path fill="#A14944" stroke="#000000" stroke-width="2" stroke-miterlimit="10" d="M599.7,161.9c-0.4-2.9-0.7-5.8-1.6-8.5
		c-2.9-8.9-9.3-14.5-17.9-17.6c-6-2.2-12.4-2.8-18.7-3c-2.9-0.1-5.8,0-8.6,0c1-5,1.9-9.9,2.8-14.9c0.1-0.6,1.3-1.7-0.8-1.6
		c-13.4,0.1-26.8,0.1-40.1,0c-0.9,0-1.1,0.2-1.2,1.1c-0.9,4.8-2,9.6-2.9,14.4c-0.2,0.9-0.4,1-1.2,1c-4.1,0.1-8.3,0-12.4,0.3
		c-5,0.4-9.9,1.2-14.5,2.9c-10.4,3.7-19.5,9.5-26.2,18.6c-8.3,11.2-12.1,23.6-10,37.4c1.5,10.3,7.5,17.5,16.7,22
		c6.1,3,12.7,4.1,19.5,4.3c3,0.1,5.9,0.1,8.9,0c1.4-0.1,1.4,0.6,1.2,1.5c-0.4,1.9-0.9,3.9-1.3,5.8c-0.7,3.5-1.4,7-2.1,10.5
		c13.7,0,27.2,0,40.8,0.1c1.4,0,1.9-0.6,2.1-1.6c0.9-4.8,1.8-9.5,2.6-14.3c0.2-1.5,0.7-1.9,2.2-2c4.6-0.1,9.3,0.2,13.9-0.3
		c5.5-0.6,10.8-1.6,15.9-3.6c6.2-2.3,11.8-5.7,16.6-10.3c5.7-5.2,9.8-11.5,12.6-18.7c1.8-4.5,2.9-9.1,3.3-13.8
		C599.8,168.3,600.2,165.2,599.7,161.9z M506.8,159.6c-2.2,10.4-4.1,20.9-6.1,31.3c-0.3,1.4-0.8,2.9-2.6,2.1
		c-6.4,0.1-10.8-4.3-11.7-10.3c-1.1-7.5,1.6-13.9,6.5-19.3c3.3-3.7,7.7-5.4,12.6-5.6C506.6,157.9,507.2,157.8,506.8,159.6z
		 M559.7,170.9c-1.1,8.6-3.9,16.3-12.2,20.6c-2.3,1.2-4.8,1.5-7.4,1.6c-1.5,0-1.4-0.8-1.2-1.6c1.2-5.9,2.6-11.8,3.8-17.8
		c0.9-4.5,2-8.9,2.6-13.4c0.3-2.6,1.5-2.5,3.3-2.4c5.1,0.2,9.3,3.5,10.6,8.5C559.5,167.8,560,169.3,559.7,170.9z"/>
</g>
<text transform="matrix(1 0 0 1 689.2363 366.7602)" fill="#A14944" stroke="#000000" stroke-miterlimit="10" font-family="'MyriadPro-BoldIt'" font-size="45.9975">python</text>
</svg>
