<?xml version="1.0" encoding="UTF-8" standalone="no"?>
<!-- Created with Inkscape (http://www.inkscape.org/) -->

<svg
   xmlns:dc="http://purl.org/dc/elements/1.1/"
   xmlns:cc="http://creativecommons.org/ns#"
   xmlns:rdf="http://www.w3.org/1999/02/22-rdf-syntax-ns#"
   xmlns:svg="http://www.w3.org/2000/svg"
   xmlns="http://www.w3.org/2000/svg"
   xmlns:sodipodi="http://sodipodi.sourceforge.net/DTD/sodipodi-0.dtd"
   xmlns:inkscape="http://www.inkscape.org/namespaces/inkscape"
   width="340.31689"
   height="122.03996"
   id="svg2"
   version="1.1"
   inkscape:version="0.91 r13725"
   sodipodi:docname="logo.svg">
  <title
     id="title3118">MIPT CS on Python</title>
  <defs
     id="defs4" />
  <sodipodi:namedview
     id="base"
     pagecolor="#ffffff"
     bordercolor="#666666"
     borderopacity="1.0"
     inkscape:pageopacity="0.0"
     inkscape:pageshadow="2"
     inkscape:zoom="0.43004621"
     inkscape:cx="671.60552"
     inkscape:cy="-439.54253"
     inkscape:document-units="px"
     inkscape:current-layer="layer1"
     showgrid="false"
     inkscape:window-width="1920"
     inkscape:window-height="1030"
     inkscape:window-x="0"
     inkscape:window-y="25"
     inkscape:window-maximized="1"
     showborder="true"
     fit-margin-top="0"
     fit-margin-left="0"
     fit-margin-right="0"
     fit-margin-bottom="0" />
  <metadata
     id="metadata7">
    <rdf:RDF>
      <cc:Work
         rdf:about="">
        <dc:format>image/svg+xml</dc:format>
        <dc:type
           rdf:resource="http://purl.org/dc/dcmitype/StillImage" />
        <dc:title>MIPT CS on Python</dc:title>
        <dc:date>8.09.2015</dc:date>
        <dc:creator>
          <cc:Agent>
            <dc:title>Timofey Khirianov</dc:title>
          </cc:Agent>
        </dc:creator>
        <dc:rights>
          <cc:Agent>
            <dc:title>Timofey Khirianov</dc:title>
          </cc:Agent>
        </dc:rights>
        <dc:publisher>
          <cc:Agent>
            <dc:title>MIPT, Moscow</dc:title>
          </cc:Agent>
        </dc:publisher>
        <dc:source />
        <cc:license
           rdf:resource="http://creativecommons.org/licenses/by-sa/3.0/" />
        <dc:identifier>http://judge.mipt.ru/mipt_cs_on_python3/</dc:identifier>
        <dc:language>ru-RU</dc:language>
        <dc:subject>
          <rdf:Bag>
            <rdf:li>МФТИ</rdf:li>
            <rdf:li>Python</rdf:li>
            <rdf:li>информатика</rdf:li>
            <rdf:li>Питон</rdf:li>
          </rdf:Bag>
        </dc:subject>
        <dc:description>Питон Каа из мультфильма про Маугли, выгнутый в форме символа МФТИ.</dc:description>
      </cc:Work>
      <cc:License
         rdf:about="http://creativecommons.org/licenses/by-sa/3.0/">
        <cc:permits
           rdf:resource="http://creativecommons.org/ns#Reproduction" />
        <cc:permits
           rdf:resource="http://creativecommons.org/ns#Distribution" />
        <cc:requires
           rdf:resource="http://creativecommons.org/ns#Notice" />
        <cc:requires
           rdf:resource="http://creativecommons.org/ns#Attribution" />
        <cc:permits
           rdf:resource="http://creativecommons.org/ns#DerivativeWorks" />
        <cc:requires
           rdf:resource="http://creativecommons.org/ns#ShareAlike" />
      </cc:License>
    </rdf:RDF>
  </metadata>
  <g
     inkscape:label="Layer 1"
     inkscape:groupmode="layer"
     id="layer1"
     transform="translate(-192.59664,-184.60676)">
    <path
       style="fill:#34364a;fill-opacity:1"
       d="m 358.5,209.78125 c -0.2361,0 -0.47714,0.0215 -0.65625,0.0937 -0.35822,0.14455 -0.0602,0.28125 0.65625,0.28125 0.71642,0 1.01447,-0.1367 0.65625,-0.28125 -0.17911,-0.0723 -0.42015,-0.0937 -0.65625,-0.0937 z m 9.96875,0 c -0.37776,0.002 -0.75091,0.0285 -1,0.0937 -0.49817,0.13041 0.0412,0.22475 1.1875,0.21875 1.14631,-0.006 1.55438,-0.0941 0.90625,-0.21875 -0.32407,-0.0623 -0.71599,-0.0957 -1.09375,-0.0937 z m -8.71875,0.9375 c -2.7604,0.0353 -3.63825,0.2061 -3.75,0.625 -0.13515,0.50656 -0.0252,0.4961 0.375,-0.0625 0.42192,-0.58886 0.47287,-0.34276 0.21875,1.03125 -0.51978,2.81039 -1.11543,4.1701 -1.84375,4.125 -0.52255,-0.0324 -0.54365,-0.10574 -0.0312,-0.3125 0.35822,-0.14455 0.65625,-0.52374 0.65625,-0.84375 0,-0.40432 -0.19053,-0.37197 -0.625,0.0625 -0.34389,0.34389 -1.94075,0.6408 -3.53125,0.6875 l -2.875,0.0937 2.875,0.34375 2.84375,0.375 -2.40625,0.0625 c -1.32543,0.0467 -3.18905,0.20434 -4.15625,0.34375 -1.50321,0.21667 -1.58225,0.20747 -0.46875,-0.1875 1.08149,-0.38363 1.14645,-0.4764 0.28125,-0.5 -0.57315,-0.0156 -1.76527,0.30465 -2.625,0.71875 -1.35062,0.65054 -1.37553,0.71088 -0.25,0.46875 1.13616,-0.24443 1.16667,-0.2017 0.34375,0.3125 -0.51891,0.32427 -1.29141,0.44524 -1.71875,0.28125 -0.50083,-0.19219 -0.64672,-0.0766 -0.40625,0.3125 0.25141,0.40679 0.10255,0.48122 -0.5,0.25 -0.60255,-0.23122 -0.78266,-0.12554 -0.53125,0.28125 0.24768,0.40075 0.0958,0.49789 -0.46875,0.28125 -0.4677,-0.17948 -1.02201,-0.0683 -1.21875,0.25 -0.23768,0.38457 -0.11124,0.41805 0.375,0.125 0.62327,-0.37563 0.6403,-0.31333 0.0312,0.4375 -0.67084,0.82703 -1.48132,1.10227 -1.46875,0.65625 l -1.5,1.8125 c -0.84683,1.00979 -1.95475,2.41533 -2.46875,3.125 -0.89983,1.24254 -0.89598,1.21573 0,-0.4375 0.51174,-0.94424 1.61965,-2.34977 2.46875,-3.125 l 1.5,-1.375 c 0.003,-0.10293 0.0218,-0.2244 0.125,-0.40625 0.20324,-0.35823 -0.48883,0.15323 -1.5625,1.15625 -1.88358,1.75965 -4.99665,6.49243 -4.96875,7.5625 0.007,0.28657 0.37299,-0.0648 0.8125,-0.78125 0.53657,-0.8747 0.6763,-0.94977 0.4375,-0.25 -0.1956,0.57315 -0.47447,1.47426 -0.625,2 -0.15054,0.52574 -0.41857,0.72094 -0.59375,0.4375 -0.17517,-0.28343 -0.3125,1.53804 -0.3125,4.0625 0,2.59486 0.19101,4.34008 0.4375,4 0.26275,-0.36258 0.34248,-0.14455 0.1875,0.5625 -0.15019,0.68518 -0.0463,1.02688 0.25,0.84375 0.27904,-0.17244 0.43265,0.0193 0.34375,0.40625 -0.0889,0.38698 -0.007,0.6875 0.1875,0.6875 0.19417,0 1.00559,0.61963 1.8125,1.375 1.69928,1.59076 4.3984,3.04095 5.75,3.09375 0.83198,0.0325 0.7996,0.10024 -0.125,0.5 -0.6508,0.28137 0.18492,0.34089 2.1875,0.15625 1.76366,-0.16263 3.8185,-0.13208 4.59375,0.0625 1.37263,0.3445 1.4033,0.42854 1.0625,3.15625 -0.3299,2.64046 -0.26071,2.81439 0.875,3.03125 1.073,0.20492 1.02613,0.21805 -0.25,0.28125 -1.21978,0.0604 -1.41735,-0.12398 -1.46875,-1.34375 -0.0395,-0.93753 -0.15276,-1.11652 -0.3125,-0.5 -0.13428,0.51826 -0.12728,1.27437 0.0312,1.6875 0.23202,0.60465 1.72333,0.75 7.59375,0.75 8.26768,0 8.67609,-0.19406 8.0625,-4.03125 -0.47596,-2.97651 0.40005,-3.46361 5.65625,-3.125 2.77027,0.17847 3.92343,0.11817 3.25,-0.1875 -0.80183,-0.36395 -0.64234,-0.41598 0.65625,-0.21875 1.85109,0.28113 3.40004,-0.13397 3,-0.78125 -0.32501,-0.52588 1.22924,-1.11785 1.875,-0.71875 0.26776,0.16552 0.42245,-5e-5 0.34375,-0.34375 -0.0787,-0.34371 0.16439,-0.73035 0.5625,-0.875 0.49803,-0.18094 0.59913,-0.0571 0.3125,0.4375 -0.24599,0.42445 -0.21754,0.56886 0.0625,0.3125 0.26088,-0.23881 0.46875,-0.68954 0.46875,-1 0,-0.31045 0.32064,-0.67979 0.71875,-0.8125 0.49335,-0.16445 0.59283,-0.0212 0.3125,0.46875 -0.22622,0.3954 0.45394,-0.0749 1.5,-1.0625 1.87004,-1.76552 2.40158,-2.50946 1.375,-1.875 -0.82764,0.5115 -0.58732,-0.22898 0.5625,-1.84375 0.58388,-0.81999 1.3823,-2.38175 1.78125,-3.46875 0.39894,-1.087 0.74095,-1.61736 0.78125,-1.1875 0.19754,2.10527 0.99845,-1.67521 1.03125,-4.90625 0.0269,-2.65552 -0.26315,-4.22376 -1.0625,-5.875 -1.26809,-2.61952 -3.30797,-4.39493 -4.5,-3.9375 -0.45855,0.17597 -0.69419,0.0761 -0.53125,-0.1875 0.16293,-0.26363 -0.22632,-0.5157 -0.84375,-0.5625 -5.06064,-0.38334 -9.79186,-1.07311 -10.21875,-1.5 -0.29043,-0.29044 -0.35068,-1.42551 -0.15625,-2.59375 0.31372,-1.88499 0.38102,-1.93518 0.71875,-0.75 0.32882,1.15398 0.36025,1.16956 0.40625,0.1875 0.0898,-1.91634 -0.99781,-2.2246 -8.28125,-2.3125 -1.37786,-0.0166 -2.51737,-0.0118 -3.4375,0 z m -4.125,1.84375 c -0.0942,-0.0351 -0.15625,0.24391 -0.15625,0.78125 0,0.71641 0.10545,1.01447 0.25,0.65625 0.14454,-0.35822 0.14454,-0.92302 0,-1.28125 -0.0361,-0.0896 -0.0623,-0.14455 -0.0937,-0.15625 z m 77.21875,0.53125 -21.15625,0.0625 c -12.68165,0.0439 -18.0607,0.13816 -20.09375,0.40625 0.0224,0.17317 -0.0576,0.45294 -0.25,0.8125 -0.29665,0.55432 -0.56515,1.55511 -0.59375,2.21875 -0.0512,1.19039 -0.0498,1.1601 -0.4375,-0.125 -0.27418,-0.9089 -0.3908,-0.33761 -0.375,1.84375 0.0124,1.71947 -0.1581,3.63645 -0.375,4.28125 -0.3931,1.16836 -0.36179,1.1875 5.34375,1.1875 3.14822,0 6.07794,0.13855 6.53125,0.3125 0.53093,0.20374 0.82095,0.91379 0.78125,1.96875 l -0.0625,1.625 -0.34375,-1.5625 -0.34375,-1.5625 -5.9375,-0.15625 c -3.36176,-0.0837 -6.26401,-0.39321 -6.65625,-0.71875 -0.54207,-0.44987 -0.631,-0.38587 -0.375,0.28125 0.2786,0.72604 1.25663,0.84375 6.46875,0.84375 l 6.15625,0 0.25,1.96875 c 0.35367,2.53549 -3.81038,24.1905 -4.375,22.75 -0.21528,-0.54922 -0.4173,-0.68957 -0.4375,-0.3125 -0.0201,0.37706 0.20334,1.13319 0.5,1.6875 0.49046,0.91645 1.17226,1 7.28125,1 l 6.71875,0 0.59375,-3 c 1.82436,-8.84827 2.4712,-11.2502 2.71875,-10.28125 0.1465,0.57315 0.18805,0.24395 0.0937,-0.71875 -0.0943,-0.96269 0.30888,-3.98719 0.875,-6.75 1.29297,-6.30997 1.46291,-6.84375 2.1875,-6.84375 0.42,0 0.38247,0.18002 -0.0625,0.625 -0.3439,0.34389 -0.61195,0.96205 -0.59375,1.40625 0.0203,0.49541 0.24219,0.3754 0.53125,-0.34375 0.45147,-1.12316 0.71846,-1.1875 6.625,-1.1875 6.26248,0 7.4456,-0.33632 7.375,-2.0625 -0.0203,-0.49541 -0.21093,-0.34415 -0.5,0.375 -0.45512,1.13232 -0.66449,1.17071 -6.59375,1.0625 l -6.15625,-0.125 6.09375,-0.15625 6.125,-0.15625 0.34375,-1.9375 c 0.30972,-1.65095 0.42716,-1.79075 0.8125,-0.90625 0.32535,0.7468 0.38126,0.57477 0.1875,-0.6875 -0.14746,-0.96069 -0.10157,-2.71761 0.0937,-3.90625 0.31812,-1.93605 0.39044,-2.04195 0.71875,-0.875 0.31642,1.12456 0.36285,1.04313 0.34375,-0.53125 l -0.0312,-1.8125 z m -41.25,0.46875 c -0.0162,-0.12484 -0.0898,-0.21875 -0.21875,-0.21875 -0.19524,0 -0.40835,0.16191 -0.5625,0.375 0.16804,-0.0571 0.43462,-0.11054 0.78125,-0.15625 z m -0.78125,0.15625 c -0.20014,0.0679 -0.30639,0.13252 -0.3125,0.21875 -0.0348,0.49048 0.005,0.51349 0.15625,0.0625 0.0351,-0.10448 0.0928,-0.19351 0.15625,-0.28125 z M 289.34375,213.125 c -8.85118,0.0329 -11.30206,0.20462 -11.1875,0.71875 0.0807,0.36225 -0.15607,2.09559 -0.5,3.84375 -0.48989,2.49006 -0.71527,2.95022 -1.0625,2.15625 -0.3064,-0.70064 -0.34951,-0.46577 -0.15625,0.78125 0.38374,2.4762 -1.39876,11.07063 -1.9375,9.34375 -0.23106,-0.74064 -0.29817,-0.17949 -0.15625,1.375 0.17662,1.93453 0.12807,2.33631 -0.25,1.5625 -0.38192,-0.78169 -0.44276,-0.47755 -0.25,1.28125 0.16788,1.53183 0.099,1.98764 -0.1875,1.3125 -0.37029,-0.8727 -0.49588,-0.71894 -0.8125,0.96875 -0.2062,1.09917 -0.25552,2.15073 -0.0937,2.3125 0.16177,0.16177 0.32114,-0.27619 0.34375,-0.96875 0.0226,-0.69229 0.15144,-1.0015 0.28125,-0.6875 0.1298,0.31401 -0.36964,3.3385 -1.09375,6.75 -0.72411,3.41151 -1.3109,6.62349 -1.3125,7.125 -0.002,0.81294 0.61658,0.90625 5.6875,0.90625 3.12847,0 5.78684,-0.16007 5.90625,-0.375 0.11936,-0.21493 0.1723,-0.16158 0.125,0.125 -0.0499,0.30274 -2.62377,0.57095 -6.15625,0.65625 l -6.0938,0.15625 -0.0625,-1.71875 c -0.0535,-1.28921 -0.13851,-1.41247 -0.3125,-0.5 -0.12693,0.66564 -0.0945,1.55972 0.0625,1.96875 0.22414,0.58407 1.54993,0.75 6.21875,0.75 6.29117,0 7.64761,-0.48679 6.875,-2.46875 -0.19692,-0.50516 0.17976,-3.59276 0.84375,-6.84375 0.91,-4.4555 1.30145,-5.6082 1.59375,-4.6875 0.26329,0.82935 0.34181,0.57408 0.1875,-0.78125 -0.31255,-2.74522 0.78742,-8.19061 1.375,-6.8125 0.27011,0.63357 0.31821,0.13406 0.15625,-1.34375 -0.19704,-1.79784 -0.1212,-2.11154 0.28125,-1.3125 0.41141,0.81683 0.44471,0.61925 0.21875,-0.90625 -0.36689,-2.47687 0.58047,-6.125 1.59375,-6.125 0.49223,0 0.7737,0.51128 0.75,1.4375 -0.0321,1.25629 -0.0943,1.31992 -0.46875,0.40625 -0.39408,-0.96164 -0.47806,-0.93585 -1.03125,0.46875 -0.32965,0.83716 -0.4966,1.8913 -0.375,2.34375 0.18151,0.67531 0.23165,0.65478 0.28125,-0.0937 0.0332,-0.50151 0.27592,-0.90625 0.5625,-0.90625 0.30262,0 0.5671,2.01322 0.625,4.8125 l 0.0937,4.8125 0.375,-4.6875 c 0.0594,-0.78679 0.1164,-1.26044 0.15625,-1.40625 0.0875,0.20968 0.14172,2.65709 0.0937,7.40625 -0.0704,6.97472 0.0112,9.22184 0.25,6.5 0.11532,-1.3143 0.20193,-2.05525 0.25,-2.1875 0.0514,0.20818 0.0455,1.75946 0,4.90625 -0.0797,5.50479 0.0696,6.96237 0.65625,7.1875 1.10207,0.4229 11.23757,0.31534 11.90625,-0.125 0.61548,-0.4053 2.80185,-4.48937 2.78125,-5.1875 -0.007,-0.22635 -0.65497,0.75461 -1.4375,2.1875 l -1.40625,2.625 -5.9375,0 c -4.84367,0 -6.01372,-0.14464 -6.1875,-0.78125 -0.16306,-0.59736 -0.08,-0.63696 0.28125,-0.125 0.34737,0.49225 1.95841,0.64059 6.125,0.53125 l 5.6875,-0.15625 5.1875,-11.3125 c 2.85075,-6.22178 5.35608,-11.20939 5.59375,-11.0625 0.23767,0.14688 0.28987,-0.0704 0.125,-0.5 -0.32339,-0.84274 2.79051,-7.09375 3.53125,-7.09375 0.86285,0 0.42887,3.14275 -2.15625,15.625 -1.43289,6.91871 -2.625,13.04101 -2.625,13.59375 0,0.93397 0.43251,1 5.96875,1 6.59161,0 6.134,0.26049 6.875,-3.90625 0.31076,-1.74749 0.43344,-1.90134 0.8125,-1.03125 0.33833,0.77657 0.37279,0.63787 0.1875,-0.59375 -0.13557,-0.90141 -0.0902,-2.55162 0.0937,-3.65625 0.31226,-1.87476 0.36675,-1.93469 0.75,-0.71875 0.27052,0.85824 0.34421,0.43522 0.1875,-1.28125 -0.17852,-1.95538 -0.13768,-2.34466 0.25,-1.5625 0.41391,0.83506 0.47563,0.68012 0.28125,-0.78125 -0.13342,-1.00302 0.0812,-3.24929 0.46875,-4.96875 0.43306,-1.92138 0.7418,-2.61308 0.8125,-1.8125 0.10911,1.23548 0.154,1.23257 0.53125,-0.25 0.21876,-0.85974 0.40125,-2.05185 0.40625,-2.625 0.008,-0.81659 -0.0794,-0.73948 -0.40625,0.28125 -0.33038,1.03146 -0.4375,1.07517 -0.4375,0.25 0,-0.57316 0.20805,-1.62731 0.4375,-2.34375 0.35609,-1.1119 0.4174,-1.13953 0.5,-0.25 0.0725,0.78084 0.23155,0.64002 0.59375,-0.53125 0.26592,-0.85973 0.36499,-2.50994 0.21875,-3.65625 -0.20543,-1.61033 -0.14985,-1.83641 0.25,-1.03125 0.39284,0.79107 0.44507,0.4674 0.25,-1.3125 -0.17751,-1.6197 -0.10023,-2.03236 0.21875,-1.3125 0.31848,0.71864 0.42565,0.0582 0.34375,-2.1875 -0.0539,-1.47757 0.0192,-2.5425 0.1875,-3.03125 -1.3142,-0.22484 -4.37187,-0.30075 -10.65625,-0.3125 -8.73979,-0.0163 -11.42778,0.111 -11.3125,0.59375 0.21527,0.90147 -6.70679,16.70335 -7.1875,16.40625 -0.46184,-0.28557 -1.1883,1.31149 -0.7811,1.7187 0.15004,0.15003 0.28125,-0.0241 0.28125,-0.40625 0,-0.3821 0.12724,-0.56027 0.28125,-0.40625 0.46334,0.46334 -0.94264,3 -1.65625,3 -1.18415,0 -1.37966,-2.08045 -1,-10.6875 0.20535,-4.65477 0.23165,-8.90502 0.0625,-9.4375 -0.28785,-0.9062 -1.01217,-0.977 -11.625,-0.9375 z m 43.59375,0.46875 c 0.26788,0.0458 0.46168,0.0973 0.59375,0.15625 -0.23407,-0.55071 -0.44771,-0.5804 -0.59375,-0.15625 z m 0.59375,0.15625 c 0.0357,0.0839 0.057,0.14064 0.0937,0.25 0.16246,0.48484 0.2249,0.47436 0.1875,-0.0312 -0.006,-0.0872 -0.12953,-0.15099 -0.28125,-0.21875 z M 449.375,213.15625 c -1.30954,-0.0125 -3.16753,0.008 -5.28125,0.0312 -3.52981,0.0389 -5.56622,0.11493 -6.65625,0.28125 0.0708,0.14466 0.0102,0.43599 -0.1875,0.8125 -0.26338,0.50151 -0.65852,1.9604 -0.875,3.25 -0.32546,1.93882 -0.46827,2.14295 -0.84375,1.28125 -0.33238,-0.76279 -0.3677,-0.55363 -0.1875,0.78125 0.1354,1.00302 0.0275,2.65323 -0.21875,3.65625 -0.38167,1.55441 -0.4724,1.64154 -0.5625,0.53125 -0.0828,-1.02092 -0.18602,-0.85606 -0.5625,0.75 -0.26422,1.12708 -0.37707,2.28793 -0.25,2.59375 0.12707,0.30581 0.2274,0.005 0.25,-0.6875 0.0226,-0.69256 0.18025,-1.13225 0.34375,-0.96875 0.16351,0.16351 -0.33774,3.52311 -1.125,7.46875 -1.03592,5.19184 -1.55728,6.88102 -1.875,6.15625 -0.30004,-0.68447 -0.34573,-0.41249 -0.15625,0.8125 0.38147,2.46613 -0.78215,8.42374 -1.375,7.03125 -0.27491,-0.64571 -0.35122,-0.15013 -0.1875,1.34375 0.19836,1.80986 0.12782,2.08564 -0.28125,1.28125 -0.4732,-0.93045 -0.48581,-0.88183 -0.25,0.28125 0.14526,0.71644 0.246,1.46547 0.25,1.6875 0.004,0.22202 3.84311,0.3288 8.5,0.25 l 8.46875,-0.125 4.03125,-6 c 4.34124,-6.41189 5.8666,-8.51684 5.28125,-7.34375 -0.2324,0.4657 -0.14961,0.60266 0.21875,0.375 0.31831,-0.19675 0.43156,-0.6708 0.28125,-1.0625 -0.15031,-0.39171 0.0246,-0.90845 0.375,-1.125 0.43423,-0.26837 0.50607,-0.15239 0.21875,0.3125 -0.28103,0.45471 -0.2192,0.53261 0.1875,0.28125 0.33554,-0.20737 0.47372,-0.5829 0.3125,-0.84375 -0.40186,-0.65023 0.74288,-2.66454 1.3125,-2.3125 0.2524,0.15599 0.63638,-0.008 0.84375,-0.34375 0.23547,-0.381 0.15695,-0.45094 -0.21875,-0.21875 -1.09465,0.67653 -0.62402,-0.54914 0.6875,-1.78125 1.61769,-1.51974 2.08137,-0.63661 1.3125,2.375 l -0.5,2.0625 0.25,-2.28125 c 0.19874,-1.69408 0.0918,-2.20674 -0.40625,-2.03125 -0.71019,0.25025 -0.71285,0.41666 -0.21875,4.34375 0.23466,1.86505 0.19016,2.29317 -0.1875,1.53125 -0.41408,-0.83542 -0.47482,-0.68072 -0.28125,0.78125 0.1328,1.00303 -0.18833,3.81409 -0.71875,6.25 -0.53043,2.4359 -1.00205,3.84881 -1.03125,3.15625 -0.0292,-0.69256 -0.16827,-1.14422 -0.3125,-1 -0.14425,0.14422 -0.0894,1.35108 0.0937,2.6875 l 0.3125,2.4375 6.71875,0 6.71875,0 0.34375,-1.65625 c 0.29183,-1.45919 0.39246,-1.54601 0.78125,-0.65625 0.32147,0.73569 0.37361,0.53664 0.1875,-0.6875 -0.14165,-0.93138 -0.1211,-2.42579 0.0625,-3.34375 0.28915,-1.4458 0.38216,-1.53784 0.75,-0.65625 0.26327,0.63112 0.335,0.0219 0.1875,-1.59375 -0.1858,-2.03516 -0.10603,-2.33009 0.28125,-1.3125 0.43949,1.15478 0.4418,1.11669 0.25,-0.5 -0.31225,-2.63201 2.98811,-18.80237 3.5,-17.15625 0.23832,0.76638 0.30115,0.24347 0.15625,-1.34375 -0.14721,-1.61237 -0.10621,-2.22266 0.15625,-1.59375 0.29209,0.69989 0.4877,0.006 0.5625,-2.21875 0.12731,-3.78901 0.23164,-5.22185 0.46875,-5.65625 -1.05347,-0.19991 -3.2579,-0.2523 -8.03125,-0.28125 -4.89638,-0.0297 -9.16789,0.10724 -9.5,0.3125 -0.33211,0.20526 -0.84889,0.90241 -1.15625,1.53125 -0.48142,0.985 -0.41793,0.93472 0.5,-0.1875 1.26991,-1.55255 1.43799,-1.0006 0.25,0.8125 -0.46122,0.7039 -1.01457,1.1455 -1.25,1 -0.23543,-0.1455 -0.60514,0.008 -0.8125,0.34375 -0.23548,0.381 -0.15695,0.48219 0.21875,0.25 0.33085,-0.2045 0.59375,-0.23999 0.59375,-0.0937 0,0.59765 -11.60187,18.03125 -12,18.03125 -1.024,0 -0.94123,-1.42819 0.625,-9.4375 1.0904,-5.576 1.81179,-8.12892 2.0625,-7.46875 0.21124,0.55631 0.30265,-0.32032 0.21875,-1.96875 -0.0832,-1.63505 0.0588,-3.0406 0.3125,-3.125 0.12684,-0.0422 -0.62796,-0.0813 -1.9375,-0.0937 z m 29.90625,0.375 c 0.23806,0.0452 0.42968,0.093 0.5625,0.15625 -0.12311,-0.19776 -0.26752,-0.34375 -0.375,-0.34375 -0.0792,0 -0.12751,0.0776 -0.1875,0.1875 z m 0.5625,0.15625 c 0.099,0.15905 0.1841,0.3702 0.25,0.59375 0.24387,0.82736 0.24725,0.82306 0.15625,-0.0312 -0.0262,-0.2461 -0.11972,-0.426 -0.40625,-0.5625 z m -42.40625,-0.21875 c -0.0361,-0.0737 -0.0821,-0.125 -0.1875,-0.125 -0.1608,0 -0.35636,0.12703 -0.5,0.28125 0.16471,-0.057 0.4019,-0.11267 0.6875,-0.15625 z m -0.71875,0.15625 c -0.2585,0.0936 -0.36523,0.20781 -0.375,0.34375 -0.0357,0.49629 5e-4,0.49521 0.15625,0.0312 0.0476,-0.1418 0.12295,-0.26775 0.21875,-0.375 z m -136.4375,0.1875 c 0.22774,0.22915 0.36815,2.26581 0.28125,4.53125 l -0.15625,4.125 -0.28125,-4.53125 c -0.14088,-2.49459 -0.0715,-4.35415 0.15625,-4.125 z m 70.3125,0.65625 c -0.0892,-0.003 -0.125,0.18365 -0.125,0.5625 0,0.46076 0.29803,0.9492 0.65625,1.09375 0.35822,0.14456 1.95507,0.24915 3.53125,0.21875 l 2.875,-0.0625 -2.875,-0.1875 c -1.88361,-0.12173 -3.10315,-0.46593 -3.53125,-1.03125 -0.29456,-0.38898 -0.44206,-0.59068 -0.53125,-0.59375 z m -93.1875,0.0312 c -0.10661,0.0393 -0.1732,0.3068 -0.15625,0.71875 0.025,0.607 0.14617,0.72816 0.3125,0.3125 0.15055,-0.37613 0.14189,-0.82686 -0.0312,-1 -0.0433,-0.0433 -0.0895,-0.0443 -0.125,-0.0312 z m 33.0625,0.0625 c -0.11344,0.0116 -0.38034,0.33766 -0.6875,0.875 -0.40956,0.71644 -0.75,1.52593 -0.75,1.8125 0,0.28658 0.34044,-0.0648 0.75,-0.78125 0.40955,-0.71645 0.75,-1.52592 0.75,-1.8125 0,-0.0716 -0.0247,-0.0976 -0.0625,-0.0937 z m 140.96875,0.46875 c -0.10661,0.0393 -0.1732,0.3068 -0.15625,0.71875 0.025,0.607 0.14617,0.72816 0.3125,0.3125 0.15055,-0.37613 0.14189,-0.82686 -0.0312,-1 -0.0433,-0.0433 -0.0895,-0.0443 -0.125,-0.0312 z m -118.28125,0.5 c -0.10661,0.0393 -0.1732,0.3068 -0.15625,0.71875 0.025,0.607 0.14617,0.75941 0.3125,0.34375 0.15055,-0.37613 0.14189,-0.82686 -0.0312,-1 -0.0433,-0.0433 -0.0895,-0.0756 -0.125,-0.0625 z m 102.6875,0.15625 c -0.0942,-0.0351 -0.15625,0.24391 -0.15625,0.78125 0,0.71641 0.1367,1.01447 0.28125,0.65625 0.14454,-0.35822 0.14454,-0.92303 0,-1.28125 -0.0361,-0.0896 -0.0936,-0.14455 -0.125,-0.15625 z m 43.78125,0 c -0.0942,-0.0351 -0.15625,0.24391 -0.15625,0.78125 0,0.71641 0.10546,1.01447 0.25,0.65625 0.14455,-0.35822 0.14455,-0.92303 0,-1.28125 -0.0361,-0.0896 -0.0623,-0.14455 -0.0937,-0.15625 z m -101.28125,0.84375 c -0.18101,0.007 -0.35093,0.0697 -0.4375,0.15625 -0.17314,0.17314 0.13823,0.30385 0.6875,0.28125 0.607,-0.025 0.72816,-0.14617 0.3125,-0.3125 -0.18807,-0.0753 -0.38149,-0.13245 -0.5625,-0.125 z m -101.40625,0.1875 c -0.0942,-0.0351 -0.15625,0.27516 -0.15625,0.8125 0,0.71641 0.10546,1.01447 0.25,0.65625 0.14455,-0.35822 0.14455,-0.95428 0,-1.3125 -0.0361,-0.0896 -0.0623,-0.14455 -0.0937,-0.15625 z m 155.28125,0.5313 c -0.0942,-0.0351 -0.15625,0.24391 -0.15625,0.78125 0,0.71641 0.10545,1.01447 0.25,0.65625 0.14454,-0.35822 0.14454,-0.92303 0,-1.28125 -0.0361,-0.0896 -0.0623,-0.14455 -0.0937,-0.15625 z m 26.71875,0.78125 c -0.21705,0 -1.63111,2.05687 -4.78125,6.90625 -0.51194,0.78809 -0.82318,1.4375 -0.6875,1.4375 0.21706,0 1.6311,-2.05687 4.78125,-6.90625 0.51193,-0.78809 0.82318,-1.4375 0.6875,-1.4375 z m 20.125,0.125 c -0.10661,0.0393 -0.1732,0.3068 -0.15625,0.71875 0.025,0.607 0.14617,0.72815 0.3125,0.3125 0.15055,-0.37614 0.14189,-0.82686 -0.0312,-1 -0.0433,-0.0433 -0.0895,-0.0443 -0.125,-0.0312 z m -89.625,0.5 c -0.10661,0.0393 -0.1732,0.33805 -0.15625,0.75 0.025,0.607 0.14617,0.72815 0.3125,0.3125 0.15054,-0.37614 0.14189,-0.82686 -0.0312,-1 -0.0433,-0.0433 -0.0895,-0.0756 -0.125,-0.0625 z m -6.5625,0.1875 c 0.0451,-0.0465 0.24536,0.069 0.625,0.3125 0.71645,0.45948 1.86061,1.91705 2.53125,3.21875 0.67063,1.3017 1.14386,2.78596 1.03125,3.3125 -0.12525,0.58568 -0.38473,0.18316 -0.625,-1.03125 -0.22576,-1.1411 -1.20619,-2.90624 -2.3125,-4.15625 -0.93479,-1.05622 -1.32511,-1.57882 -1.25,-1.65625 z m -74.5625,0.375 c -0.0916,0.0472 -0.20485,0.16007 -0.34375,0.375 -0.2778,0.42987 -0.53125,1.02593 -0.53125,1.3125 0,0.28658 0.25345,0.17987 0.53125,-0.25 0.2778,-0.42987 0.5,-1.02592 0.5,-1.3125 0,-0.14328 -0.0647,-0.17222 -0.15625,-0.125 z m 142.125,0.625 c -0.0942,-0.0351 -0.15625,0.27517 -0.15625,0.8125 0,0.71641 0.13671,1.01447 0.28125,0.65625 0.14455,-0.35822 0.14455,-0.95428 0,-1.3125 -0.0361,-0.0896 -0.0936,-0.14455 -0.125,-0.15625 z M 434.78125,220.75 c -0.10661,0.0393 -0.1732,0.3068 -0.15625,0.71875 0.025,0.607 0.14617,0.72816 0.3125,0.3125 0.15055,-0.37614 0.11064,-0.82686 -0.0625,-1 -0.0433,-0.0433 -0.0582,-0.0443 -0.0937,-0.0312 z m -45.8125,0.15625 c -0.0942,-0.0351 -0.15625,0.24392 -0.15625,0.78125 0,0.71641 0.10546,1.01447 0.25,0.65625 0.14455,-0.35822 0.14455,-0.95428 0,-1.3125 -0.0361,-0.0896 -0.0623,-0.1133 -0.0937,-0.125 z m -113.0625,1.03125 c -0.0942,-0.0351 -0.15625,0.27517 -0.15625,0.8125 0,0.71641 0.10546,0.98322 0.25,0.625 0.14455,-0.35822 0.14455,-0.92303 0,-1.28125 -0.0361,-0.0896 -0.0623,-0.14455 -0.0937,-0.15625 z m 174.03125,0.53125 c -0.0942,-0.0351 -0.15625,0.24392 -0.15625,0.78125 0,0.71641 0.10546,1.01447 0.25,0.65625 0.14455,-0.35822 0.14455,-0.95428 0,-1.3125 -0.0361,-0.0896 -0.0623,-0.1133 -0.0937,-0.125 z m -143.125,0.4375 c -0.11344,0.0116 -0.38034,0.33767 -0.6875,0.875 -0.40956,0.71644 -0.75,1.52592 -0.75,1.8125 0,0.28657 0.34044,-0.0648 0.75,-0.78125 0.40955,-0.71644 0.75,-1.52592 0.75,-1.8125 0,-0.0716 -0.0247,-0.0976 -0.0625,-0.0937 z M 331.125,223.5 c 0.0314,0.0117 0.0576,0.0667 0.0937,0.15625 0.14454,0.35822 0.14454,0.92303 0,1.28125 -0.14455,0.35822 -0.25,0.0914 -0.25,-0.625 0,-0.53731 0.062,-0.8476 0.15625,-0.8125 z m -13.625,0.125 c -0.22944,0.003 -0.59186,0.38536 -1.09375,1.1875 -0.62759,1.00302 -1.1433,2.05717 -1.125,2.34375 0.0183,0.28657 0.28278,-0.0114 0.59375,-0.65625 0.80793,-1.67522 1.30741,-1.43737 1.125,0.53125 -0.13715,1.48008 -0.0826,1.43397 0.375,-0.375 0.49984,-1.97583 0.50741,-3.0366 0.125,-3.03125 z m -42.125,0.90625 c -0.0942,-0.0351 -0.15625,0.27517 -0.15625,0.8125 0,0.71641 0.10546,1.01447 0.25,0.65625 0.14454,-0.35822 0.14454,-0.95428 0,-1.3125 -0.0361,-0.0896 -0.0623,-0.14455 -0.0937,-0.15625 z m 77.3125,0.28125 c 0.6477,-0.004 1.17299,0.15382 1.40625,0.53125 0.18362,0.2971 0.14411,1.54257 -0.0625,2.75 -0.2791,1.63105 -0.45826,1.95036 -0.71875,1.21875 -0.19283,-0.54159 -0.3575,0.51535 -0.375,2.375 -0.0175,1.85965 -0.35333,4.07498 -0.75,4.90625 -0.8827,1.8498 -2.81188,2.16986 -4.59375,0.78125 -1.04836,-0.81698 -1.282,-1.48979 -1.375,-4.03125 -0.12755,-3.48623 0.58527,-5.17699 2.9375,-7.15625 1.02871,-0.86561 2.45175,-1.36832 3.53125,-1.375 z m 16.6875,0 c 1.95843,0 3.69334,1.98508 3.96875,4.5 0.20784,1.8978 0.20316,1.93107 -0.25,0.46875 -0.42954,-1.38609 -0.46302,-1.29935 -0.28125,0.75 0.24018,2.70768 -0.58357,4.54065 -2.875,6.46875 -1.72299,1.44981 -4.37417,1.82978 -4.8125,0.6875 -0.14336,-0.3736 0.11338,-2.52418 0.5625,-4.78125 0.61598,-3.09535 0.92108,-3.8522 1.25,-3.09375 0.28627,0.6601 0.34557,0.34054 0.15625,-0.9375 -0.38278,-2.58401 0.43647,-4.0625 2.28125,-4.0625 z m -17.71875,0.53125 c -1.80206,-0.002 -5.125,3.77612 -5.125,5.8125 0,0.36153 0.51145,-0.37757 1.15625,-1.65625 0.763,-1.51306 1.81312,-2.65709 3,-3.25 1.00301,-0.50107 1.43161,-0.9058 0.96875,-0.90625 z m 1.71875,0 c -0.24688,0 -0.35571,0.59605 -0.21875,1.3125 0.13695,0.71644 0.35887,1.28125 0.46875,1.28125 0.10988,0 0.1875,-0.56481 0.1875,-1.28125 0,-0.71645 -0.19067,-1.3125 -0.4375,-1.3125 z M 370,225.375 c -0.53552,0.0213 -0.38788,0.1936 0.375,0.5 0.65115,0.26153 1.32766,0.86339 1.5,1.3125 0.17234,0.44916 0.43986,0.68514 0.59375,0.53125 0.45822,-0.45822 -1.56893,-2.37955 -2.46875,-2.34375 z m 79.34375,0.0625 c -0.10661,0.0393 -0.14195,0.3068 -0.125,0.71875 0.025,0.607 0.14618,0.72815 0.3125,0.3125 0.15055,-0.37614 0.11064,-0.82686 -0.0625,-1 -0.0433,-0.0433 -0.0895,-0.0443 -0.125,-0.0312 z m -147.96875,0.15625 -0.0937,3.78125 c -0.0812,3.05513 0.0554,3.78125 0.6875,3.78125 0.42987,0 0.78125,-0.24467 0.78125,-0.53125 0,-0.28658 -0.2271,-0.5 -0.5,-0.5 -0.2729,0 -0.58575,-1.49014 -0.6875,-3.28125 l -0.1875,-3.25 z m 176.125,0.375 c -0.10661,0.0393 -0.1732,0.3068 -0.15625,0.71875 0.025,0.607 0.14617,0.72815 0.3125,0.3125 0.15055,-0.37614 0.14189,-0.82686 -0.0312,-1 -0.0433,-0.0433 -0.0895,-0.0443 -0.125,-0.0312 z m -109.9375,0.5 c -0.10661,0.0393 -0.1732,0.33804 -0.15625,0.75 0.025,0.60699 0.14617,0.72816 0.3125,0.3125 0.15055,-0.37614 0.14189,-0.82686 -0.0312,-1 -0.0433,-0.0433 -0.0895,-0.0756 -0.125,-0.0625 z m -62.3125,0.0625 c -0.11344,0.0116 -0.38033,0.36892 -0.6875,0.90625 -0.40955,0.71644 -0.75,1.52592 -0.75,1.8125 0,0.28657 0.34045,-0.0648 0.75,-0.78125 0.40956,-0.71644 0.75,-1.52593 0.75,-1.8125 0,-0.0716 -0.0247,-0.12887 -0.0625,-0.125 z m 147.9375,0.375 c -0.11963,0 -1.14522,1.35218 -2.25,3 l -2,3 -0.34375,-1.5625 c -0.3163,-1.4199 -0.35025,-1.38653 -0.40625,0.625 -0.0339,1.21795 0.0549,2.21875 0.1875,2.21875 0.13261,0 1.14292,-1.35217 2.25,-3 2.45617,-3.65585 2.842,-4.28125 2.5625,-4.28125 z M 274.8125,227 c -0.10662,0.0393 -0.17321,0.30679 -0.15625,0.71875 0.025,0.60699 0.14617,0.72816 0.3125,0.3125 0.15054,-0.37614 0.14189,-0.82686 -0.0312,-1 -0.0433,-0.0433 -0.0895,-0.0443 -0.125,-0.0312 z m 141.78125,0.65625 c -0.0942,-0.0351 -0.1875,0.27517 -0.1875,0.8125 0,0.71641 0.13671,1.01448 0.28125,0.65625 0.14455,-0.35822 0.14455,-0.95428 0,-1.3125 -0.0361,-0.0896 -0.0623,-0.14455 -0.0937,-0.15625 z m 32.28125,0 c -0.0942,-0.0351 -0.15625,0.27517 -0.15625,0.8125 0,0.71641 0.13671,1.01448 0.28125,0.65625 0.14455,-0.35822 0.14455,-0.95428 0,-1.3125 -0.0361,-0.0896 -0.0936,-0.14455 -0.125,-0.15625 z m -15.625,0.53125 c -0.0942,-0.0351 -0.15625,0.27517 -0.15625,0.8125 0,0.71641 0.10545,0.98323 0.25,0.625 0.14454,-0.35822 0.14454,-0.92303 0,-1.28125 -0.0361,-0.0896 -0.0623,-0.14455 -0.0937,-0.15625 z m 43.78125,0 c -0.0942,-0.0351 -0.15625,0.27517 -0.15625,0.8125 0,0.71641 0.10546,0.98323 0.25,0.625 0.14454,-0.35822 0.14454,-0.92303 0,-1.28125 -0.0361,-0.0896 -0.0623,-0.14455 -0.0937,-0.15625 z m -76.125,0.375 c -0.10661,0.0393 -0.1732,0.30679 -0.15625,0.71875 0.025,0.60699 0.14617,0.72816 0.3125,0.3125 0.15055,-0.37613 0.14189,-0.82686 -0.0312,-1 -0.0433,-0.0433 -0.0895,-0.0443 -0.125,-0.0312 z m -84.375,0.65625 c -0.0942,-0.0351 -0.15625,0.27517 -0.15625,0.8125 0,0.71641 0.10546,1.01448 0.25,0.65625 0.14455,-0.35822 0.14455,-0.95428 0,-1.3125 -0.0361,-0.0896 -0.0623,-0.14455 -0.0937,-0.15625 z m 70.375,0.21875 c 0.0285,0.0164 0.061,0.0621 0.0937,0.1875 0.13105,0.50151 0.13105,1.34224 0,1.84375 -0.13106,0.50151 -0.25,0.0968 -0.25,-0.90625 0,-0.75228 0.0708,-1.17416 0.15625,-1.125 z m -72.8125,0.78125 c -0.1521,0.091 -0.52565,0.62274 -0.9375,1.375 -0.54913,1.00302 -1,2.05717 -1,2.34375 0,0.28658 0.45087,-0.30948 1,-1.3125 0.54913,-1.00302 1,-2.05718 1,-2.34375 0,-0.0716 -0.0118,-0.0928 -0.0625,-0.0625 z m 101.96875,0.0625 c -0.0942,-0.0351 -0.15625,0.24392 -0.15625,0.78125 0,0.71641 0.10546,1.01448 0.25,0.65625 0.14455,-0.35822 0.14455,-0.95428 0,-1.3125 -0.0361,-0.0896 -0.0623,-0.1133 -0.0937,-0.125 z m -15.625,0.5 c -0.0942,-0.0351 -0.15625,0.27517 -0.15625,0.8125 0,0.71641 0.10545,1.01448 0.25,0.65625 0.14454,-0.35822 0.14454,-0.95428 0,-1.3125 -0.0361,-0.0896 -0.0623,-0.14455 -0.0937,-0.15625 z m 32.28125,0 c -0.0942,-0.0351 -0.15625,0.27517 -0.15625,0.8125 0,0.71641 0.1367,1.01448 0.28125,0.65625 0.14454,-0.35822 0.14454,-0.95428 0,-1.3125 -0.0361,-0.0896 -0.0936,-0.14455 -0.125,-0.15625 z m 43.78125,0 c -0.0942,-0.0351 -0.15625,0.27517 -0.15625,0.8125 0,0.71641 0.10546,1.01448 0.25,0.65625 0.14454,-0.35822 0.14454,-0.95428 0,-1.3125 -0.0361,-0.0896 -0.0623,-0.14455 -0.0937,-0.15625 z m -124.0625,0.375 c -0.10661,0.0393 -0.1732,0.33804 -0.15625,0.75 0.025,0.60699 0.14617,0.72816 0.3125,0.3125 0.15054,-0.37613 0.14189,-0.82686 -0.0312,-1 -0.0433,-0.0433 -0.0895,-0.0756 -0.125,-0.0625 z m 14.125,0.15625 c -0.0942,-0.0351 -0.15625,0.27517 -0.15625,0.8125 0,0.71641 0.10545,0.98323 0.25,0.625 0.14454,-0.35822 0.14454,-0.92303 0,-1.28125 -0.0361,-0.0896 -0.0623,-0.14455 -0.0937,-0.15625 z m -50.53125,0.53125 c -0.0942,-0.0351 -0.1875,0.24392 -0.1875,0.78125 0,0.71641 0.13671,1.01448 0.28125,0.65625 0.14455,-0.35822 0.14455,-0.95428 0,-1.3125 -0.0361,-0.0896 -0.0623,-0.1133 -0.0937,-0.125 z m -29.1875,1.03125 c -0.0943,-0.0351 -0.15625,0.27517 -0.15625,0.8125 0,0.71642 0.10545,1.01447 0.25,0.65625 0.14454,-0.35823 0.14454,-0.95428 0,-1.3125 -0.0361,-0.0896 -0.0623,-0.14455 -0.0937,-0.15625 z m 128.6875,0 c -0.0942,-0.0351 -0.15625,0.27517 -0.15625,0.8125 0,0.71642 0.10546,1.01447 0.25,0.65625 0.14455,-0.35823 0.14455,-0.95428 0,-1.3125 -0.0361,-0.0896 -0.0623,-0.14455 -0.0937,-0.15625 z m -83.875,0.0937 c -0.0578,0.13503 -0.0937,0.76489 -0.0937,1.75 0,1.57618 0.0994,2.22559 0.21875,1.4375 0.11939,-0.78809 0.11939,-2.08691 0,-2.875 -0.0448,-0.29553 -0.0903,-0.39352 -0.125,-0.3125 z m -2.09375,0.4375 c -0.0942,-0.0351 -0.15625,0.24392 -0.15625,0.78125 0,0.71642 0.10545,1.01447 0.25,0.65625 0.14454,-0.35823 0.14454,-0.95428 0,-1.3125 -0.0361,-0.0896 -0.0623,-0.1133 -0.0937,-0.125 z m 70.34375,0 c -0.0942,-0.0351 -0.15625,0.24392 -0.15625,0.78125 0,0.71642 0.10545,1.01447 0.25,0.65625 0.14454,-0.35823 0.14454,-0.95428 0,-1.3125 -0.0361,-0.0896 -0.0623,-0.1133 -0.0937,-0.125 z m 76.0625,0 c -0.0942,-0.0351 -0.15625,0.24392 -0.15625,0.78125 0,0.71642 0.13671,1.01447 0.28125,0.65625 0.14454,-0.35823 0.14454,-0.95428 0,-1.3125 -0.0361,-0.0896 -0.0936,-0.1133 -0.125,-0.125 z m -43.8125,0.375 c -0.10661,0.0393 -0.1732,0.30679 -0.15625,0.71875 0.025,0.60699 0.14617,0.72816 0.3125,0.3125 0.15055,-0.37613 0.14189,-0.82686 -0.0312,-1 -0.0433,-0.0433 -0.0895,-0.0443 -0.125,-0.0312 z m -80.1875,0.125 c -0.0942,-0.0351 -0.15625,0.27517 -0.15625,0.8125 0,0.71642 0.10546,1.01447 0.25,0.65625 0.14455,-0.35823 0.14455,-0.95428 0,-1.3125 -0.0361,-0.0896 -0.0623,-0.14455 -0.0937,-0.15625 z m 14.0625,0 c -0.0942,-0.0351 -0.15625,0.27517 -0.15625,0.8125 0,0.71642 0.10545,1.01447 0.25,0.65625 0.14454,-0.35823 0.14454,-0.95428 0,-1.3125 -0.0361,-0.0896 -0.0623,-0.14455 -0.0937,-0.15625 z m 5.59375,0.3438 c -0.17086,0.0508 -0.6165,0.45333 -1.25,1.125 -1.81129,1.92042 -4.59375,2.73249 -4.59375,1.34375 0,-0.33439 -0.14051,-0.48448 -0.3125,-0.3125 -0.17204,0.17199 -0.15765,0.56935 0.0312,0.875 0.93483,1.51259 4.7639,-0.17521 6.125,-2.71875 0.12493,-0.23346 0.10251,-0.343 0,-0.3125 z m -56.125,0.1875 c -0.0942,-0.0351 -0.15625,0.27517 -0.15625,0.8125 0,0.71642 0.10546,1.01447 0.25,0.65625 0.14455,-0.35823 0.14455,-0.95428 0,-1.3125 -0.0361,-0.0896 -0.0623,-0.14455 -0.0937,-0.15625 z m -3.4375,0.5 c -0.11758,-0.0173 -0.64578,0.7466 -1.25,1.875 -0.69055,1.2896 -1.25,2.55717 -1.25,2.84375 0,0.28658 0.55945,-0.5229 1.25,-1.8125 0.69054,-1.2896 1.28125,-2.58842 1.28125,-2.875 0,-0.0358 -0.0145,-0.0288 -0.0312,-0.0312 z m 34.46875,0 c -0.0145,0.009 0,0.0331 0,0.0625 0,0.23511 0.48965,0.97994 1.125,1.65625 1.15543,1.22989 3.63768,1.49581 3.8125,0.40625 0.046,-0.28658 -0.006,-0.33994 -0.125,-0.125 -0.49667,0.89399 -2.7344,0.29113 -3.75,-1 -0.51971,-0.6607 -0.96136,-1.06575 -1.0625,-1 z m -60.25,0.40625 c -0.10662,0.0393 -0.1732,0.3068 -0.15625,0.71875 0.025,0.60699 0.14617,0.72816 0.3125,0.3125 0.15054,-0.37613 0.11064,-0.82686 -0.0625,-1 -0.0433,-0.0433 -0.0582,-0.0443 -0.0937,-0.0312 z m 128.6875,0 c -0.10661,0.0393 -0.1732,0.3068 -0.15625,0.71875 0.025,0.60699 0.14618,0.72816 0.3125,0.3125 0.15055,-0.37613 0.14189,-0.82686 -0.0312,-1 -0.0433,-0.0433 -0.0895,-0.0443 -0.125,-0.0312 z m -85.96875,0.5 c -0.10662,0.0393 -0.1732,0.33805 -0.15625,0.75 0.025,0.60699 0.14617,0.72816 0.3125,0.3125 0.15055,-0.37613 0.14189,-0.82686 -0.0312,-1 -0.0433,-0.0433 -0.0895,-0.0756 -0.125,-0.0625 z m 56.96875,0.0312 c -0.24247,0.10944 -0.80999,0.9441 -1.46875,2.21875 -0.35772,0.69217 -0.17645,0.61521 0.53125,-0.25 0.58601,-0.71644 1.0605,-1.52592 1.0625,-1.8125 9.7e-4,-0.13939 -0.0442,-0.19273 -0.125,-0.15625 z M 431.6875,236 c -0.0942,-0.0351 -0.15625,0.27517 -0.15625,0.8125 0,0.71642 0.10545,1.01447 0.25,0.65625 0.14454,-0.35823 0.14454,-0.95428 0,-1.3125 -0.0361,-0.0896 -0.0623,-0.14455 -0.0937,-0.15625 z m 43.78125,0 c -0.0942,-0.0351 -0.15625,0.27517 -0.15625,0.8125 0,0.71642 0.10545,1.01447 0.25,0.65625 0.14454,-0.35823 0.14454,-0.95428 0,-1.3125 -0.0361,-0.0896 -0.0623,-0.14455 -0.0937,-0.15625 z m -76.125,0.375 c -0.10661,0.0393 -0.1732,0.3068 -0.15625,0.71875 0.025,0.60699 0.14617,0.75941 0.3125,0.34375 0.15055,-0.37613 0.14189,-0.82686 -0.0312,-1 -0.0433,-0.0433 -0.0895,-0.0756 -0.125,-0.0625 z m -84.40625,0.53125 c -0.10662,0.0393 -0.1732,0.3068 -0.15625,0.71875 0.025,0.60699 0.14617,0.72816 0.3125,0.3125 0.15054,-0.37613 0.11064,-0.82686 -0.0625,-1 -0.0433,-0.0433 -0.0582,-0.0443 -0.0937,-0.0312 z m 159.9375,1.5625 c -0.10661,0.0393 -0.14195,0.3068 -0.125,0.71875 0.025,0.607 0.14617,0.72816 0.3125,0.3125 0.15055,-0.37613 0.11064,-0.82686 -0.0625,-1 -0.0433,-0.0433 -0.0895,-0.0443 -0.125,-0.0312 z m -76,0.125 c -0.0942,-0.0351 -0.15625,0.27517 -0.15625,0.8125 0,0.71642 0.10545,1.01447 0.25,0.65625 0.14454,-0.35823 0.14454,-0.95428 0,-1.3125 -0.0361,-0.0896 -0.0623,-0.14455 -0.0937,-0.15625 z m -84.40625,0.53125 c -0.0942,-0.0351 -0.1875,0.27517 -0.1875,0.8125 0,0.71642 0.13671,1.01447 0.28125,0.65625 0.14455,-0.35823 0.14455,-0.95428 0,-1.3125 -0.0361,-0.0896 -0.0623,-0.14455 -0.0937,-0.15625 z m 140.9375,0.125 c -0.27499,0.17208 -2.10337,2.75929 -4.6875,6.65625 -2.09036,3.15235 -4.06349,5.91446 -4.375,6.125 -0.3115,0.21055 -4.25065,0.40225 -8.75,0.40625 -7.24653,0.007 -8.2483,-0.0985 -8.71875,-0.90625 -0.2921,-0.50151 -0.52225,-0.6759 -0.53125,-0.375 -0.009,0.30091 0.24985,0.8436 0.59375,1.1875 0.89384,0.8938 16.59164,0.86557 17.71875,-0.0312 0.69669,-0.55433 7.16613,-10.01224 8.46875,-12.375 0.28951,-0.52513 0.37291,-0.74486 0.28125,-0.6875 z m 3.84375,0.25 c -0.10661,0.0393 -0.1732,0.3068 -0.15625,0.71875 0.025,0.607 0.14617,0.75941 0.3125,0.34375 0.15054,-0.37613 0.14189,-0.82686 -0.0312,-1 -0.0433,-0.0433 -0.0895,-0.0756 -0.125,-0.0625 z m -187,0.15625 c -0.0942,-0.0351 -0.15625,0.24392 -0.15625,0.78125 0,0.71642 0.10546,1.01447 0.25,0.65625 0.14454,-0.35823 0.14454,-0.92303 0,-1.28125 -0.0361,-0.0896 -0.0623,-0.14455 -0.0937,-0.15625 z m 110.625,0.28125 c 0.14329,0 -0.13755,0.4581 -0.65625,1.03125 C 381.70005,241.54191 381.14329,242 381,242 c -0.14329,0 0.1688,-0.45809 0.6875,-1.03125 0.5187,-0.57315 1.04421,-1.03125 1.1875,-1.03125 z m -97.59375,0.75 c -0.0943,-0.0351 -0.15625,0.27517 -0.15625,0.8125 0,0.71642 0.10545,1.01447 0.25,0.65625 0.14454,-0.35822 0.14454,-0.95428 0,-1.3125 -0.0361,-0.0896 -0.0623,-0.14455 -0.0937,-0.15625 z m 128.6875,0 c -0.0942,-0.0351 -0.15625,0.27517 -0.15625,0.8125 0,0.71642 0.10546,1.01447 0.25,0.65625 0.14455,-0.35822 0.14455,-0.95428 0,-1.3125 -0.0361,-0.0896 -0.0623,-0.14455 -0.0937,-0.15625 z m -15.625,0.53125 c -0.0942,-0.0351 -0.15625,0.24392 -0.15625,0.78125 0,0.71642 0.10545,1.01447 0.25,0.65625 0.14454,-0.35822 0.14454,-0.92303 0,-1.28125 -0.0361,-0.0896 -0.0623,-0.14455 -0.0937,-0.15625 z m 32.3125,0 C 430.562,241.18364 430.5,241.46267 430.5,242 c 0,0.71642 0.10545,1.01447 0.25,0.65625 0.14454,-0.35822 0.14454,-0.92303 0,-1.28125 -0.0361,-0.0896 -0.0623,-0.14455 -0.0937,-0.15625 z M 308.9375,241.6875 c -0.11758,-0.0173 -0.64578,0.74661 -1.25,1.875 -0.69055,1.2896 -1.25,2.58842 -1.25,2.875 0,0.28658 0.55945,-0.52291 1.25,-1.8125 0.69054,-1.2896 1.28125,-2.58842 1.28125,-2.875 0,-0.0358 -0.0145,-0.06 -0.0312,-0.0625 z m 149.84375,0.0312 c -0.0942,-0.0351 -0.15625,0.27517 -0.15625,0.8125 0,0.71642 0.10546,1.01447 0.25,0.65625 0.14455,-0.35822 0.14455,-0.95428 0,-1.3125 -0.0361,-0.0896 -0.0623,-0.14455 -0.0937,-0.15625 z M 313.875,242.125 c -0.10662,0.0393 -0.1732,0.3068 -0.15625,0.71875 0.025,0.607 0.14617,0.72816 0.3125,0.3125 0.15054,-0.37613 0.14188,-0.82685 -0.0312,-1 -0.0433,-0.0433 -0.0895,-0.0443 -0.125,-0.0312 z m -42.15625,0.125 c -0.0942,-0.0351 -0.15625,0.27517 -0.15625,0.8125 0,0.71642 0.13671,1.01447 0.28125,0.65625 0.14454,-0.35822 0.14454,-0.95428 0,-1.3125 -0.0361,-0.0896 -0.0936,-0.14455 -0.125,-0.15625 z m 62.34375,0.40625 c -0.0332,0.0126 -0.0625,0.0476 -0.0625,0.0937 0,0.18469 1.12305,1.02158 2.46875,1.875 1.34571,0.85342 2.69789,1.5665 3,1.5625 0.30212,-0.003 -0.52402,-0.60731 -1.8125,-1.34375 -1.28849,-0.73644 -2.64067,-1.60803 -3,-1.90625 -0.2695,-0.22366 -0.49422,-0.31906 -0.59375,-0.28125 z m -49.34375,0.5 c -0.10662,0.0393 -0.1732,0.3068 -0.15625,0.71875 0.025,0.607 0.14617,0.72816 0.3125,0.3125 0.15054,-0.37613 0.11064,-0.82685 -0.0625,-1 -0.0433,-0.0433 -0.0582,-0.0443 -0.0937,-0.0312 z m 128.6875,0 c -0.10661,0.0393 -0.1732,0.3068 -0.15625,0.71875 0.025,0.607 0.14617,0.72816 0.3125,0.3125 0.15055,-0.37613 0.14189,-0.82685 -0.0312,-1 -0.0433,-0.0433 -0.0895,-0.0443 -0.125,-0.0312 z m -85.96875,0.53125 c -0.10662,0.0393 -0.1732,0.3068 -0.15625,0.71875 0.025,0.607 0.14617,0.72816 0.3125,0.3125 0.15055,-0.37613 0.14189,-0.82685 -0.0312,-1 -0.0433,-0.0433 -0.0895,-0.0443 -0.125,-0.0312 z m 70.375,0.125 c -0.0942,-0.0351 -0.15625,0.27516 -0.15625,0.8125 0,0.71641 0.1367,1.01447 0.28125,0.65625 0.14454,-0.35822 0.14454,-0.95428 0,-1.3125 -0.0361,-0.0896 -0.0936,-0.14455 -0.125,-0.15625 z m 32.3125,0 c -0.0942,-0.0351 -0.15625,0.27516 -0.15625,0.8125 0,0.71641 0.10545,1.01447 0.25,0.65625 0.14454,-0.35822 0.14454,-0.95428 0,-1.3125 -0.0361,-0.0896 -0.0623,-0.14455 -0.0937,-0.15625 z m -116.71875,0.53125 c -0.0942,-0.0351 -0.15625,0.24391 -0.15625,0.78125 0,0.71641 0.10546,1.01447 0.25,0.65625 0.14455,-0.35822 0.14455,-0.92303 0,-1.28125 -0.0361,-0.0896 -0.0623,-0.14455 -0.0937,-0.15625 z m 144.84375,0 c -0.0942,-0.0351 -0.15625,0.24391 -0.15625,0.78125 0,0.71641 0.13671,1.01447 0.28125,0.65625 0.14455,-0.35822 0.14455,-0.92303 0,-1.28125 -0.0361,-0.0896 -0.0936,-0.14455 -0.125,-0.15625 z M 271.21875,244.875 c -0.0942,-0.0351 -0.1875,0.24391 -0.1875,0.78125 0,0.71641 0.13671,1.01447 0.28125,0.65625 0.14454,-0.35822 0.14454,-0.95428 0,-1.3125 -0.0361,-0.0896 -0.0623,-0.1133 -0.0937,-0.125 z m 13,0.5 c -0.0942,-0.0351 -0.15625,0.27516 -0.15625,0.8125 0,0.71641 0.13671,1.01447 0.28125,0.65625 0.14455,-0.35822 0.14455,-0.95428 0,-1.3125 -0.0361,-0.0896 -0.0936,-0.14455 -0.125,-0.15625 z m 128.71875,0 c -0.0942,-0.0351 -0.15625,0.27516 -0.15625,0.8125 0,0.71641 0.10546,1.01447 0.25,0.65625 0.14455,-0.35822 0.14455,-0.95428 0,-1.3125 -0.0361,-0.0896 -0.0623,-0.14455 -0.0937,-0.15625 z m 60.375,0.90625 c -0.10661,0.0393 -0.14195,0.3068 -0.125,0.71875 0.025,0.607 0.14617,0.72816 0.3125,0.3125 0.15055,-0.37613 0.11064,-0.82685 -0.0625,-1 -0.0433,-0.0433 -0.0895,-0.0443 -0.125,-0.0312 z m -76,0.15625 c -0.0942,-0.0351 -0.1875,0.24391 -0.1875,0.78125 0,0.71641 0.1367,1.01447 0.28125,0.65625 0.14454,-0.35822 0.14454,-0.95427 0,-1.3125 -0.0361,-0.0896 -0.0623,-0.1133 -0.0937,-0.125 z m -50.96875,0.34375 c -0.29441,-0.009 -0.60771,0.0186 -0.96875,0.0312 l -2.78125,0.0937 2.75,0.1875 c 2.55848,0.17899 2.72475,0.27907 2.78125,1.59375 0.0403,0.93709 0.14974,1.09692 0.3125,0.46875 0.43557,-1.68104 -0.0328,-2.31541 -2.09375,-2.375 z m 20.59375,0.0312 c -2.21573,5.5e-4 -3.2379,0.61274 -3.1875,1.90625 0.0223,0.57389 0.18111,0.48086 0.5,-0.3125 0.40518,-1.00804 0.87823,-1.19835 3.46875,-1.28125 l 3.03125,-0.0937 -2.78125,-0.1875 c -0.36496,-0.0253 -0.71472,-0.0313 -1.03125,-0.0312 z m -54.03125,0.125 c -0.0942,-0.0351 -0.1875,0.27516 -0.1875,0.8125 0,0.71641 0.13671,1.01447 0.28125,0.65625 0.14455,-0.35822 0.14455,-0.95427 0,-1.3125 -0.0361,-0.0896 -0.0623,-0.14455 -0.0937,-0.15625 z m -42.28125,0.375 c -0.10662,0.0393 -0.17321,0.33805 -0.15625,0.75 0.025,0.607 0.17742,0.72816 0.34375,0.3125 0.15054,-0.37613 0.11064,-0.82685 -0.0625,-1 -0.0433,-0.0433 -0.0895,-0.0756 -0.125,-0.0625 z M 283.71875,248 c -0.0942,-0.0351 -0.15625,0.24391 -0.15625,0.78125 0,0.71641 0.10546,1.01447 0.25,0.65625 0.14455,-0.35822 0.14455,-0.95427 0,-1.3125 -0.0361,-0.0896 -0.0623,-0.1133 -0.0937,-0.125 z m 128.6875,0 c -0.0942,-0.0351 -0.15625,0.24391 -0.15625,0.78125 0,0.71641 0.10546,1.01447 0.25,0.65625 0.14455,-0.35822 0.14455,-0.95427 0,-1.3125 -0.0361,-0.0896 -0.0623,-0.1133 -0.0937,-0.125 z m -85.96875,0.5 c -0.0942,-0.0351 -0.15625,0.27516 -0.15625,0.8125 0,0.71641 0.10545,1.01447 0.25,0.65625 0.14454,-0.35822 0.14454,-0.95427 0,-1.3125 -0.0361,-0.0896 -0.0623,-0.14455 -0.0937,-0.15625 z m -14.125,0.90625 c -0.10661,0.0393 -0.1732,0.3068 -0.15625,0.71875 0.025,0.607 0.14617,0.72816 0.3125,0.3125 0.15055,-0.37613 0.14189,-0.82685 -0.0312,-1 -0.0433,-0.0433 -0.0895,-0.0443 -0.125,-0.0312 z m 144.96875,0.25 c -0.0412,0.0467 -0.0904,0.24821 -0.15625,0.59375 -0.12693,0.66564 -0.0945,1.55972 0.0625,1.96875 0.22746,0.59274 1.68221,0.75 7.21875,0.75 6.79219,0 8.2304,-0.32947 8.1875,-1.8125 -0.009,-0.3009 -0.23914,-0.12651 -0.53125,0.375 -0.46415,0.7969 -1.43763,0.90625 -7.5625,0.90625 l -7,0 -0.0625,-1.6875 c -0.0338,-0.80581 -0.0875,-1.17162 -0.15625,-1.09375 z m -94.1875,0.875 c 0.0248,0.0205 0.0574,0.0726 0.0625,0.15625 0.0202,0.33478 -0.10729,0.98419 -0.28125,1.4375 -0.18644,0.48586 -0.87568,0.81185 -1.6875,0.78125 l -1.375,-0.0625 1.25,-0.34375 c 0.68989,-0.19302 1.43491,-0.8085 1.65625,-1.375 0.166,-0.42487 0.30055,-0.65511 0.375,-0.59375 z m 48.9375,0.0625 c -0.0875,-0.0164 -0.22558,0.20678 -0.40625,0.65625 -0.45601,1.13457 -0.70172,1.1875 -7.5,1.1875 -6.14086,0 -7.067,-0.10918 -7.53125,-0.90625 -0.2921,-0.50151 -0.5535,-0.6759 -0.5625,-0.375 -0.009,0.30091 0.2811,0.8436 0.625,1.1875 0.42267,0.42267 2.82331,0.625 7.4375,0.625 6.94081,0 8.10315,-0.30484 8.03125,-2.0625 -0.008,-0.18578 -0.0413,-0.30264 -0.0937,-0.3125 z M 326,251.03125 c -0.0991,0.0661 -0.22895,0.24925 -0.375,0.5 -0.45892,0.78792 -1.36949,0.90625 -6.75,0.90625 -4.39679,0 -6.21875,-0.19575 -6.21875,-0.625 0,-0.33429 -0.14051,-0.45323 -0.3125,-0.28125 -0.17203,0.17199 -0.15765,0.56936 0.0312,0.875 0.2117,0.34253 2.6667,0.5625 6.4375,0.5625 5.95812,0 7.4169,-0.36599 7.375,-1.8125 -0.004,-0.15045 -0.0884,-0.19111 -0.1875,-0.125 z"
       id="path4756"
       inkscape:connector-curvature="0"
       inkscape:export-filename="C:\Users\Хирьянов\Dropbox\МФТИ информатика\Python3\kaa_in_mipt.png"
       inkscape:export-xdpi="248.58934"
       inkscape:export-ydpi="248.58934" />
    <path
       style="fill:#66521d;fill-opacity:1;stroke:#000000;stroke-width:1px;stroke-linecap:butt;stroke-linejoin:miter;stroke-opacity:1"
       d="m 479.89286,278.79075 c -6.11836,-1.27783 -16.26568,-7.09807 -26.92747,-1.73831 -12.13852,0.90198 -25.61466,4.62534 -37.73489,5.48077 -12.96065,-0.99954 -25.5985,1.91089 -38.33921,3.39881 -11.95147,-0.61719 -19.39992,0.93205 -31.27009,-0.87759 -12.9697,-2.94711 -28.64587,3.53302 -41.63636,2.27887 -10.38668,0.73248 -24.46104,-8.68382 -30.50512,5.39413 -4.67783,11.89423 -20.90191,17.2665 -29.54224,6.30516 -9.29637,-8.43604 -7.71054,-20.97302 -8.87063,-33.16007 0.0853,-11.65639 -1.13982,-22.59655 -1.99323,-34.25932 -3.42369,9.99833 -5.61817,20.29143 -9.18784,30.23649 -4.18255,6.75069 -8.67477,10.48588 -17.51323,14.7153 -6.06379,0.98252 -21.582,-6.30826 -7.61703,-6.30976 12.45883,-1.74016 12.93728,-18.73466 15.04003,-28.88039 -0.0891,-11.28173 3.22421,-22.17879 5.58746,-32.88541 3.26402,-8.41997 1.53201,-24.53788 14.53953,-23.29981 11.79876,1.67051 14.16369,15.72569 14.65807,25.64033 -0.20033,12.00409 4.34758,23.37944 4.43367,35.37203 1.63642,8.26815 0.34172,22.71813 4.82209,26.92338 8.73189,-10.35537 24.54743,-9.71761 36.9044,-9.00328 11.23962,0.0239 22.21566,2.35605 33.45184,0.90336 10.7752,1.65931 21.33915,0.46492 32.11577,0.37484 16.07152,-0.44897 28.13464,1.53032 46.64207,-1.49302 12.38873,0.0629 27.02434,-0.98265 39.79747,0.61601 10.93426,-0.40549 23.78726,3.33384 33.16922,-2.17796 5.83757,-4.7849 19.10499,-3.80386 20.54711,3.23118 -1.64191,0.9109 -3.88139,1.60597 -5.17877,3.75024 -5.00212,-0.42688 -7.98128,2.26832 -12.32171,3.39318 -1.63972,1.16285 -4.01693,2.24698 -2.94652,5.08944 -0.15123,0.49958 0.30983,0.55747 -0.12439,0.9814 z"
       id="path3078"
       inkscape:connector-curvature="0"
       sodipodi:nodetypes="cccccccccccccccccccccccccccccc"
       inkscape:export-filename="C:\Users\Хирьянов\Dropbox\МФТИ информатика\Python3\kaa_in_mipt.png"
       inkscape:export-xdpi="248.58934"
       inkscape:export-ydpi="248.58934" />
    <path
       style="fill:#000000"
       d="m 444.30522,282.36954 c -0.18857,-0.0107 -0.41474,0.0921 -0.68141,0.31345 -0.5634,0.46757 -0.66779,1.92278 -0.66779,8.94015 0,4.60788 0.14526,8.51302 0.31345,8.68122 0.1682,0.1682 0.60976,0.2482 0.98124,0.17717 0.54341,-0.10391 0.69054,-0.94664 0.79044,-4.32017 0.0979,-3.30761 0.28214,-4.33384 0.87221,-4.85167 1.27905,-1.12246 2.52341,-1.27062 3.54336,-0.4361 0.82891,0.67821 0.95243,1.29222 1.09026,5.04246 0.0864,2.35176 0.27243,4.38817 0.40885,4.52459 0.13641,0.13643 0.55659,0.12841 0.92672,-0.0136 0.54786,-0.21023 0.66779,-1.11021 0.66779,-4.8653 0,-4.37495 -0.052,-4.67198 -1.11752,-5.73751 -0.94938,-0.94938 -1.40543,-1.08475 -2.94371,-0.89947 -1.00116,0.12059 -2.12056,0.29315 -2.48035,0.38159 -0.52939,0.13014 -0.67135,-0.47436 -0.77681,-3.12087 -0.10575,-2.65344 -0.361,-3.78392 -0.92673,-3.81592 z m -6.44618,2.95733 c -0.39454,0.0504 -0.84026,0.64169 -1.063,1.7308 -0.17008,0.8316 -0.51761,1.57625 -0.77681,1.66265 -0.67724,0.22575 -0.58598,1.19283 0.17716,1.82619 0.49329,0.40938 0.65416,1.52159 0.65416,4.49733 0,3.06002 0.16264,4.12422 0.7223,4.74264 0.39696,0.43864 1.31697,0.79044 2.04424,0.79044 l 1.32195,0 -1.18566,-1.24017 c -1.13034,-1.17982 -1.18428,-1.42797 -1.06301,-4.90618 0.11572,-3.31912 0.2149,-3.69847 1.10389,-4.08849 1.27407,-0.55896 1.24136,-1.02658 -0.10902,-1.53999 -0.88414,-0.33615 -1.09027,-0.70363 -1.09027,-1.97611 0,-1.06064 -0.34138,-1.54952 -0.73593,-1.49911 z m 34.54771,3.20265 c -0.53207,-0.0245 -1.104,0.0735 -1.92159,0.27257 -3.46515,0.84378 -3.73712,1.24481 -3.91132,5.71025 -0.0841,2.15601 -0.03,4.42066 0.12266,5.02883 0.18491,0.73676 0.524,1.04934 1.02212,0.95398 0.6401,-0.12253 0.77018,-0.79914 0.87221,-4.71538 0.13233,-5.07931 0.43218,-5.66937 2.95734,-5.66937 2.11044,0 2.49875,0.84006 2.72565,5.94193 0.17411,3.91474 0.29637,4.55818 0.89947,4.44282 0.58282,-0.11148 0.72594,-0.89675 0.83133,-4.49733 0.1637,-5.59316 -8.8e-4,-6.22404 -1.93522,-7.03219 -0.63648,-0.26595 -1.13058,-0.41164 -1.66265,-0.43611 z m -12.82422,0.12265 c -4.19444,0.10999 -6.38794,4.36492 -4.5791,8.88565 0.39249,0.98092 1.21703,2.03914 1.85344,2.38495 0.63054,0.34261 1.99573,0.63093 3.03911,0.64053 1.57816,0.0145 2.13798,-0.23002 3.33893,-1.43097 3.71993,-3.71993 1.31988,-10.61053 -3.65238,-10.48016 z m -43.14715,0.0954 c -2.62108,0.0783 -4.58701,0.85737 -5.04246,2.04425 -0.52741,1.37439 -0.30186,14.3758 0.25893,14.9366 0.97132,0.97131 1.42916,0.26181 1.64903,-2.56212 0.17096,-2.19588 0.3593,-2.77507 0.87221,-2.65752 2.59804,0.59545 3.34637,0.53181 4.79715,-0.44973 1.91471,-1.29541 2.7807,-3.67064 2.38495,-6.55521 -0.32734,-2.38597 -2.13806,-4.6694 -3.76141,-4.74264 -0.39862,-0.018 -0.78396,-0.0248 -1.1584,-0.0136 z m 8.27237,0.16354 c -0.2006,-0.0165 -0.4388,0.10775 -0.73593,0.35434 -0.75446,0.62614 -0.9056,7.50477 -0.20442,9.349 0.61048,1.6057 2.97488,2.51829 5.206,2.01699 2.00445,-0.45037 2.20779,-0.33117 2.20779,1.29468 0,1.17877 -1.6788,3.01035 -2.78017,3.02548 -0.87071,0.012 -1.69705,0.75714 -1.39009,1.25381 0.41609,0.67323 1.04149,0.59927 3.20265,-0.3816 2.81531,-1.27776 3.19942,-2.57803 3.05273,-10.38475 -0.11438,-6.0879 -0.16762,-6.41892 -0.99486,-6.41892 -0.80927,0 -0.8843,0.33046 -0.99487,4.5791 -0.13062,5.01948 -0.44639,5.66937 -2.7938,5.66937 -2.34013,0 -2.97096,-1.24065 -2.97096,-5.86016 0,-3.13498 -0.20228,-4.44773 -0.80407,-4.49734 z m 35.06558,1.19929 c 1.12907,0 2.59512,1.55769 2.97096,3.14814 0.34025,1.43981 -0.30864,4.61728 -1.10389,5.36954 -1.21901,1.15313 -2.48488,1.18113 -3.59786,0.0681 -2.76973,-2.76972 -1.59717,-8.58582 1.73079,-8.58582 z m -44.07388,0.0409 c 1.14723,-0.0446 2.28462,0.41809 2.71203,1.26743 1.08505,2.1562 0.54283,6.54157 -0.92672,7.52282 -0.68561,0.45779 -2.52592,0.38487 -3.4207,-0.13628 -0.63117,-0.36762 -0.76318,-1.08069 -0.76318,-4.11575 0,-3.25116 0.10891,-3.71991 0.89946,-4.143 0.46381,-0.24822 0.97764,-0.37493 1.49911,-0.39522 z"
       id="path4770"
       inkscape:connector-curvature="0"
       inkscape:export-filename="C:\Users\Хирьянов\Dropbox\МФТИ информатика\Python3\kaa_in_mipt.png"
       inkscape:export-xdpi="248.58934"
       inkscape:export-ydpi="248.58934" />
    <path
       style="fill:#252324;fill-opacity:1;stroke:#000000;stroke-width:1px;stroke-linecap:butt;stroke-linejoin:miter;stroke-opacity:1"
       d="m 488.15625,263.03125 c -0.23248,10e-4 -0.45541,0.0107 -0.6875,0.0312 -0.75553,0.26848 -1.43792,0.9442 -1.59375,1.75 -0.19465,1.12254 0.6164,2.09461 1.3125,2.875 0.65413,0.64218 1.17281,1.41308 1.78125,2.09375 0.15534,0.14006 0.27888,0.30639 0.40625,0.46875 1.7649,-0.66176 3.61895,-1.1327 5.90625,-0.9375 0.50369,-0.83248 1.14616,-1.44445 1.84375,-1.9375 -0.0602,-0.61284 -0.40379,-1.1829 -0.78125,-1.65625 -0.35513,-0.66978 -1.1327,-0.79332 -1.78125,-1.03125 -0.60797,-0.46826 -0.90009,-1.32767 -1.65625,-1.65625 -0.88334,0.008 -1.77287,0.0322 -2.65625,0.0312 -0.69736,0.0415 -1.3963,-0.0355 -2.09375,-0.0312 z"
       id="path3964"
       inkscape:connector-curvature="0"
       inkscape:export-filename="C:\Users\Хирьянов\Dropbox\МФТИ информатика\Python3\kaa_in_mipt.png"
       inkscape:export-xdpi="248.58934"
       inkscape:export-ydpi="248.58934" />
    <g
       id="g3083"
       transform="translate(-84.71428,-117.85715)"
       inkscape:export-filename="C:\Users\Хирьянов\Dropbox\МФТИ информатика\Python3\kaa_in_mipt.png"
       inkscape:export-xdpi="248.58934"
       inkscape:export-ydpi="248.58934">
      <path
         sodipodi:nodetypes="ccccccccccccccccccccc"
         inkscape:connector-curvature="0"
         id="path3063"
         d="m 579.73014,387.55554 c 0.27339,-0.96863 1.30035,-1.38583 1.96376,-2.04892 0.62453,-0.52869 1.03478,-1.26354 1.82337,-1.58896 0.576,-0.39059 1.13738,-0.76321 1.79653,-0.9981 0.89848,-0.44342 1.76338,-1.00326 2.77832,-1.13769 0.75829,-0.11728 1.50767,-0.32926 2.27963,-0.28233 0.83483,0.008 1.78647,-0.13717 2.48219,0.432 0.76051,0.53986 1.32328,1.43392 1.27347,2.39101 -0.0529,0.51924 0.0975,1.07768 -0.10116,1.56775 -0.4423,0.57397 -1.49238,1.01272 -2.13505,1.0234 -0.80744,0.0824 -1.91196,-0.052 -2.69797,-0.1815 -0.71135,-0.0613 -1.27305,-0.0327 -1.98509,-0.14689 -0.75466,-0.0756 -0.98145,0.042 -1.7359,0.008 -0.73344,0.0571 -1.48842,-0.17858 -1.97343,0.33461 -0.37869,0.61097 11.24744,1.67129 11.98405,2.00665 0.46223,0.23616 0.57364,5.6657 0.75247,6.15865 0.23379,0.68186 -12.0426,-3.62286 -12.62001,-3.92607 -0.91256,-0.36492 -1.45622,-1.27661 -2.34802,-1.68659 -0.55723,-0.27513 -1.10123,-0.63462 -1.43045,-1.15545 -0.20075,-0.19184 -0.20072,-0.52609 -0.10671,-0.76925 z"
         style="fill:#a3a2a8;fill-opacity:1;stroke:#000000;stroke-width:1px;stroke-linecap:butt;stroke-linejoin:miter;stroke-opacity:1" />
      <path
         inkscape:connector-curvature="0"
         id="path3029"
         d="m 594.42857,387.71932 c 5.02253,1.32217 10.24206,0.49525 15.35715,0.71429 2.51478,-1.3208 6.11358,-0.005 4.74929,3.31907 -0.0377,2.37206 -0.6246,4.75816 -1.99266,6.71914 0.70903,-2.92248 5.87458,-2.81025 4.28674,0.78098 -1.49287,1.74724 -4.21491,2.38105 -4.53208,5.22624 -1.95759,3.23672 -6.43362,3.44013 -9.75655,4.44283 -3.67315,0.1339 -6.8958,2.4785 -10.56207,2.48058 -3.76576,1.34704 -7.8017,0.24783 -11.68804,0.54145 -3.52638,0.0159 -7.27907,0.64161 -10.57533,-0.96971 -2.73168,-2.77485 -2.88395,-6.9714 -2.7127,-10.61934 -0.61145,-3.05061 -2.96959,-5.12126 -5.38857,-6.90949 -1.82944,-1.54522 -4.21812,-1.08528 -6.58745,-0.76301 -2.68673,-1.24288 -5.90551,-1.20832 -8.57698,-2.05741 -1.25221,0.74807 -5.38366,0.85508 -2.43406,-0.90453 3.70383,-1.38558 7.69472,-0.86034 11.53286,-1.22142 3.44736,-0.35526 9.46804,-2.77224 11.53637,-5.32933 2.71614,-1.2013 6.56383,-1.79061 8.94377,0.39105 1.359,2.6788 3.39351,4.76197 6.19113,6.03297 1.3079,3.34202 5.11981,2.03817 7.86448,2.9006 2.73016,0.36963 4.01557,-2.55126 4.3447,-4.77496 z"
         style="fill:#e3e1c9;fill-opacity:1;stroke:#000000;stroke-width:1px;stroke-linecap:butt;stroke-linejoin:miter;stroke-opacity:1"
         sodipodi:nodetypes="ccccccccccccccccccccc" />
      <path
         sodipodi:nodetypes="ccczccc"
         inkscape:connector-curvature="0"
         id="path3035"
         d="m 566.92857,391.6479 c 0.49126,-0.15568 6.47259,-2.73837 6.27961,1.50531 -0.0233,3.219 4.11841,6.24504 7.1937,6.37245 3.10213,0.86964 4.63819,0.75855 8.98633,0.89232 4.34814,0.13377 9.79441,0.0912 14.68962,0.15848 2.13518,-0.67822 3.35682,-0.17249 5.0682,-1.02365 1.03512,-0.62191 3.35295,-1.68556 3.35295,-1.68556"
         style="fill:none;stroke:#000000;stroke-width:1px;stroke-linecap:butt;stroke-linejoin:miter;stroke-opacity:1" />
      <path
         inkscape:connector-curvature="0"
         id="path3037"
         d="m 602.28572,389.50504 c 1.38743,1.05847 1.07795,2.90509 1.14037,4.41015 -0.10878,1.50974 -0.75509,2.90799 -1.0149,4.36034 -0.31211,0.59384 -0.72722,1.24535 -0.48262,1.94379"
         style="fill:none;stroke:#000000;stroke-width:1px;stroke-linecap:butt;stroke-linejoin:miter;stroke-opacity:1" />
      <path
         sodipodi:nodetypes="cc"
         inkscape:connector-curvature="0"
         id="path3046"
         d="m 610.70599,393.8131 -0.54654,1.65944"
         style="fill:none;stroke:#000000;stroke-width:1px;stroke-linecap:round;stroke-linejoin:miter;stroke-opacity:1" />
      <path
         sodipodi:nodetypes="czszzc"
         inkscape:connector-curvature="0"
         id="path3052"
         d="m 567.46429,394.1479 c 0.55889,1.61028 1.74605,2.57298 2.89578,4.17815 1.14973,1.60517 0.75279,4.52299 1.46738,6.39453 1.4592,3.8217 11.95332,2.77699 15.75849,2.71549 3.80518,-0.0615 8.73069,-0.58898 10.72308,-1.77179 1.99239,-1.18281 1.76566,-1.39778 2.54823,-1.91693"
         style="fill:none;stroke:#000000;stroke-width:1px;stroke-linecap:butt;stroke-linejoin:miter;stroke-opacity:1" />
      <path
         inkscape:connector-curvature="0"
         id="path3059"
         d="m 582.82374,387.4924 c 0.43076,0.4997 0.69884,1.19593 1.1863,1.57988 0.48746,0.38395 0.79059,0.77588 1.19446,1.12251 0.5204,0.31984 1.06064,0.61142 1.5305,1.00296 0.78239,0.43315 1.71865,0.42033 2.58795,0.40666 0.62589,-0.0408 0.81431,-0.16255 1.78262,-0.58152 0.96831,-0.41897 1.91135,-1.4057 2.52724,-2.38734 0.33028,-0.52643 0.44502,-1.16982 0.56306,-1.77732 -0.14197,-0.52552 -0.82799,-0.33271 -1.23708,-0.3553 -1.31431,-0.0421 -2.89897,0.19487 -3.94953,-0.0209 -1.05056,-0.21577 -1.56497,-0.0847 -2.34031,-0.18939 -0.94555,-3e-5 -2.03315,-0.2921 -2.83665,-1e-5 -0.27168,0.43257 -1.18358,0.41159 -1.00513,1.11317 l -0.003,0.0866 0,0 z"
         style="fill:#c6ba62;fill-opacity:1;stroke:#000000;stroke-width:1px;stroke-linecap:butt;stroke-linejoin:round;stroke-opacity:1"
         sodipodi:nodetypes="czccczacczcccccc" />
      <path
         style="fill:none;stroke:#000000;stroke-width:1.60000002;stroke-linecap:round;stroke-linejoin:round;stroke-miterlimit:4;stroke-dasharray:none;stroke-opacity:1"
         d="m 590.87339,387.46083 c 0.0469,0.45756 0.15685,0.45786 0.0631,0.91542 -0.0319,0.0592 -0.1343,0.44292 -0.1584,0.50509"
         id="path3061"
         inkscape:connector-curvature="0"
         sodipodi:nodetypes="ccc" />
    </g>
    <path
       style="fill:#d8d393;fill-opacity:1;stroke:#000000;stroke-width:1px;stroke-linecap:butt;stroke-linejoin:miter;stroke-opacity:1"
       d="m 222.34375,266.5625 c -0.11517,-0.17504 -0.26036,-0.32457 -0.375,-0.5 -0.87834,-1.34414 -1.98332,-2.95779 -3.04928,-4.16317 -0.85912,3.60058 -2.64858,6.39669 -5.33868,9.03905 -2.69009,2.64235 -3.39735,3.64989 -7.22172,5.53247 4.97482,0.80417 12.01322,-5.14785 12.01322,-5.14785 l -1.1875,-1.16675 -1.39575,-1.87771 c 0.21534,0.59674 2.1266,2.49989 2.55632,3.03854 0.0643,0.0805 0.87953,-0.76153 1.15093,-1.04743 1.41274,-1.58066 2.0441,-1.55114 2.84746,-3.70715 z"
       id="path4437"
       inkscape:connector-curvature="0"
       sodipodi:nodetypes="csczccccscc"
       inkscape:export-filename="C:\Users\Хирьянов\Dropbox\МФТИ информатика\Python3\kaa_in_mipt.png"
       inkscape:export-xdpi="248.58934"
       inkscape:export-ydpi="248.58934" />
    <path
       style="fill:#d8d393;fill-opacity:1;stroke:#000000;stroke-width:1px;stroke-linecap:butt;stroke-linejoin:miter;stroke-opacity:1"
       d="m 224.65625,259.25 c -0.0231,-0.0296 -0.0393,-0.0642 -0.0625,-0.0937 -0.73562,-0.93452 -1.54219,-1.8078 -2.4375,-2.5625 -0.60185,-0.50733 -1.32331,-0.86933 -2.03125,-1.25 -0.1984,1.71374 -0.62235,3.11286 -0.76803,4.91045 -0.0932,0.57218 -0.15369,1.51279 -0.28335,2.0562 1.06596,1.20538 2.01679,2.40796 2.89513,3.7521 0.11464,0.17543 0.25983,0.32496 0.375,0.5 0.64773,-1.52805 1.2607,-3.08573 1.53125,-4.71875 0.30608,-0.85274 0.49375,-1.73654 0.78125,-2.59375 z"
       id="path4435"
       inkscape:connector-curvature="0"
       sodipodi:nodetypes="ccscccsccc"
       inkscape:export-filename="C:\Users\Хирьянов\Dropbox\МФТИ информатика\Python3\kaa_in_mipt.png"
       inkscape:export-xdpi="248.58934"
       inkscape:export-ydpi="248.58934" />
    <path
       style="fill:#d8d393;fill-opacity:1;stroke:#000000;stroke-width:1px;stroke-linecap:butt;stroke-linejoin:miter;stroke-opacity:1"
       d="m 226.6875,252.78125 c -0.61893,-0.82859 -1.27157,-1.62341 -1.90625,-2.4375 -0.71029,-0.91107 -1.44082,-1.7813 -2.25,-2.59375 -0.46158,-0.46345 -1.01613,-0.84036 -1.53125,-1.25 -0.0944,0.40606 -0.26381,0.8168 -0.34375,1.21875 0.0198,2.57574 -0.23789,5.09098 -0.53125,7.625 0.70794,0.38067 1.4294,0.74267 2.03125,1.25 0.89531,0.7547 1.70188,1.62798 2.4375,2.5625 0.0232,0.0295 0.0394,0.0641 0.0625,0.0937 0.7196,-2.1456 1.39203,-4.30353 2.03125,-6.46875 z"
       id="path4433"
       inkscape:connector-curvature="0"
       inkscape:export-filename="C:\Users\Хирьянов\Dropbox\МФТИ информатика\Python3\kaa_in_mipt.png"
       inkscape:export-xdpi="248.58934"
       inkscape:export-ydpi="248.58934" />
    <path
       style="fill:#d8d393;fill-opacity:1;stroke:#000000;stroke-width:1px;stroke-linecap:butt;stroke-linejoin:miter;stroke-opacity:1"
       d="m 228.8125,245.84375 c -0.49368,-0.65043 -0.98647,-1.28882 -1.59375,-1.875 -0.83145,-0.80256 -1.69344,-1.58035 -2.5,-2.40625 -0.61157,-0.62623 -1.10419,-1.33886 -1.5625,-2.0625 -0.87568,2.30538 -1.61043,4.65172 -2.15625,7 0.51512,0.40964 1.06967,0.78655 1.53125,1.25 0.80918,0.81245 1.53971,1.68268 2.25,2.59375 0.63468,0.81409 1.28732,1.60891 1.90625,2.4375 0.68408,-2.3172 1.47192,-4.61205 2.125,-6.9375 z"
       id="path4431"
       inkscape:connector-curvature="0"
       inkscape:export-filename="C:\Users\Хирьянов\Dropbox\МФТИ информатика\Python3\kaa_in_mipt.png"
       inkscape:export-xdpi="248.58934"
       inkscape:export-ydpi="248.58934" />
    <path
       style="fill:#d8d393;fill-opacity:1;stroke:#000000;stroke-width:1px;stroke-linecap:butt;stroke-linejoin:miter;stroke-opacity:1"
       d="m 231.03125,238.40625 c -0.84406,-1.07413 -1.60841,-2.2032 -2.1875,-3.4375 -0.6394,-1.36285 -1.15876,-2.78509 -1.6875,-4.1875 -1.31686,2.49177 -2.69306,5.27801 -4,8.71875 0.45831,0.72364 0.95093,1.43627 1.5625,2.0625 0.80656,0.8259 1.66855,1.60369 2.5,2.40625 0.60728,0.58618 1.10007,1.22457 1.59375,1.875 0.69885,-2.48844 1.48058,-4.95706 2.21875,-7.4375 z"
       id="path4429"
       inkscape:connector-curvature="0"
       inkscape:export-filename="C:\Users\Хирьянов\Dropbox\МФТИ информатика\Python3\kaa_in_mipt.png"
       inkscape:export-xdpi="248.58934"
       inkscape:export-ydpi="248.58934" />
    <path
       style="fill:#d8d393;fill-opacity:1;stroke:#000000;stroke-width:1px;stroke-linecap:butt;stroke-linejoin:miter;stroke-opacity:1"
       d="m 477.34375,272.375 c -0.31175,1.94904 -0.55124,3.90731 -0.71875,5.875 -0.16751,1.96769 -0.39782,3.92728 -0.71875,5.875 1.12858,-0.43532 2.31257,-2.19081 4,-5.34375 0.43422,-0.42393 -0.0262,-0.46917 0.125,-0.96875 -0.58104,-1.54295 -0.15629,-2.57443 0.625,-3.375 -0.21334,-0.14241 -0.45214,-0.23825 -0.71875,-0.28125 -0.64228,-1.05064 -1.56362,-1.53168 -2.59375,-1.78125 z"
       id="path4427"
       inkscape:connector-curvature="0"
       inkscape:export-filename="C:\Users\Хирьянов\Dropbox\МФТИ информатика\Python3\kaa_in_mipt.png"
       inkscape:export-xdpi="248.58934"
       inkscape:export-ydpi="248.58934" />
    <path
       style="fill:#d8d393;fill-opacity:1;stroke:#000000;stroke-width:1px;stroke-linecap:butt;stroke-linejoin:miter;stroke-opacity:1"
       d="m 472.15625,272.4375 c 0.13216,1.65579 0.30146,3.30416 0.34375,4.96875 0.0321,1.2613 0.0766,2.5033 0.21875,3.75 0.0514,0.45042 0.20312,0.89674 0.28125,1.34375 1.08324,1.2676 2.0076,1.97163 2.90625,1.625 0.32093,-1.94772 0.55124,-3.90731 0.71875,-5.875 0.16751,-1.96769 0.407,-3.92596 0.71875,-5.875 -1.55258,-0.37615 -3.38402,-0.15046 -5.1875,0.0625 z"
       id="path4425"
       inkscape:connector-curvature="0"
       inkscape:export-filename="C:\Users\Хирьянов\Dropbox\МФТИ информатика\Python3\kaa_in_mipt.png"
       inkscape:export-xdpi="248.58934"
       inkscape:export-ydpi="248.58934" />
    <path
       style="fill:#d8d393;fill-opacity:1;stroke:#000000;stroke-width:1px;stroke-linecap:butt;stroke-linejoin:miter;stroke-opacity:1"
       d="m 466.75,272.375 c 0.0164,1.62615 -10e-4,3.24775 -0.0312,4.875 -0.0148,0.80301 0.0804,1.6044 0.0937,2.40625 2.40741,0.24327 4.50532,0.73797 5.375,1.9375 0.30888,0.42603 0.53534,0.58192 0.8125,0.90625 -0.0781,-0.44701 -0.22989,-0.89333 -0.28125,-1.34375 -0.14217,-1.2467 -0.1867,-2.4887 -0.21875,-3.75 -0.0423,-1.66459 -0.21159,-3.31296 -0.34375,-4.96875 -1.47423,0.17408 -2.91189,0.2994 -4.09375,-0.0312 -0.29126,0.0476 -0.91755,-0.028 -1.3125,-0.0312 z"
       id="path4423"
       inkscape:connector-curvature="0"
       inkscape:export-filename="C:\Users\Хирьянов\Dropbox\МФТИ информатика\Python3\kaa_in_mipt.png"
       inkscape:export-xdpi="248.58934"
       inkscape:export-ydpi="248.58934" />
    <path
       style="fill:#d8d393;fill-opacity:1;stroke:#000000;stroke-width:1px;stroke-linecap:butt;stroke-linejoin:miter;stroke-opacity:1"
       d="m 462.375,272.34375 c -0.05,1.42994 -0.11455,2.85987 -0.3125,4.28125 -0.1344,0.96508 -0.0886,1.93821 -0.15625,2.90625 1.77667,-0.10804 3.35947,-0.0313 4.90625,0.125 -0.0134,-0.80185 -0.10856,-1.60324 -0.0937,-2.40625 0.03,-1.62725 0.0476,-3.24885 0.0312,-4.875 -1.21976,-0.0101 -2.6206,-0.0725 -4.375,-0.0312 z"
       id="path4421"
       inkscape:connector-curvature="0"
       inkscape:export-filename="C:\Users\Хирьянов\Dropbox\МФТИ информатика\Python3\kaa_in_mipt.png"
       inkscape:export-xdpi="248.58934"
       inkscape:export-ydpi="248.58934" />
    <path
       style="fill:#d8d393;fill-opacity:1;stroke:#000000;stroke-width:1px;stroke-linecap:butt;stroke-linejoin:miter;stroke-opacity:1"
       d="m 455.5,273.28125 0,7.03125 c 2.03573,-0.3729 4.16696,-0.64508 6.40625,-0.78125 0.0676,-0.96804 0.0218,-1.94117 0.15625,-2.90625 0.19795,-1.42138 0.26247,-2.85131 0.3125,-4.28125 -1.41032,0.0331 -2.86298,0.17998 -4.21875,0.71875 -1.14673,-0.0123 -1.85248,0.12737 -2.65625,0.21875 z"
       id="path4419"
       inkscape:connector-curvature="0"
       inkscape:export-filename="C:\Users\Хирьянов\Dropbox\МФТИ информатика\Python3\kaa_in_mipt.png"
       inkscape:export-xdpi="248.58934"
       inkscape:export-ydpi="248.58934" />
    <path
       style="fill:#d8d393;fill-opacity:1;stroke:#000000;stroke-width:1px;stroke-linecap:butt;stroke-linejoin:miter;stroke-opacity:1"
       d="m 449.71875,274.625 c -0.0267,1.246 -0.0549,2.47358 -0.0312,3.71875 0.018,0.94703 0.0897,1.89946 0.28125,2.8125 0.57178,-0.0373 1.14727,-0.02 1.71875,-0.0625 1.03588,-0.28002 2.44619,-0.53097 3.8125,-0.78125 l 0,-7.03125 c -2.65977,0.30238 -4.0454,0.93886 -5.78125,1.34375 z"
       id="path4417"
       inkscape:connector-curvature="0"
       inkscape:export-filename="C:\Users\Хирьянов\Dropbox\МФТИ информатика\Python3\kaa_in_mipt.png"
       inkscape:export-xdpi="248.58934"
       inkscape:export-ydpi="248.58934" />
    <path
       style="fill:#d8d393;fill-opacity:1;stroke:#000000;stroke-width:1px;stroke-linecap:butt;stroke-linejoin:miter;stroke-opacity:1"
       d="m 439.90625,274.71875 c -0.11203,1.61676 -0.29889,3.24555 -0.34375,4.875 -0.0187,0.67877 0.0673,1.33214 0.125,2 3.42769,-0.10059 6.8601,-0.21436 10.28125,-0.4375 -0.19158,-0.91304 -0.26324,-1.86547 -0.28125,-2.8125 -0.0237,-1.24517 0.005,-2.47275 0.0312,-3.71875 -0.94737,0.22097 -2.04544,0.36359 -3.71875,0.25 -2.68103,-0.0589 -4.09154,-0.13566 -6.09375,-0.15625 z"
       id="path4415"
       inkscape:connector-curvature="0"
       inkscape:export-filename="C:\Users\Хирьянов\Dropbox\МФТИ информатика\Python3\kaa_in_mipt.png"
       inkscape:export-xdpi="248.58934"
       inkscape:export-ydpi="248.58934" />
    <path
       style="fill:#d8d393;fill-opacity:1;stroke:#000000;stroke-width:1px;stroke-linecap:butt;stroke-linejoin:miter;stroke-opacity:1"
       d="m 428.25,274.0625 c 0.0138,0.73303 0.0435,1.44929 -0.0312,2.1875 -0.11533,1.1389 -0.30321,2.30077 -0.4375,3.4375 -0.0945,0.79999 -0.088,1.5835 -0.0937,2.375 4.00194,-0.10897 7.99631,-0.35125 12,-0.46875 -0.0577,-0.66786 -0.14369,-1.32123 -0.125,-2 0.0449,-1.62945 0.23172,-3.25824 0.34375,-4.875 -2.69022,-0.0277 -5.78779,-0.008 -8.1875,-0.21875 -1.14608,-0.12463 -2.31813,-0.28956 -3.46875,-0.4375 z"
       id="path4413"
       inkscape:connector-curvature="0"
       inkscape:export-filename="C:\Users\Хирьянов\Dropbox\МФТИ информатика\Python3\kaa_in_mipt.png"
       inkscape:export-xdpi="248.58934"
       inkscape:export-ydpi="248.58934" />
    <path
       style="fill:#d8d393;fill-opacity:1;stroke:#000000;stroke-width:1px;stroke-linecap:butt;stroke-linejoin:miter;stroke-opacity:1"
       d="m 419.3125,273.5 c -0.40305,1.90654 -0.90425,3.84909 -1.0625,5.8125 -0.0842,1.04473 -0.005,2.07177 0.125,3.09375 3.10119,-0.17112 6.2041,-0.25911 9.3125,-0.34375 0.006,-0.7915 -7.6e-4,-1.57501 0.0937,-2.375 0.13429,-1.13673 0.32217,-2.2986 0.4375,-3.4375 0.0747,-0.73821 0.045,-1.45447 0.0312,-2.1875 -2.84592,-0.36591 -5.8326,-0.52481 -8.9375,-0.5625 z"
       id="path4411"
       inkscape:connector-curvature="0"
       inkscape:export-filename="C:\Users\Хирьянов\Dropbox\МФТИ информатика\Python3\kaa_in_mipt.png"
       inkscape:export-xdpi="248.58934"
       inkscape:export-ydpi="248.58934" />
    <path
       style="fill:#d8d393;fill-opacity:1;stroke:#000000;stroke-width:1px;stroke-linecap:butt;stroke-linejoin:miter;stroke-opacity:1"
       d="m 407.53125,274.03125 c -0.16497,1.55749 -0.38241,3.11892 -0.5625,4.6875 -0.12191,1.06181 -0.16762,2.12678 -0.0312,3.15625 0.0258,0.19513 0.17905,0.36917 0.21875,0.5625 2.67933,-0.0841 5.35707,-0.1149 8.0625,0.0937 1.04994,-0.0741 2.10507,-0.067 3.15625,-0.125 -0.1298,-1.02198 -0.2092,-2.04902 -0.125,-3.09375 0.15825,-1.96341 0.65945,-3.90596 1.0625,-5.8125 -1.22342,-0.0149 -2.35698,-0.17118 -3.65625,-0.0625 -2.6329,0.62317 -5.40165,0.52785 -8.09375,0.59375 -0.0105,2.6e-4 -0.0207,-2.6e-4 -0.0312,0 z"
       id="path4409"
       inkscape:connector-curvature="0"
       inkscape:export-filename="C:\Users\Хирьянов\Dropbox\МФТИ информатика\Python3\kaa_in_mipt.png"
       inkscape:export-xdpi="248.58934"
       inkscape:export-ydpi="248.58934" />
    <path
       style="fill:#d8d393;fill-opacity:1;stroke:#000000;stroke-width:1px;stroke-linecap:butt;stroke-linejoin:miter;stroke-opacity:1"
       d="m 394.25,276.03125 c -0.0283,1.27426 -0.0985,2.52406 0.0312,3.78125 0.11046,1.07015 0.3341,2.11641 0.71875,3.09375 0.0701,0.17821 0.23036,0.32633 0.3125,0.5 3.92615,-0.50045 7.88418,-0.84446 11.84375,-0.96875 -0.0397,-0.19333 -0.1929,-0.36737 -0.21875,-0.5625 -0.13637,-1.02947 -0.0907,-2.09444 0.0312,-3.15625 0.18009,-1.56858 0.39753,-3.13001 0.5625,-4.6875 -2.68097,0.0668 -5.28538,0.29785 -7.59375,1.53125 -1.9904,0 -3.80254,0.28994 -5.6875,0.46875 z"
       id="path4407"
       inkscape:connector-curvature="0"
       inkscape:export-filename="C:\Users\Хирьянов\Dropbox\МФТИ информатика\Python3\kaa_in_mipt.png"
       inkscape:export-xdpi="248.58934"
       inkscape:export-ydpi="248.58934" />
    <path
       style="fill:#d8d393;fill-opacity:1;stroke:#000000;stroke-width:1px;stroke-linecap:butt;stroke-linejoin:miter;stroke-opacity:1"
       d="m 381.46875,277.0625 c -0.0181,1.59452 -0.0394,3.18592 -0.0312,4.78125 0.006,1.16235 0.10459,2.30166 0.28125,3.4375 4.53399,-0.62887 9.05561,-1.29654 13.59375,-1.875 -0.0821,-0.17367 -0.24236,-0.32179 -0.3125,-0.5 -0.38465,-0.97734 -0.60829,-2.0236 -0.71875,-3.09375 -0.12977,-1.25719 -0.0596,-2.50699 -0.0312,-3.78125 -4.22848,0.40111 -8.48564,0.74397 -12.78125,1.03125 z"
       id="path4405"
       inkscape:connector-curvature="0"
       inkscape:export-filename="C:\Users\Хирьянов\Dropbox\МФТИ информатика\Python3\kaa_in_mipt.png"
       inkscape:export-xdpi="248.58934"
       inkscape:export-ydpi="248.58934" />
    <path
       style="fill:#d8d393;fill-opacity:1;stroke:#000000;stroke-width:1px;stroke-linecap:butt;stroke-linejoin:miter;stroke-opacity:1"
       d="m 365.9375,278.03125 c -0.099,1.12086 -0.31715,2.21998 -0.3125,3.34375 0.006,1.53248 0.31743,3.05104 0.5625,4.5625 3.39556,-0.0752 6.62758,-0.21127 10.71875,0 1.60796,-0.18779 3.2077,-0.43366 4.8125,-0.65625 -0.17666,-1.13584 -0.27531,-2.27515 -0.28125,-3.4375 -0.008,-1.59533 0.0131,-3.18673 0.0312,-4.78125 -1.21743,0.0814 -2.35956,0.3125 -3.625,0.3125 -3.41613,-0.004 -7.94837,0.16403 -11.90625,0.65625 z"
       id="path4403"
       inkscape:connector-curvature="0"
       inkscape:export-filename="C:\Users\Хирьянов\Dropbox\МФТИ информатика\Python3\kaa_in_mipt.png"
       inkscape:export-xdpi="248.58934"
       inkscape:export-ydpi="248.58934" />
    <path
       style="fill:#d8d393;fill-opacity:1;stroke:#000000;stroke-width:1px;stroke-linecap:butt;stroke-linejoin:miter;stroke-opacity:1"
       d="m 348.25,277.34375 0,7.96875 c 6.48526,0.75599 12.20543,0.75197 17.9375,0.625 -0.24507,-1.51146 -0.55615,-3.03002 -0.5625,-4.5625 -0.005,-1.12377 0.21349,-2.22289 0.3125,-3.34375 -2.14967,0.26734 -4.17658,0.59077 -5.65625,1.125 -4.0454,-0.16259 -8.03402,-1.05195 -12.03125,-1.8125 z"
       id="path4401"
       inkscape:connector-curvature="0"
       inkscape:export-filename="C:\Users\Хирьянов\Dropbox\МФТИ информатика\Python3\kaa_in_mipt.png"
       inkscape:export-xdpi="248.58934"
       inkscape:export-ydpi="248.58934" />
    <path
       style="fill:#d8d393;fill-opacity:1;stroke:#000000;stroke-width:1px;stroke-linecap:butt;stroke-linejoin:miter;stroke-opacity:1"
       d="m 329.875,277.71875 c 0.12948,0.56322 0.34772,1.11046 0.40625,1.6875 0.11374,1.12135 0.12872,2.23837 0.15625,3.375 0.0173,0.71563 0.0956,1.41904 0.15625,2.125 5.18184,-0.59964 10.30532,-0.91763 15.03125,0.15625 0.94747,0.14444 1.7292,0.14558 2.625,0.25 l 0,-7.96875 c -2.6481,-0.50385 -5.30367,-0.97033 -7.96875,-1.0625 -3.84631,0.33261 -7.17775,0.88331 -10.40625,1.4375 z"
       id="path4399"
       inkscape:connector-curvature="0"
       inkscape:export-filename="C:\Users\Хирьянов\Dropbox\МФТИ информатика\Python3\kaa_in_mipt.png"
       inkscape:export-xdpi="248.58934"
       inkscape:export-ydpi="248.58934" />
    <path
       style="fill:#d8d393;fill-opacity:1;stroke:#000000;stroke-width:1px;stroke-linecap:butt;stroke-linejoin:miter;stroke-opacity:1"
       d="m 306.53125,279.4375 c -0.0886,2.21766 0.0514,4.40439 0.375,6.59375 0.0697,0.47157 0.19939,0.93625 0.28125,1.40625 7.43984,0.0724 15.50037,-1.61639 23.40625,-2.53125 -0.0607,-0.70596 -0.13892,-1.40937 -0.15625,-2.125 -0.0275,-1.13663 -0.0425,-2.25365 -0.15625,-3.375 -0.0585,-0.57704 -0.27677,-1.12428 -0.40625,-1.6875 -6.49777,1.11537 -12.43545,2.26068 -20.3125,1.78125 -1.01455,0.0338 -2.01648,-0.0639 -3.03125,-0.0625 z"
       id="path4397"
       inkscape:connector-curvature="0"
       inkscape:export-filename="C:\Users\Хирьянов\Dropbox\МФТИ информатика\Python3\kaa_in_mipt.png"
       inkscape:export-xdpi="248.58934"
       inkscape:export-ydpi="248.58934" />
    <path
       style="fill:#d8d393;fill-opacity:1;stroke:#000000;stroke-width:1px;stroke-linecap:butt;stroke-linejoin:miter;stroke-opacity:1"
       d="m 264.5625,288.1875 c -0.004,1.27796 0.059,2.53661 0.34375,3.75 0.34641,1.47595 0.87227,2.91116 1.5,4.3125 0.56962,1.27161 1.29341,2.45927 1.96875,3.6875 2.17037,-1.96286 3.97747,-4.38041 5.09375,-7.21875 2.34208,-5.45521 5.89209,-7.33389 9.96875,-7.6875 -0.17123,-0.71536 -0.32544,-1.43841 -0.5625,-2.125 l -0.66291,-3.22617 c 0.23706,0.68659 1.05418,4.63581 1.22541,5.35117 6.44376,-0.55893 14.20066,2.76114 20.5625,2.3125 1.03512,0.0999 2.12114,0.0834 3.1875,0.0937 -0.0819,-0.47 -0.21156,-0.93468 -0.28125,-1.40625 -0.32357,-2.18936 -0.46357,-4.37609 -0.375,-6.59375 -9.40482,0.0134 -18.80582,-1.0416 -27.6875,0.4375 -3.38448,2.09612 -8.06014,2.30686 -11.0625,5 -0.6718,1.55259 -2.06169,2.3262 -3.21875,3.3125 z"
       id="path4395"
       inkscape:connector-curvature="0"
       sodipodi:nodetypes="cssccccccccscccc"
       inkscape:export-filename="C:\Users\Хирьянов\Dropbox\МФТИ информатика\Python3\kaa_in_mipt.png"
       inkscape:export-xdpi="248.58934"
       inkscape:export-ydpi="248.58934" />
    <path
       style="fill:#d8d393;fill-opacity:1;stroke:#000000;stroke-width:1px;stroke-linecap:butt;stroke-linejoin:miter;stroke-opacity:1"
       d="m 248.8125,289.21875 c -0.71055,1.02694 -1.43644,2.04886 -2,3.15625 -0.7584,1.49025 -1.38602,3.03067 -1.90625,4.625 -0.25344,0.77673 -0.39116,1.582 -0.59375,2.375 6.61099,7.88793 17.25563,6.71855 24.0625,0.5625 -0.67534,-1.22823 -1.39913,-2.41589 -1.96875,-3.6875 -0.62773,-1.40134 -1.15359,-2.83655 -1.5,-4.3125 -0.28478,-1.21339 -0.34784,-2.47204 -0.34375,-3.75 -0.55824,0.47585 -1.07126,1.0017 -1.40625,1.6875 -2.75631,1.8788 -8.77803,2.51279 -12.5,1.0625 -0.66882,-0.57089 -1.24827,-1.15453 -1.84375,-1.71875 z"
       id="path4393"
       inkscape:connector-curvature="0"
       inkscape:export-filename="C:\Users\Хирьянов\Dropbox\МФТИ информатика\Python3\kaa_in_mipt.png"
       inkscape:export-xdpi="248.58934"
       inkscape:export-ydpi="248.58934" />
    <path
       style="fill:#d8d393;fill-opacity:1;stroke:#000000;stroke-width:1px;stroke-linecap:butt;stroke-linejoin:miter;stroke-opacity:1"
       d="m 242.4375,275.875 c -1.20118,1.07187 -2.34803,2.25029 -3.59375,3.3125 -0.76377,0.65126 -1.56083,1.22488 -2.4375,1.65625 -0.0751,0.0369 -0.17382,0.0278 -0.25,0.0625 0.72261,6.83166 2.35542,13.2013 7.78125,18.125 0.11195,0.14202 0.26055,0.2072 0.375,0.34375 0.20259,-0.793 0.34031,-1.59827 0.59375,-2.375 0.52023,-1.59433 1.14785,-3.13475 1.90625,-4.625 0.56356,-1.10739 1.28945,-2.12931 2,-3.15625 -1.12882,-1.06956 -2.19102,-2.17334 -3.15625,-3.71875 -2.28806,-2.23418 -2.32149,-6.32173 -3.21875,-9.625 z"
       id="path4391"
       inkscape:connector-curvature="0"
       inkscape:export-filename="C:\Users\Хирьянов\Dropbox\МФТИ информатика\Python3\kaa_in_mipt.png"
       inkscape:export-xdpi="248.58934"
       inkscape:export-ydpi="248.58934" />
    <path
       style="fill:#d8d393;fill-opacity:1;stroke:#000000;stroke-width:1px;stroke-linecap:butt;stroke-linejoin:miter;stroke-opacity:1"
       d="m 239,258.78125 c -0.99101,0.3919 -1.94566,0.84942 -2.8125,1.46875 -0.42011,0.30015 -0.88734,0.51995 -1.3125,0.8125 0.0353,1.61328 0.19948,3.17461 0.1875,4.8125 0.483,5.07407 0.57828,10.15787 1.09375,15.03125 0.0762,-0.0347 0.17494,-0.0256 0.25,-0.0625 0.87667,-0.43137 1.67373,-1.00499 2.4375,-1.65625 1.24572,-1.06221 2.39257,-2.24063 3.59375,-3.3125 -0.32395,-1.19261 -0.72858,-2.29859 -1.4375,-3.15625 -0.29814,-4.34664 -1.62208,-8.20511 -1.78125,-12.84375 -0.0835,-0.15368 -0.14133,-0.80839 -0.21875,-1.09375 z"
       id="path4389"
       inkscape:connector-curvature="0"
       inkscape:export-filename="C:\Users\Хирьянов\Dropbox\МФТИ информатика\Python3\kaa_in_mipt.png"
       inkscape:export-xdpi="248.58934"
       inkscape:export-ydpi="248.58934" />
    <path
       style="fill:#d8d393;fill-opacity:1;stroke:#000000;stroke-width:1px;stroke-linecap:butt;stroke-linejoin:miter;stroke-opacity:1"
       d="m 236.84375,236.8125 c -0.43062,0.51216 -0.8353,1.03409 -1.34375,1.46875 -0.54471,0.46566 -1.18107,0.8175 -1.8125,1.15625 0.23273,2.83008 0.45046,5.69684 0.65625,8.5 0.3358,-0.12868 0.67004,-0.2656 1,-0.40625 l 1.96875,-0.75 c -0.32996,0.14065 -2.63295,1.02757 -2.96875,1.15625 0.31778,4.32876 0.43491,8.72532 0.53125,13.125 0.42516,-0.29255 0.89239,-0.51235 1.3125,-0.8125 0.86684,-0.61933 1.82149,-1.07685 2.8125,-1.46875 -0.94178,-3.47114 -1.50467,-15.22288 -2.15625,-21.96875 z"
       id="path4387"
       inkscape:connector-curvature="0"
       sodipodi:nodetypes="csccccccscc"
       inkscape:export-filename="C:\Users\Хирьянов\Dropbox\МФТИ информатика\Python3\kaa_in_mipt.png"
       inkscape:export-xdpi="248.58934"
       inkscape:export-ydpi="248.58934" />
    <path
       style="fill:#d8d393;fill-opacity:1;stroke:#000000;stroke-width:1px;stroke-linecap:butt;stroke-linejoin:miter;stroke-opacity:1"
       d="m 234.21875,225.125 c -0.1445,-0.33175 -0.21562,-0.63101 -0.375,-0.96875 -0.68953,-0.46429 -1.36339,-0.64984 -2,-0.59375 -1.90983,0.16828 -0.95502,0.37195 -3.34375,4.5 -0.37617,0.65007 -0.90418,1.88701 -1.34375,2.71875 0.52874,1.40241 1.0481,2.82465 1.6875,4.1875 0.57909,1.2343 1.34344,2.36337 2.1875,3.4375 0.65162,-2.18963 1.23667,-4.39099 1.96875,-6.5625 -0.21029,-1.05553 -0.18078,-2.17254 -0.0312,-3.21875 0.15099,-1.05636 0.4262,-2.06182 0.71875,-2.9375 0.0666,-0.26926 0.34398,-0.38124 0.53125,-0.5625 z"
       id="path4525"
       inkscape:connector-curvature="0"
       inkscape:export-filename="C:\Users\Хирьянов\Dropbox\МФТИ информатика\Python3\kaa_in_mipt.png"
       inkscape:export-xdpi="248.58934"
       inkscape:export-ydpi="248.58934" />
    <path
       style="fill:#d8d393;fill-opacity:1;stroke:#000000;stroke-width:1px;stroke-linecap:butt;stroke-linejoin:miter;stroke-opacity:1"
       d="m 234.21875,225.125 c -0.18727,0.18126 -0.46462,0.29324 -0.53125,0.5625 -0.29255,0.87568 -0.56776,1.88114 -0.71875,2.9375 -0.14953,1.04621 -0.17904,2.16322 0.0312,3.21875 0.0243,-0.0721 0.0378,-0.14672 0.0625,-0.21875 0.19469,2.66062 0.41105,5.21076 0.625,7.8125 0.63143,-0.33875 1.26779,-0.69059 1.8125,-1.15625 0.50845,-0.43466 0.91313,-0.95659 1.34375,-1.46875 -0.0483,-0.50015 -0.075,-1.38278 -0.125,-1.8125 -0.23772,-3.38219 -1.03239,-6.50574 -2.5,-9.875 z"
       id="path3097"
       inkscape:connector-curvature="0"
       inkscape:export-filename="C:\Users\Хирьянов\Dropbox\МФТИ информатика\Python3\kaa_in_mipt.png"
       inkscape:export-xdpi="248.58934"
       inkscape:export-ydpi="248.58934" />
    <path
       style="fill:#1f201b;fill-opacity:1;stroke:#000000;stroke-width:1px;stroke-linecap:butt;stroke-linejoin:miter;stroke-opacity:1"
       d="m 208.84375,262.1875 c -1.85247,4.17064 -5.72701,7.81807 -10.45852,8.06231 -1.68482,0.10137 -3.5053,-0.0295 -5.00208,0.89552 -0.85559,1.34901 1.05712,2.24745 1.99954,2.82107 1.74729,0.98538 3.67715,1.57752 5.59584,2.12771 1.32606,-0.36551 1.83381,-1.71855 3.69934,-2.7158 1.16445,-0.80629 2.16144,-1.77744 3.38919,-2.45453 1.59862,-1.77025 1.84302,-2.13411 1.99069,-3.75262 0.33912,-1.65553 -0.9159,-1.52656 -0.80918,-3.17388 -0.31234,-0.58043 -0.51711,-1.12164 -0.40482,-1.80978 z"
       id="path3103"
       inkscape:connector-curvature="0"
       sodipodi:nodetypes="cccccccccc"
       inkscape:export-filename="C:\Users\Хирьянов\Dropbox\МФТИ информатика\Python3\kaa_in_mipt.png"
       inkscape:export-xdpi="248.58934"
       inkscape:export-ydpi="248.58934" />
    <path
       style="fill:#1f201b;fill-opacity:1;stroke:#000000;stroke-width:1px;stroke-linecap:butt;stroke-linejoin:miter;stroke-opacity:1"
       d="m 215.15625,235.4375 c -0.11565,0.0119 -0.20355,0.0514 -0.3125,0.0937 -0.26595,0.0384 -0.54177,0.0608 -0.8125,0.0625 -0.16321,1.91494 -0.26529,3.84462 -0.25,5.78125 -0.61758,2.97979 -1.09923,6.55489 -1.78125,10.15625 0.21127,0.49847 0.46348,1.00093 0.90625,1.34375 0.88329,0.24984 1.02437,-0.8769 1.09375,-1.5 0.49588,-1.96944 2.23611,-3.79296 2.375,-5.53125 0.31234,-0.78629 1.26544,-1.37292 1.09375,-2.3125 -0.0862,-2.10143 -1.20764,-4.95939 -0.65625,-6.65625 0.0629,-0.86566 -0.84673,-1.52053 -1.65625,-1.4375 z"
       id="path3111"
       inkscape:connector-curvature="0"
       sodipodi:nodetypes="ccccccccccc"
       inkscape:export-filename="C:\Users\Хирьянов\Dropbox\МФТИ информатика\Python3\kaa_in_mipt.png"
       inkscape:export-xdpi="248.58934"
       inkscape:export-ydpi="248.58934" />
    <path
       style="fill:#1f201b;fill-opacity:1;stroke:#000000;stroke-width:1px;stroke-linecap:butt;stroke-linejoin:miter;stroke-opacity:1"
       d="m 217.0625,218.4375 c -0.66043,2.82377 -1.28177,5.67011 -1.8125,8.53125 0.16742,0.0288 0.33749,0.0516 0.5,0.0937 0.64955,0.0985 1.31493,-0.0402 1.96875,0 0.53128,-0.12119 1.2613,0.31209 1.65625,-0.1875 0.092,-0.572 0.18187,-1.16618 0.375,-1.71875 0.21848,-0.60467 0.22653,-1.2423 0.1875,-1.875 -0.0205,-1.08098 0.0453,-2.169 0.0312,-3.25 -0.45955,-0.45515 -1.06286,-0.75013 -1.6875,-0.90625 -0.53647,0.10108 -0.83461,-0.41349 -1.21875,-0.6875 z"
       id="path3140"
       inkscape:connector-curvature="0"
       inkscape:export-filename="C:\Users\Хирьянов\Dropbox\МФТИ информатика\Python3\kaa_in_mipt.png"
       inkscape:export-xdpi="248.58934"
       inkscape:export-ydpi="248.58934" />
    <path
       style="fill:#1f201b;fill-opacity:1;stroke:#000000;stroke-width:1px;stroke-linecap:butt;stroke-linejoin:miter;stroke-opacity:1"
       d="m 225.4375,188.34375 c -3.9343,4.92439 -3.81848,14.36752 -6.0625,20.15625 -0.19694,0.89222 -0.41739,1.79252 -0.625,2.6875 0.5185,0.15941 1.02771,0.33583 1.5,0.5 1.12976,-0.262 2.22213,-0.98429 2.84375,-1.96875 1.08157,-0.90301 1.56175,-2.09705 1.75,-3.53125 0.4241,-1.33043 -0.20204,-2.79417 0.40625,-4.0625 0.29183,-0.84783 0.50519,-1.86351 1.25,-2.59375 0.60153,-1.40327 0.70467,-3.04193 1.625,-4.3125 1.51776,-0.43829 0.90181,-2.57585 0.5625,-3.6875 -0.47838,-1.19882 -1.75564,-1.56376 -2.40625,-2.375 -0.44834,-0.11369 -0.6702,-0.43832 -0.84375,-0.8125 z"
       id="path3154"
       inkscape:connector-curvature="0"
       inkscape:export-filename="C:\Users\Хирьянов\Dropbox\МФТИ информатика\Python3\kaa_in_mipt.png"
       inkscape:export-xdpi="248.58934"
       inkscape:export-ydpi="248.58934" />
    <path
       style="fill:#1f201b;fill-opacity:1;stroke:#000000;stroke-width:1px;stroke-linecap:butt;stroke-linejoin:miter;stroke-opacity:1"
       d="m 234.58885,209.38988 c -0.12688,-3.58492 0.91736,-7.33579 1.8989,-10.37001 0.26838,-1.51047 0.0244,-3.04778 0.14915,-4.56788 0.99565,-0.50882 2.16898,-0.081 3.23473,-0.18102 1.20349,0.0146 2.3254,-0.48105 3.46601,-0.7746 0.4683,0.0163 1.00747,0.5667 1.51127,0.60497 0.19489,2.03489 1.23177,3.35463 1.93954,5.04101 0.12275,0.74804 0.5347,1.40926 0.4466,2.18989 -0.0483,2.41782 0.98259,5.46184 0.9939,7.88044 -1.1087,0.13205 -3.33483,-0.81627 -4.33419,-0.17551 -1.46698,-0.002 -2.7219,1.02229 -3.53664,2.15992 -0.12266,0.83379 -0.83616,1.99412 -1.7172,1.07022 -0.94583,-0.58991 -1.67013,-1.42839 -2.30568,-2.31755 -0.45464,-0.52085 -1.15144,-0.41759 -1.74637,-0.55984 l 0,-4e-5 z"
       id="path3164"
       inkscape:connector-curvature="0"
       sodipodi:nodetypes="cccccccccccccccc"
       inkscape:export-filename="C:\Users\Хирьянов\Dropbox\МФТИ информатика\Python3\kaa_in_mipt.png"
       inkscape:export-xdpi="248.58934"
       inkscape:export-ydpi="248.58934" />
    <path
       style="fill:#1f201b;fill-opacity:1;stroke:#000000;stroke-width:1px;stroke-linecap:butt;stroke-linejoin:miter;stroke-opacity:1"
       d="m 232.75,185.125 c -0.79527,-0.0117 -1.53979,0.0632 -2.21875,0.1875 -0.003,0.0342 0.0211,0.0632 0.0312,0.0937 0.0595,0.17857 0.19048,0.32142 0.25,0.5 0.0532,0.15972 -0.11905,0.38095 0,0.5 0.0595,0.0595 0.19048,-0.0595 0.25,0 0.0595,0.0595 -0.0595,0.19048 0,0.25 0.0595,0.0595 0.19048,-0.0595 0.25,0 0.0595,0.0595 -0.0753,0.21235 0,0.25 0.19922,0.22588 0.52412,-0.11294 0.75,0 0.10648,0.0532 0.14352,0.19676 0.25,0.25 0.15059,0.0753 0.34941,-0.0753 0.5,0 0.10648,0.0532 0.14352,0.19677 0.25,0.25 0.0805,0.0402 1.05555,0 1.28125,0 l 3.53125,0 c 0.0927,0 0.98984,0.0102 1,0 0.32657,-0.32657 -0.0718,-0.23484 -0.15625,-0.25 0.0245,-0.0238 0.16244,-0.10981 0.3125,-0.1875 -1.47106,-0.8812 -3.13939,-1.50455 -5.09375,-1.78125 -0.40649,-0.0387 -0.8092,-0.0569 -1.1875,-0.0625 z"
       id="path3173"
       inkscape:connector-curvature="0"
       inkscape:export-filename="C:\Users\Хирьянов\Dropbox\МФТИ информатика\Python3\kaa_in_mipt.png"
       inkscape:export-xdpi="248.58934"
       inkscape:export-ydpi="248.58934" />
    <path
       style="fill:#1f201b;fill-opacity:1;stroke:#000000;stroke-width:1px;stroke-linecap:butt;stroke-linejoin:round;stroke-opacity:1"
       d="m 243.40625,225.75 c -5e-4,2.64633 0.0185,5.29121 0,7.9375 0.22325,1.16874 0.57726,2.32005 1.0625,3.34375 1.74647,1.66867 1.12704,5.37081 2.15625,6.53125 1.03045,0.87749 2.51103,-0.10128 3.5625,0.59375 0.62739,0.77255 1.38508,1.31187 2.25,1.65625 0.21627,-0.018 0.40375,-0.0733 0.5625,-0.15625 -0.10934,-6.02106 -1.31248,-11.87324 -2.4375,-17.75 -2.34533,-0.40014 -4.85499,-2.15638 -7.15625,-2.15625 z"
       id="path3178"
       inkscape:connector-curvature="0"
       inkscape:export-filename="C:\Users\Хирьянов\Dropbox\МФТИ информатика\Python3\kaa_in_mipt.png"
       inkscape:export-xdpi="248.58934"
       inkscape:export-ydpi="248.58934" />
    <path
       style="fill:none;stroke:#000000;stroke-width:1px;stroke-linecap:butt;stroke-linejoin:miter;stroke-opacity:1"
       d="m 498.35937,269.15905 c 0.36947,0.0395 0.98555,0.745 1.17824,1.01051 0.59217,0.71591 1.33843,1.30431 2.00116,1.94806 0.66397,0.49893 2.8124,1.28995 3.57065,1.61922"
       id="path3977"
       inkscape:connector-curvature="0"
       sodipodi:nodetypes="cccc"
       inkscape:export-filename="C:\Users\Хирьянов\Dropbox\МФТИ информатика\Python3\kaa_in_mipt.png"
       inkscape:export-xdpi="248.58934"
       inkscape:export-ydpi="248.58934" />
    <path
       style="fill:#1f201b;fill-opacity:1;stroke:#000000;stroke-width:1;stroke-linecap:butt;stroke-linejoin:miter;stroke-miterlimit:4;stroke-dasharray:none;stroke-opacity:1"
       d="m 247.68722,249.77309 c -0.61099,0.35385 -0.83365,0.95733 -0.98238,1.34655 -0.0119,1.37852 0.003,2.75816 0,4.13668 0.41625,0.34824 0.6455,0.73459 0.98094,1.0825 0.0138,0.33397 0.92501,0.63795 1.70029,0.41238 0.81473,-0.18647 1.34154,-0.51486 2.19077,-0.68301 0.88979,-0.17445 1.60808,0.8292 2.46972,0.60438 -0.52176,-1.73725 0.0841,-3.74105 -0.33128,-5.46014 -1.01779,-0.39921 -2.48729,-1.13737 -3.38388,-1.14329 -1.01139,-0.0148 -1.77771,-0.4744 -2.64418,-0.29605 z"
       id="path4527"
       inkscape:connector-curvature="0"
       sodipodi:nodetypes="cccccccccc"
       inkscape:export-filename="C:\Users\Хирьянов\Dropbox\МФТИ информатика\Python3\kaa_in_mipt.png"
       inkscape:export-xdpi="248.58934"
       inkscape:export-ydpi="248.58934" />
    <path
       style="fill:#1f201b;fill-opacity:1;stroke:#000000;stroke-width:1;stroke-linecap:butt;stroke-linejoin:round;stroke-miterlimit:4;stroke-dasharray:none;stroke-opacity:1"
       d="m 252.0625,262.96875 c -0.65325,-0.0507 -1.31484,0.13211 -1.90625,0.59375 -1.58607,0.80649 -2.70757,2.91578 -3.53125,5.125 0.73495,2.39188 3.3211,4.18144 3.8125,5.59375 0.22338,2.4141 1.40396,4.14839 2.15625,6.15625 0.3003,1.563 1.0988,3.30882 2.25,3.15625 0.98169,-0.48124 1.22641,-2.24133 1.59375,-3.5625 0.66372,-2.96494 2.44939,-4.66672 4.125,-6 1.23349,-1.026 2.77535,-1.98256 3.21875,-4.3125 0.1063,-0.53454 0.0683,-1.03987 -0.0625,-1.5 -2.17565,1.26707 -4.164,2.87713 -5.875,4.90625 -1.68946,-1.58572 -2.54855,-4.63164 -3.0625,-8.25 -0.71688,-1.14742 -1.7048,-1.82761 -2.71875,-1.90625 z"
       id="path4540"
       inkscape:connector-curvature="0"
       sodipodi:nodetypes="scccccccccccs"
       inkscape:export-filename="C:\Users\Хирьянов\Dropbox\МФТИ информатика\Python3\kaa_in_mipt.png"
       inkscape:export-xdpi="248.58934"
       inkscape:export-ydpi="248.58934" />
    <path
       style="fill:#1f201b;fill-opacity:1;stroke:#000000;stroke-width:1px;stroke-linecap:butt;stroke-linejoin:miter;stroke-opacity:1"
       d="m 285,263.78125 c -3.53699,0.002 -3.03559,-0.0303 -4.59375,0.20673 0.0422,0.0297 0.0815,0.0662 0.125,0.0937 1.25724,1.19341 4.01707,3.37367 2.06862,4.15625 -1.30176,0.52284 -4.72874,3.02084 -3.16237,3.84375 1.31626,0.16045 2.59776,-0.0913 3.9375,-0.0312 3.91372,0.17565 1.68226,0.46047 5.15625,-0.26923 3.95192,0.11019 7.38122,-2.03927 11.09375,-1.15625 1.62401,0.72998 3.53561,-0.0754 4.3125,-1.59375 -0.0684,-1.38505 2.15627,-2.54179 0.6875,-3.6875 -0.22429,-0.25943 -0.43145,-0.54558 -0.65625,-0.8125 -3.06493,-0.2293 -6.1248,-0.39967 -9.21875,-0.40625 -3.08924,-0.17858 -6.39316,-0.34531 -9.75,-0.34375 z"
       id="path4613"
       inkscape:connector-curvature="0"
       sodipodi:nodetypes="sccscsccccccs"
       inkscape:export-filename="C:\Users\Хирьянов\Dropbox\МФТИ информатика\Python3\kaa_in_mipt.png"
       inkscape:export-xdpi="248.58934"
       inkscape:export-ydpi="248.58934" />
    <path
       style="fill:#1f201b;fill-opacity:1;stroke:#000000;stroke-width:1px;stroke-linecap:butt;stroke-linejoin:miter;stroke-opacity:1"
       d="m 311.40625,265.125 c 10e-4,0.97494 0.008,1.96259 0,2.9375 0.61581,-0.0561 1.03237,0.47817 1.5,0.78125 1.05053,-0.044 1.83467,0.97161 2.90625,0.78125 1.22393,-0.029 2.46504,-0.0833 3.6875,0 0.56967,-0.0565 0.77967,-0.70163 0.8125,-1.1875 0.0153,-0.70913 0.50004,-1.37283 0.3125,-2.09375 -0.005,-0.26998 0.01,-0.56689 0,-0.84375 -3.07736,0.015 -6.15201,-0.15091 -9.21875,-0.375 z"
       id="path4628"
       inkscape:connector-curvature="0"
       inkscape:export-filename="C:\Users\Хирьянов\Dropbox\МФТИ информатика\Python3\kaa_in_mipt.png"
       inkscape:export-xdpi="248.58934"
       inkscape:export-ydpi="248.58934" />
    <path
       style="fill:#1f201b;fill-opacity:1;stroke:#000000;stroke-width:1px;stroke-linecap:butt;stroke-linejoin:miter;stroke-opacity:1"
       d="m 329.78125,265.25 c -0.0461,1.14235 -0.63277,2.27413 -0.78125,3.40625 1.04042,1.27209 2.84512,0.2299 4.21875,0.59375 3.67198,0.004 7.35357,-0.33789 11,0.25 2.44003,0.0641 4.96116,-0.22871 7.3125,0.59375 2.42011,0.58285 4.81026,1.49705 7.34375,1.28125 1.18044,-0.22793 3.13791,0.63376 3.46875,-1.03125 0.40641,-1.64903 -0.37847,-3.32221 -0.0937,-4.96875 -0.65308,0.0108 -1.2714,0.0126 -1.9375,0.0312 -10.24824,0.0857 -20.30309,1.16464 -30.53125,-0.15625 z"
       id="path4659"
       inkscape:connector-curvature="0"
       inkscape:export-filename="C:\Users\Хирьянов\Dropbox\МФТИ информатика\Python3\kaa_in_mipt.png"
       inkscape:export-xdpi="248.58934"
       inkscape:export-ydpi="248.58934" />
    <path
       style="fill:#1f201b;fill-opacity:1;stroke:#000000;stroke-width:1px;stroke-linecap:butt;stroke-linejoin:miter;stroke-opacity:1"
       d="m 369.09375,265.375 c -0.63773,1.20528 -1.75517,2.29974 -1.3125,3.65625 1.51345,0.70564 2.97717,1.36863 4.25,2.53125 1.92124,1.09574 4.21029,0.048 5.71875,-1.28125 1.63767,-0.58072 1.9572,-2.76674 0.5,-3.75 -0.22116,-0.30508 -0.40212,-0.64704 -0.59375,-1 -2.81975,-0.0621 -5.66705,-0.11627 -8.5625,-0.15625 z"
       id="path4670"
       inkscape:connector-curvature="0"
       inkscape:export-filename="C:\Users\Хирьянов\Dropbox\МФТИ информатика\Python3\kaa_in_mipt.png"
       inkscape:export-xdpi="248.58934"
       inkscape:export-ydpi="248.58934" />
    <path
       style="fill:#1f201b;fill-opacity:1;stroke:#000000;stroke-width:1px;stroke-linecap:butt;stroke-linejoin:miter;stroke-opacity:1"
       d="m 243.59375,215.09375 c -0.98043,0.0821 -0.48275,1.34699 -0.59375,2 -0.17221,0.78662 0.30483,1.4312 0.6875,2.0625 0.43571,0.68984 1.33733,0.90512 2.125,1.1875 0.77054,0.0961 1.53909,-0.12952 2.25,0.3125 0.6487,0.0965 0.96035,-0.28984 1.15625,-0.78125 -0.19499,-1.41986 -0.36021,-2.85009 -0.46875,-4.28125 -0.58841,-0.0646 -1.14122,-0.20236 -1.6875,-0.46875 -1.15285,-0.0649 -2.31651,0.0528 -3.46875,-0.0312 z"
       id="path4683"
       inkscape:connector-curvature="0"
       inkscape:export-filename="C:\Users\Хирьянов\Dropbox\МФТИ информатика\Python3\kaa_in_mipt.png"
       inkscape:export-xdpi="248.58934"
       inkscape:export-ydpi="248.58934" />
    <path
       style="fill:#1f201b;fill-opacity:1;stroke:#000000;stroke-width:1;stroke-linecap:butt;stroke-linejoin:miter;stroke-miterlimit:4;stroke-dasharray:none;stroke-opacity:1"
       d="m 276.53125,264.28125 c -2.9173,0.36452 -5.76458,0.93716 -8.4375,1.90625 -0.21065,0.2947 -0.38665,0.60517 -0.46875,0.96875 0.0704,0.70254 0.5505,1.17274 0.84375,1.46875 1.25091,0.57937 2.49527,1.11656 3.75,1.6875 0.48891,-0.2356 0.95097,-0.27538 1.40625,-0.4375 0.30993,0.1252 0.94828,-0.57569 1.0625,-1.375 0.16611,-0.81912 0.0842,-1.43825 0.28125,-2.28125 0.20325,-0.86231 1.36899,-1.10786 1.5625,-1.9375 z"
       id="path4722"
       inkscape:connector-curvature="0"
       inkscape:export-filename="C:\Users\Хирьянов\Dropbox\МФТИ информатика\Python3\kaa_in_mipt.png"
       inkscape:export-xdpi="248.58934"
       inkscape:export-ydpi="248.58934" />
    <path
       style="fill:#1f201b;fill-opacity:1;stroke:#000000;stroke-width:1px;stroke-linecap:butt;stroke-linejoin:miter;stroke-opacity:1"
       d="m 416,263.8125 c -3.10446,0.0589 -6.1527,0.10852 -9.0625,0.0937 -8.11642,1.32588 -14.94951,1.69038 -21.46875,1.71875 -0.30869,1.31659 -0.7738,2.67625 -0.0625,3.90625 0.86705,1.22149 2.54078,1.15286 3.875,1.3125 2.50802,0.15618 4.99197,-0.15522 7.5,0 2.46599,-0.4601 4.96588,-0.86467 7.3125,-1.78125 1.88978,-0.44163 3.8938,-0.10435 5.75,-0.75 1.85522,-0.3772 3.77715,-0.004 5.625,-0.4375 1.05269,-1.06417 1.06968,-2.70696 0.53125,-4.0625 z"
       id="path4727"
       inkscape:connector-curvature="0"
       inkscape:export-filename="C:\Users\Хирьянов\Dropbox\МФТИ информатика\Python3\kaa_in_mipt.png"
       inkscape:export-xdpi="248.58934"
       inkscape:export-ydpi="248.58934" />
    <path
       style="fill:#1f201b;fill-opacity:1;stroke:#000000;stroke-width:1px;stroke-linecap:butt;stroke-linejoin:miter;stroke-opacity:1"
       d="m 426.71875,263.625 c -2.04762,0.0162 -4.06884,0.0869 -6.09375,0.125 0.31295,0.15481 0.60644,0.2964 0.96875,0.46875 1.13412,0.39896 2.84285,3.48921 3.96875,2.21875 1.15598,-0.19492 2.29909,-1.47489 3.28125,-2.8125 -0.71007,8.9e-4 -1.41539,-0.006 -2.125,0 z"
       id="path4736"
       inkscape:connector-curvature="0"
       inkscape:export-filename="C:\Users\Хирьянов\Dropbox\МФТИ информатика\Python3\kaa_in_mipt.png"
       inkscape:export-xdpi="248.58934"
       inkscape:export-ydpi="248.58934" />
    <path
       style="fill:#1f201b;fill-opacity:1;stroke:#000000;stroke-width:1;stroke-linecap:butt;stroke-linejoin:round;stroke-miterlimit:4;stroke-dasharray:none;stroke-opacity:1"
       d="m 434.21875,263.6875 c 0.59269,1.33077 1.80724,2.66458 3.125,3.84375 2.49524,0.18742 5.09947,-1.58845 6.59375,-1.53125 2.32944,0.67187 4.3873,0.21869 6.53125,0.25 1.56494,0.29004 3.4725,0.15889 3.75,-0.96875 -0.0172,-0.20676 -0.10953,-0.3704 -0.21875,-0.5625 -2.46795,-0.16213 -4.90536,-0.27445 -7.25,-0.1875 -4.0311,-0.50453 -8.25831,-0.74799 -12.53125,-0.84375 z"
       id="path4741"
       inkscape:connector-curvature="0"
       inkscape:export-filename="C:\Users\Хирьянов\Dropbox\МФТИ информатика\Python3\kaa_in_mipt.png"
       inkscape:export-xdpi="248.58934"
       inkscape:export-ydpi="248.58934" />
    <path
       style="fill:#1f201b;fill-opacity:1;stroke:#000000;stroke-width:1px;stroke-linecap:butt;stroke-linejoin:miter;stroke-opacity:1"
       d="m 460.21875,265.125 c 0.10963,0.41829 0.22964,0.82769 0.3125,1.25 0.202,0.53567 0.86594,0.5628 1.34375,0.46875 0.68894,-0.16875 1.06902,0.62779 2.21875,-0.0937 0.28294,-0.17757 0.37429,-0.6903 0.34375,-1.40625 -1.39511,-0.0375 -2.80794,-0.1238 -4.21875,-0.21875 z"
       id="path4746"
       inkscape:connector-curvature="0"
       inkscape:export-filename="C:\Users\Хирьянов\Dropbox\МФТИ информатика\Python3\kaa_in_mipt.png"
       inkscape:export-xdpi="248.58934"
       inkscape:export-ydpi="248.58934" />
    <path
       style="fill:#1f201b;fill-opacity:1;stroke:#000000;stroke-width:1;stroke-linecap:butt;stroke-linejoin:round;stroke-miterlimit:4;stroke-dasharray:none;stroke-opacity:1"
       d="m 484.625,260.03125 c -1.79369,0.49163 -3.43738,1.2622 -4.71875,2.3125 -3.12424,1.83546 -6.61747,2.62787 -10.3125,2.90625 -0.0861,0.96601 0.11048,1.81658 0.78125,2.09375 1.09079,0.0741 2.14204,-0.53017 4.09375,-0.875 1.95172,-0.34484 4.77425,-1.31094 4.75,-2.1875 -0.0242,-0.87656 4.41978,-1.17266 5.96875,-2.96875 0.15962,-0.18203 -0.27327,-0.74603 -0.5625,-1.28125 z"
       id="path4751"
       inkscape:connector-curvature="0"
       inkscape:export-filename="C:\Users\Хирьянов\Dropbox\МФТИ информатика\Python3\kaa_in_mipt.png"
       inkscape:export-xdpi="248.58934"
       inkscape:export-ydpi="248.58934" />
  </g>
</svg>
